STARTFONT 2.1
COMMENT
COMMENT Converted from OpenType font "Hack-Bold.ttf" by "otf2bdf 3.0".
COMMENT
FONT -FreeType-Hack-Bold-R-Normal--22-160-100-100-P-108-ISO10646-1
SIZE 16 100 100
FONTBOUNDINGBOX 32 32 -16 -9
STARTPROPERTIES 19
FOUNDRY "FreeType"
FAMILY_NAME "Hack"
WEIGHT_NAME "Bold"
SLANT "R"
SETWIDTH_NAME "Normal"
ADD_STYLE_NAME ""
PIXEL_SIZE 22
POINT_SIZE 160
RESOLUTION_X 100
RESOLUTION_Y 100
SPACING "P"
AVERAGE_WIDTH 108
CHARSET_REGISTRY "ISO10646"
CHARSET_ENCODING "1"
FONT_ASCENT 20
FONT_DESCENT 5
COPYRIGHT "Copyright (c) 2018 Source Foundry Authors / Copyright (c) 2003 by Bitstream, Inc. All Rights Reserved."
_OTF_FONTFILE "Hack-Bold.ttf"
_OTF_PSNAME "Hack-Bold"
ENDPROPERTIES
CHARS 1624
STARTCHAR 0000
ENCODING 0
SWIDTH 0 0
DWIDTH 0 0
BBX 0 0 0 0
BITMAP
ENDCHAR
STARTCHAR 000D
ENCODING 13
SWIDTH 585 0
DWIDTH 13 0
BBX 0 0 0 0
BITMAP
ENDCHAR
STARTCHAR 0020
ENCODING 32
SWIDTH 585 0
DWIDTH 13 0
BBX 0 0 0 0
BITMAP
ENDCHAR
STARTCHAR 0021
ENCODING 33
SWIDTH 585 0
DWIDTH 13 0
BBX 4 17 5 0
BITMAP
E0
E0
E0
E0
E0
E0
E0
E0
E0
60
60
60
00
E0
F0
F0
E0
ENDCHAR
STARTCHAR 0022
ENCODING 34
SWIDTH 585 0
DWIDTH 13 0
BBX 8 6 3 11
BITMAP
C7
C7
C7
C7
C7
C7
ENDCHAR
STARTCHAR 0023
ENCODING 35
SWIDTH 585 0
DWIDTH 13 0
BBX 13 17 0 0
BITMAP
0730
0670
0670
0E60
7FF8
7FF8
7FF8
1CC0
1CC0
18C0
FFF0
FFF0
FFF0
3980
3180
3380
7300
ENDCHAR
STARTCHAR 0024
ENCODING 36
SWIDTH 585 0
DWIDTH 13 0
BBX 10 21 2 -3
BITMAP
0C00
0C00
0C00
7F80
FF80
EC80
EC00
EC00
FC00
7F00
3F80
0FC0
0DC0
0DC0
CDC0
FF80
FF00
1C00
0C00
0C00
0C00
ENDCHAR
STARTCHAR 0025
ENCODING 37
SWIDTH 585 0
DWIDTH 13 0
BBX 13 16 0 0
BITMAP
3C00
7E00
E600
C600
E600
7E18
3C70
0380
0E00
70F0
41F8
0398
0318
0398
01F8
00F0
ENDCHAR
STARTCHAR 0026
ENCODING 38
SWIDTH 585 0
DWIDTH 13 0
BBX 13 17 0 0
BITMAP
0FC0
1FC0
1FC0
3C40
3C00
1C00
1E00
1E00
3F00
7798
7398
E3F8
F1F8
70F0
7FF0
3FF8
1FB8
ENDCHAR
STARTCHAR 0027
ENCODING 39
SWIDTH 585 0
DWIDTH 13 0
BBX 3 6 5 11
BITMAP
E0
E0
E0
E0
E0
E0
ENDCHAR
STARTCHAR 0028
ENCODING 40
SWIDTH 585 0
DWIDTH 13 0
BBX 6 21 3 -3
BITMAP
1C
18
38
30
70
70
70
E0
E0
E0
E0
E0
E0
E0
70
70
70
30
38
18
1C
ENDCHAR
STARTCHAR 0029
ENCODING 41
SWIDTH 585 0
DWIDTH 13 0
BBX 6 21 4 -3
BITMAP
E0
70
30
38
38
1C
1C
1C
1C
1C
1C
1C
1C
1C
1C
1C
38
38
30
70
E0
ENDCHAR
STARTCHAR 002A
ENCODING 42
SWIDTH 585 0
DWIDTH 13 0
BBX 11 12 1 4
BITMAP
0600
0600
0600
8620
F7E0
7FC0
1F00
1F00
1B00
3980
71C0
2080
ENDCHAR
STARTCHAR 002B
ENCODING 43
SWIDTH 585 0
DWIDTH 13 0
BBX 12 12 1 1
BITMAP
0E00
0E00
0E00
0E00
FFF0
FFF0
FFF0
0E00
0E00
0E00
0E00
0E00
ENDCHAR
STARTCHAR 002C
ENCODING 44
SWIDTH 585 0
DWIDTH 13 0
BBX 5 9 4 -5
BITMAP
70
78
78
78
18
30
30
E0
40
ENDCHAR
STARTCHAR 002D
ENCODING 45
SWIDTH 585 0
DWIDTH 13 0
BBX 9 3 2 5
BITMAP
FF80
FF80
FF80
ENDCHAR
STARTCHAR 002E
ENCODING 46
SWIDTH 585 0
DWIDTH 13 0
BBX 4 4 5 0
BITMAP
E0
F0
F0
E0
ENDCHAR
STARTCHAR 002F
ENCODING 47
SWIDTH 585 0
DWIDTH 13 0
BBX 11 19 1 -2
BITMAP
0060
00C0
00C0
01C0
0180
0380
0300
0700
0600
0E00
0C00
0C00
1C00
1800
3800
3000
7000
6000
E000
ENDCHAR
STARTCHAR 0030
ENCODING 48
SWIDTH 585 0
DWIDTH 13 0
BBX 11 17 1 0
BITMAP
1F00
3F80
7FC0
71C0
71E0
74E0
F4E0
F4E0
F4E0
F4E0
F4E0
74E0
71E0
71C0
7FC0
3F80
1F00
ENDCHAR
STARTCHAR 0031
ENCODING 49
SWIDTH 585 0
DWIDTH 13 0
BBX 10 17 2 0
BITMAP
1E00
3E00
7E00
7E00
EE00
CE00
0E00
0E00
0E00
0E00
0E00
0E00
0E00
0E00
FFC0
FFC0
FFC0
ENDCHAR
STARTCHAR 0032
ENCODING 50
SWIDTH 585 0
DWIDTH 13 0
BBX 11 17 1 0
BITMAP
3F00
7F80
7FC0
41C0
01E0
01C0
01C0
03C0
0780
0700
0E00
1C00
3800
7000
FFE0
FFE0
FFE0
ENDCHAR
STARTCHAR 0033
ENCODING 51
SWIDTH 585 0
DWIDTH 13 0
BBX 11 17 1 0
BITMAP
3F00
7FC0
7FC0
81E0
01E0
01C0
1FC0
1F00
1FC0
01C0
00E0
00E0
00E0
81E0
FFC0
FFC0
7F00
ENDCHAR
STARTCHAR 0034
ENCODING 52
SWIDTH 585 0
DWIDTH 13 0
BBX 11 17 1 0
BITMAP
03C0
07C0
07C0
0FC0
1DC0
19C0
39C0
31C0
61C0
E1C0
FFE0
FFE0
FFE0
01C0
01C0
01C0
01C0
ENDCHAR
STARTCHAR 0035
ENCODING 53
SWIDTH 585 0
DWIDTH 13 0
BBX 10 17 2 0
BITMAP
FF80
FF80
FF80
E000
E000
FC00
FF00
FF80
8780
03C0
01C0
01C0
01C0
83C0
FF80
FF00
FE00
ENDCHAR
STARTCHAR 0036
ENCODING 54
SWIDTH 585 0
DWIDTH 13 0
BBX 11 17 1 0
BITMAP
0FC0
1FC0
3FC0
7820
7000
7700
6FC0
FFC0
F9E0
F0E0
F0E0
70E0
70E0
70E0
7FC0
3FC0
1F00
ENDCHAR
STARTCHAR 0037
ENCODING 55
SWIDTH 585 0
DWIDTH 13 0
BBX 11 17 1 0
BITMAP
FFE0
FFE0
FFE0
01C0
01C0
0380
0380
0780
0700
0700
0F00
0E00
0E00
1E00
1C00
1C00
3800
ENDCHAR
STARTCHAR 0038
ENCODING 56
SWIDTH 585 0
DWIDTH 13 0
BBX 11 17 1 0
BITMAP
1F00
3FC0
7FC0
71E0
70E0
71C0
3FC0
1F00
3FC0
71C0
60E0
E0E0
E0E0
71E0
7FC0
3FC0
1F00
ENDCHAR
STARTCHAR 0039
ENCODING 57
SWIDTH 585 0
DWIDTH 13 0
BBX 11 17 1 0
BITMAP
1F00
3F80
7FC0
F1C0
E1E0
E0E0
E1E0
F1E0
7FE0
7FE0
1EE0
00E0
01C0
41C0
7FC0
7F80
3E00
ENDCHAR
STARTCHAR 003A
ENCODING 58
SWIDTH 585 0
DWIDTH 13 0
BBX 4 13 5 0
BITMAP
E0
F0
F0
E0
00
00
00
00
00
E0
F0
F0
E0
ENDCHAR
STARTCHAR 003B
ENCODING 59
SWIDTH 585 0
DWIDTH 13 0
BBX 5 18 4 -5
BITMAP
70
78
78
70
00
00
00
00
00
70
78
78
78
18
18
30
E0
C0
ENDCHAR
STARTCHAR 003C
ENCODING 60
SWIDTH 585 0
DWIDTH 13 0
BBX 11 12 1 1
BITMAP
0020
00E0
03E0
1FC0
7E00
F000
F000
FE00
1FC0
03E0
00E0
0020
ENDCHAR
STARTCHAR 003D
ENCODING 61
SWIDTH 585 0
DWIDTH 13 0
BBX 11 8 1 3
BITMAP
FFE0
FFE0
FFE0
0000
0000
FFE0
FFE0
FFE0
ENDCHAR
STARTCHAR 003E
ENCODING 62
SWIDTH 585 0
DWIDTH 13 0
BBX 11 12 1 1
BITMAP
8000
E000
FC00
7F00
0FE0
01E0
01E0
0FE0
3F00
FC00
E000
8000
ENDCHAR
STARTCHAR 003F
ENCODING 63
SWIDTH 585 0
DWIDTH 13 0
BBX 9 18 2 0
BITMAP
3E00
7F80
FF80
C180
0180
0180
0380
0700
0E00
1C00
1C00
1C00
0000
0000
1C00
1C00
1C00
1C00
ENDCHAR
STARTCHAR 0040
ENCODING 64
SWIDTH 585 0
DWIDTH 13 0
BBX 13 20 0 -4
BITMAP
0380
0FE0
1FF0
3870
7030
63F8
E7F8
E7F8
CE38
CC38
CC18
CE38
C638
E7F8
63F8
7000
3810
3FF0
0FF8
07E0
ENDCHAR
STARTCHAR 0041
ENCODING 65
SWIDTH 585 0
DWIDTH 13 0
BBX 13 17 0 0
BITMAP
0780
0F80
0F80
0FC0
0DC0
1DC0
1DC0
1CE0
1CE0
38E0
3FE0
3FF0
3FF0
7070
7070
7078
F038
ENDCHAR
STARTCHAR 0042
ENCODING 66
SWIDTH 585 0
DWIDTH 13 0
BBX 12 17 1 0
BITMAP
FF80
FFC0
FFE0
E0E0
E0E0
E0E0
FFC0
FF80
FFC0
E0E0
E0E0
E0F0
E0F0
E0E0
FFE0
FFE0
FF80
ENDCHAR
STARTCHAR 0043
ENCODING 67
SWIDTH 585 0
DWIDTH 13 0
BBX 10 17 2 0
BITMAP
1F80
3FC0
7FC0
F040
F000
E000
E000
E000
E000
E000
E000
E000
F000
F040
7FC0
3FC0
1F80
ENDCHAR
STARTCHAR 0044
ENCODING 68
SWIDTH 585 0
DWIDTH 13 0
BBX 11 17 1 0
BITMAP
FE00
FF80
FFC0
F1E0
F1E0
F0E0
F0E0
F0E0
F0E0
F0E0
F0E0
F0E0
F1E0
F1E0
FFC0
FF80
FE00
ENDCHAR
STARTCHAR 0045
ENCODING 69
SWIDTH 585 0
DWIDTH 13 0
BBX 10 17 2 0
BITMAP
FFC0
FFC0
FFC0
E000
E000
E000
E000
FF80
FF80
FF80
E000
E000
E000
E000
FFC0
FFC0
FFC0
ENDCHAR
STARTCHAR 0046
ENCODING 70
SWIDTH 585 0
DWIDTH 13 0
BBX 10 17 2 0
BITMAP
FFC0
FFC0
FFC0
E000
E000
E000
E000
FF80
FF80
FF80
E000
E000
E000
E000
E000
E000
E000
ENDCHAR
STARTCHAR 0047
ENCODING 71
SWIDTH 585 0
DWIDTH 13 0
BBX 11 17 1 0
BITMAP
0FC0
1FE0
3FE0
7820
7020
7000
F000
F000
F3E0
F3E0
F3E0
70E0
70E0
78E0
3FE0
1FE0
0FC0
ENDCHAR
STARTCHAR 0048
ENCODING 72
SWIDTH 585 0
DWIDTH 13 0
BBX 11 17 1 0
BITMAP
F0E0
F0E0
F0E0
F0E0
F0E0
F0E0
F0E0
FFE0
FFE0
FFE0
F0E0
F0E0
F0E0
F0E0
F0E0
F0E0
F0E0
ENDCHAR
STARTCHAR 0049
ENCODING 73
SWIDTH 585 0
DWIDTH 13 0
BBX 10 17 2 0
BITMAP
FFC0
FFC0
FFC0
1C00
1C00
1C00
1C00
1C00
1C00
1C00
1C00
1C00
1C00
1C00
FFC0
FFC0
FFC0
ENDCHAR
STARTCHAR 004A
ENCODING 74
SWIDTH 585 0
DWIDTH 13 0
BBX 10 17 1 0
BITMAP
1FC0
1FC0
1FC0
01C0
01C0
01C0
01C0
01C0
01C0
01C0
01C0
01C0
81C0
C3C0
FF80
FF80
3F00
ENDCHAR
STARTCHAR 004B
ENCODING 75
SWIDTH 585 0
DWIDTH 13 0
BBX 12 17 1 0
BITMAP
E0F0
E1E0
E1C0
E380
E780
EF00
EE00
FE00
FF00
FF00
F780
E380
E3C0
E1C0
E1E0
E0F0
E0F0
ENDCHAR
STARTCHAR 004C
ENCODING 76
SWIDTH 585 0
DWIDTH 13 0
BBX 10 17 2 0
BITMAP
F000
F000
F000
F000
F000
F000
F000
F000
F000
F000
F000
F000
F000
F000
FFC0
FFC0
FFC0
ENDCHAR
STARTCHAR 004D
ENCODING 77
SWIDTH 585 0
DWIDTH 13 0
BBX 11 17 1 0
BITMAP
F1E0
F1E0
F1E0
F9E0
FB60
FB60
FB60
EF60
EF60
EE60
EE60
E060
E060
E060
E060
E060
E060
ENDCHAR
STARTCHAR 004E
ENCODING 78
SWIDTH 585 0
DWIDTH 13 0
BBX 11 17 1 0
BITMAP
F0E0
F0E0
F8E0
F8E0
F8E0
FCE0
ECE0
ECE0
E6E0
E6E0
E7E0
E3E0
E3E0
E3E0
E1E0
E1E0
E1E0
ENDCHAR
STARTCHAR 004F
ENCODING 79
SWIDTH 585 0
DWIDTH 13 0
BBX 11 17 1 0
BITMAP
1F00
3F80
7FC0
71E0
F0E0
F0E0
E0E0
E0E0
E0E0
E0E0
E0E0
F0E0
F0E0
71E0
7FC0
3F80
1F00
ENDCHAR
STARTCHAR 0050
ENCODING 80
SWIDTH 585 0
DWIDTH 13 0
BBX 10 17 2 0
BITMAP
FF00
FF80
FFC0
E1C0
E1C0
E1C0
E1C0
E3C0
FFC0
FF80
FC00
E000
E000
E000
E000
E000
E000
ENDCHAR
STARTCHAR 0051
ENCODING 81
SWIDTH 585 0
DWIDTH 13 0
BBX 12 20 1 -3
BITMAP
1F00
3F80
7FC0
71E0
F0E0
F0E0
E0E0
E0E0
E0E0
E0E0
E0E0
F0E0
F0E0
71E0
7FC0
3FC0
1F80
01C0
01E0
00F0
ENDCHAR
STARTCHAR 0052
ENCODING 82
SWIDTH 585 0
DWIDTH 13 0
BBX 12 17 1 0
BITMAP
FF00
FFC0
FFE0
F1E0
F0E0
F0E0
F1E0
FFC0
FF80
FF80
F380
F3C0
F1C0
F1E0
F0E0
F0F0
F070
ENDCHAR
STARTCHAR 0053
ENCODING 83
SWIDTH 585 0
DWIDTH 13 0
BBX 11 17 1 0
BITMAP
1F80
3FC0
7FC0
7040
F000
F000
7C00
7F00
3FC0
07C0
01E0
00E0
00E0
C1E0
FFE0
FFC0
3F00
ENDCHAR
STARTCHAR 0054
ENCODING 84
SWIDTH 585 0
DWIDTH 13 0
BBX 11 17 1 0
BITMAP
FFE0
FFE0
FFE0
0E00
0E00
0E00
0E00
0E00
0E00
0E00
0E00
0E00
0E00
0E00
0E00
0E00
0E00
ENDCHAR
STARTCHAR 0055
ENCODING 85
SWIDTH 585 0
DWIDTH 13 0
BBX 11 17 1 0
BITMAP
E0E0
E0E0
E0E0
E0E0
E0E0
E0E0
E0E0
E0E0
E0E0
E0E0
E0E0
E0E0
F0E0
71E0
7FE0
3FC0
1F00
ENDCHAR
STARTCHAR 0056
ENCODING 86
SWIDTH 585 0
DWIDTH 13 0
BBX 12 17 1 0
BITMAP
E0F0
E0E0
E0E0
F0E0
70E0
71E0
71C0
71C0
39C0
39C0
3B80
3B80
3B80
1F80
1F00
1F00
1F00
ENDCHAR
STARTCHAR 0057
ENCODING 87
SWIDTH 585 0
DWIDTH 13 0
BBX 13 17 0 0
BITMAP
E018
E038
E038
E038
6738
6738
67B8
67B8
77B0
7DB0
7DB0
7DB0
7CF0
3CF0
38F0
38F0
38F0
ENDCHAR
STARTCHAR 0058
ENCODING 88
SWIDTH 585 0
DWIDTH 13 0
BBX 13 17 0 0
BITMAP
F078
7870
38F0
3CE0
1DC0
1FC0
0F80
0780
0700
0F80
0FC0
1FC0
1DE0
3CE0
38F0
7070
F038
ENDCHAR
STARTCHAR 0059
ENCODING 89
SWIDTH 585 0
DWIDTH 13 0
BBX 13 17 0 0
BITMAP
F038
7078
7870
38F0
3CE0
1DE0
1FC0
0FC0
0F80
0780
0700
0700
0700
0700
0700
0700
0700
ENDCHAR
STARTCHAR 005A
ENCODING 90
SWIDTH 585 0
DWIDTH 13 0
BBX 11 17 1 0
BITMAP
FFE0
FFE0
FFE0
01E0
03C0
0380
0780
0F00
0E00
1E00
3C00
3800
7800
7000
FFE0
FFE0
FFE0
ENDCHAR
STARTCHAR 005B
ENCODING 91
SWIDTH 585 0
DWIDTH 13 0
BBX 8 22 3 -3
BITMAP
FF
FF
FF
E0
E0
E0
E0
E0
E0
E0
E0
E0
E0
E0
E0
E0
E0
E0
E0
FF
FF
FF
ENDCHAR
STARTCHAR 005C
ENCODING 92
SWIDTH 585 0
DWIDTH 13 0
BBX 11 19 1 -2
BITMAP
E000
6000
7000
3000
3800
1800
1C00
0C00
0C00
0E00
0600
0700
0300
0380
0180
01C0
00C0
00C0
0060
ENDCHAR
STARTCHAR 005D
ENCODING 93
SWIDTH 585 0
DWIDTH 13 0
BBX 7 22 3 -3
BITMAP
FE
FE
FE
0E
0E
0E
0E
0E
0E
0E
0E
0E
0E
0E
0E
0E
0E
0E
0E
FE
FE
FE
ENDCHAR
STARTCHAR 005E
ENCODING 94
SWIDTH 585 0
DWIDTH 13 0
BBX 12 7 1 11
BITMAP
0E00
0F00
1F00
3F80
79C0
70E0
E070
ENDCHAR
STARTCHAR 005F
ENCODING 95
SWIDTH 585 0
DWIDTH 13 0
BBX 11 3 1 -4
BITMAP
FFE0
FFE0
FFE0
ENDCHAR
STARTCHAR 0060
ENCODING 96
SWIDTH 585 0
DWIDTH 13 0
BBX 6 5 2 14
BITMAP
E0
70
38
18
0C
ENDCHAR
STARTCHAR 0061
ENCODING 97
SWIDTH 585 0
DWIDTH 13 0
BBX 12 13 1 0
BITMAP
3F80
7FC0
7FE0
40E0
0FE0
7FE0
FFE0
F0E0
E0E0
F1E0
FFE0
7FE0
3CF0
ENDCHAR
STARTCHAR 0062
ENCODING 98
SWIDTH 585 0
DWIDTH 13 0
BBX 10 18 2 0
BITMAP
E000
E000
E000
E000
E000
EF00
FF80
FFC0
F1C0
E1C0
E1C0
E1C0
E1C0
E1C0
F3C0
FFC0
FF80
EF00
ENDCHAR
STARTCHAR 0063
ENCODING 99
SWIDTH 585 0
DWIDTH 13 0
BBX 9 13 2 0
BITMAP
1F00
7F80
7F80
F080
E000
E000
E000
E000
E000
F080
7F80
7F80
1F00
ENDCHAR
STARTCHAR 0064
ENCODING 100
SWIDTH 585 0
DWIDTH 13 0
BBX 11 18 1 0
BITMAP
00E0
00E0
00E0
00E0
00E0
3CE0
7EE0
7FE0
F1E0
E1E0
E0E0
E0E0
E0E0
E1E0
F1E0
7FE0
7EE0
3CE0
ENDCHAR
STARTCHAR 0065
ENCODING 101
SWIDTH 585 0
DWIDTH 13 0
BBX 11 13 1 0
BITMAP
1F00
3FC0
7FC0
F0E0
E0E0
FFE0
FFE0
FFE0
E000
F020
7FE0
3FE0
1FC0
ENDCHAR
STARTCHAR 0066
ENCODING 102
SWIDTH 585 0
DWIDTH 13 0
BBX 10 18 2 0
BITMAP
0FC0
1FC0
1FC0
1C00
1C00
FFC0
FFC0
FFC0
1C00
1C00
1C00
1C00
1C00
1C00
1C00
1C00
1C00
1C00
ENDCHAR
STARTCHAR 0067
ENCODING 103
SWIDTH 585 0
DWIDTH 13 0
BBX 11 18 1 -5
BITMAP
1CE0
7FE0
7FE0
71E0
F1E0
E0E0
E0E0
E0E0
F1E0
F1E0
7FE0
7FE0
1EE0
00E0
41E0
7FC0
7FC0
3F00
ENDCHAR
STARTCHAR 0068
ENCODING 104
SWIDTH 585 0
DWIDTH 13 0
BBX 10 18 2 0
BITMAP
E000
E000
E000
E000
E000
EF00
FF80
FF80
F3C0
E3C0
E3C0
E3C0
E3C0
E3C0
E3C0
E3C0
E3C0
E3C0
ENDCHAR
STARTCHAR 0069
ENCODING 105
SWIDTH 585 0
DWIDTH 13 0
BBX 10 18 2 0
BITMAP
1C00
1C00
1C00
1C00
0000
FC00
FC00
FC00
1C00
1C00
1C00
1C00
1C00
1C00
1C00
1FC0
1FC0
0FC0
ENDCHAR
STARTCHAR 006A
ENCODING 106
SWIDTH 585 0
DWIDTH 13 0
BBX 8 23 2 -5
BITMAP
0F
0F
0F
0F
00
7F
7F
7F
0F
0F
0F
0F
0F
0F
0F
0F
0F
0F
0E
0E
FE
FE
FC
ENDCHAR
STARTCHAR 006B
ENCODING 107
SWIDTH 585 0
DWIDTH 13 0
BBX 11 18 2 0
BITMAP
E000
E000
E000
E000
E000
E3E0
E380
E700
EE00
FE00
FC00
FE00
FF00
E700
E380
E380
E1C0
E1E0
ENDCHAR
STARTCHAR 006C
ENCODING 108
SWIDTH 585 0
DWIDTH 13 0
BBX 11 18 1 0
BITMAP
FC00
FC00
FC00
1C00
1C00
1C00
1C00
1C00
1C00
1C00
1C00
1C00
1C00
1E00
1E00
0FE0
0FE0
07E0
ENDCHAR
STARTCHAR 006D
ENCODING 109
SWIDTH 585 0
DWIDTH 13 0
BBX 12 13 1 0
BITMAP
DDC0
FDE0
FFE0
EE60
EE70
EE70
EE70
EE70
EE70
EE70
EE70
EE70
EE70
ENDCHAR
STARTCHAR 006E
ENCODING 110
SWIDTH 585 0
DWIDTH 13 0
BBX 10 13 2 0
BITMAP
EF00
FF80
FF80
F3C0
E3C0
E3C0
E3C0
E3C0
E3C0
E3C0
E3C0
E3C0
E3C0
ENDCHAR
STARTCHAR 006F
ENCODING 111
SWIDTH 585 0
DWIDTH 13 0
BBX 11 13 1 0
BITMAP
1F00
3FC0
7FC0
71E0
F0E0
E0E0
E0E0
E0E0
F0E0
71E0
7FC0
3FC0
1F00
ENDCHAR
STARTCHAR 0070
ENCODING 112
SWIDTH 585 0
DWIDTH 13 0
BBX 10 18 2 -5
BITMAP
EF00
FF80
FFC0
F1C0
E1C0
E1C0
E1C0
E1C0
E1C0
F3C0
FFC0
FF80
EF00
E000
E000
E000
E000
E000
ENDCHAR
STARTCHAR 0071
ENCODING 113
SWIDTH 585 0
DWIDTH 13 0
BBX 11 18 1 -5
BITMAP
3CE0
7EE0
7FE0
F1E0
E1E0
E0E0
E0E0
E0E0
E1E0
F1E0
7FE0
7EE0
3CE0
00E0
00E0
00E0
00E0
00E0
ENDCHAR
STARTCHAR 0072
ENCODING 114
SWIDTH 585 0
DWIDTH 13 0
BBX 9 13 3 0
BITMAP
EF80
FF80
FF80
F080
E000
E000
E000
E000
E000
E000
E000
E000
E000
ENDCHAR
STARTCHAR 0073
ENCODING 115
SWIDTH 585 0
DWIDTH 13 0
BBX 10 13 2 0
BITMAP
3F00
7F80
FF80
E080
E000
FC00
7F00
0F80
03C0
83C0
FF80
FF80
7F00
ENDCHAR
STARTCHAR 0074
ENCODING 116
SWIDTH 585 0
DWIDTH 13 0
BBX 11 18 1 0
BITMAP
0200
1C00
1C00
1C00
1C00
FFE0
FFE0
FFE0
1C00
1C00
1C00
1C00
1C00
1C00
1E00
1FE0
0FE0
07E0
ENDCHAR
STARTCHAR 0075
ENCODING 117
SWIDTH 585 0
DWIDTH 13 0
BBX 10 13 2 0
BITMAP
E3C0
E3C0
E3C0
E3C0
E3C0
E3C0
E3C0
E3C0
E3C0
E3C0
FFC0
FFC0
79C0
ENDCHAR
STARTCHAR 0076
ENCODING 118
SWIDTH 585 0
DWIDTH 13 0
BBX 12 13 1 0
BITMAP
E0F0
E0E0
70E0
71C0
71C0
31C0
39C0
3B80
3B80
1F80
1F00
1F00
0F00
ENDCHAR
STARTCHAR 0077
ENCODING 119
SWIDTH 585 0
DWIDTH 13 0
BBX 13 13 0 0
BITMAP
E018
E018
E038
6738
6738
6730
77B0
75B0
7DF0
3DF0
3CF0
3CE0
38E0
ENDCHAR
STARTCHAR 0078
ENCODING 120
SWIDTH 585 0
DWIDTH 13 0
BBX 12 13 1 0
BITMAP
F1E0
71C0
3BC0
3B80
1F00
0F00
0E00
1F00
1F80
3B80
79C0
71E0
F0F0
ENDCHAR
STARTCHAR 0079
ENCODING 121
SWIDTH 585 0
DWIDTH 13 0
BBX 12 18 1 -5
BITMAP
E0F0
F0E0
70E0
71E0
79C0
39C0
39C0
3F80
1F80
1F80
0F00
0F00
0F00
0E00
0E00
FC00
FC00
F800
ENDCHAR
STARTCHAR 007A
ENCODING 122
SWIDTH 585 0
DWIDTH 13 0
BBX 10 13 2 0
BITMAP
FFC0
FFC0
FFC0
0780
0700
0F00
1E00
3C00
7800
F000
FFC0
FFC0
FFC0
ENDCHAR
STARTCHAR 007B
ENCODING 123
SWIDTH 585 0
DWIDTH 13 0
BBX 10 22 1 -4
BITMAP
07C0
0FC0
0FC0
0E00
0E00
0E00
0E00
0E00
0E00
1C00
FC00
F800
FC00
1E00
0E00
0E00
0E00
0E00
0E00
0FC0
0FC0
07C0
ENDCHAR
STARTCHAR 007C
ENCODING 124
SWIDTH 585 0
DWIDTH 13 0
BBX 3 23 5 -5
BITMAP
E0
E0
E0
E0
E0
E0
E0
E0
E0
E0
E0
E0
E0
E0
E0
E0
E0
E0
E0
E0
E0
E0
E0
ENDCHAR
STARTCHAR 007D
ENCODING 125
SWIDTH 585 0
DWIDTH 13 0
BBX 9 22 3 -4
BITMAP
F000
F800
F800
1C00
1C00
1C00
1C00
1C00
1C00
1C00
1F80
0F80
1F80
1C00
1C00
1C00
1C00
1C00
1C00
FC00
F800
F000
ENDCHAR
STARTCHAR 007E
ENCODING 126
SWIDTH 585 0
DWIDTH 13 0
BBX 12 6 1 4
BITMAP
3870
7C70
FE60
EFE0
C7E0
C3C0
ENDCHAR
STARTCHAR 00A0
ENCODING 160
SWIDTH 585 0
DWIDTH 13 0
BBX 0 0 0 0
BITMAP
ENDCHAR
STARTCHAR 00A1
ENCODING 161
SWIDTH 585 0
DWIDTH 13 0
BBX 4 18 5 -1
BITMAP
E0
F0
F0
E0
00
00
60
60
60
60
E0
E0
E0
E0
E0
E0
E0
E0
ENDCHAR
STARTCHAR 00A2
ENCODING 162
SWIDTH 585 0
DWIDTH 13 0
BBX 9 20 2 -4
BITMAP
0600
0600
0600
1F80
7F80
7F80
F680
E600
E600
E600
E600
E600
E600
F680
7F80
3F80
0F00
0600
0600
0600
ENDCHAR
STARTCHAR 00A3
ENCODING 163
SWIDTH 585 0
DWIDTH 13 0
BBX 11 17 1 0
BITMAP
07E0
0FE0
1FE0
1C20
1C00
1C00
1C00
1C00
7FC0
7FC0
7FC0
1C00
1C00
1C00
FFE0
FFE0
FFE0
ENDCHAR
STARTCHAR 00A4
ENCODING 164
SWIDTH 585 0
DWIDTH 13 0
BBX 10 10 2 2
BITMAP
4080
EFC0
7F80
3300
6180
6180
3380
7F80
FFC0
40C0
ENDCHAR
STARTCHAR 00A5
ENCODING 165
SWIDTH 585 0
DWIDTH 13 0
BBX 13 17 0 0
BITMAP
F038
7078
7870
38F0
3CE0
1DE0
7DF8
7FF8
7FF8
7FF8
7FF8
7FF8
0700
0700
0700
0700
0700
ENDCHAR
STARTCHAR 00A6
ENCODING 166
SWIDTH 585 0
DWIDTH 13 0
BBX 3 20 5 -4
BITMAP
E0
E0
E0
E0
E0
E0
E0
E0
E0
00
00
E0
E0
E0
E0
E0
E0
E0
E0
E0
ENDCHAR
STARTCHAR 00A7
ENCODING 167
SWIDTH 585 0
DWIDTH 13 0
BBX 10 20 2 -3
BITMAP
3F00
7F00
7F00
6000
7000
7800
3E00
7F00
E780
E380
E1C0
7B80
3F00
1F00
0780
0380
4380
7F80
7F00
1C00
ENDCHAR
STARTCHAR 00A8
ENCODING 168
SWIDTH 585 0
DWIDTH 13 0
BBX 7 3 3 15
BITMAP
E6
E6
E6
ENDCHAR
STARTCHAR 00A9
ENCODING 169
SWIDTH 585 0
DWIDTH 13 0
BBX 13 14 0 1
BITMAP
0F80
1FE0
3070
6790
CF98
D848
9808
9808
D808
CF98
6790
3070
1FE0
0F80
ENDCHAR
STARTCHAR 00AA
ENCODING 170
SWIDTH 585 0
DWIDTH 13 0
BBX 8 12 3 5
BITMAP
10
FE
86
1F
FF
C3
C7
FF
7B
00
FF
FF
ENDCHAR
STARTCHAR 00AB
ENCODING 171
SWIDTH 585 0
DWIDTH 13 0
BBX 10 9 1 2
BITMAP
08C0
39C0
7380
E700
C600
E700
7380
39C0
08C0
ENDCHAR
STARTCHAR 00AC
ENCODING 172
SWIDTH 585 0
DWIDTH 13 0
BBX 11 6 1 5
BITMAP
FFE0
FFE0
FFE0
0060
0060
0060
ENDCHAR
STARTCHAR 00AD
ENCODING 173
SWIDTH 585 0
DWIDTH 13 0
BBX 7 3 3 5
BITMAP
FE
FE
FE
ENDCHAR
STARTCHAR 00AE
ENCODING 174
SWIDTH 585 0
DWIDTH 13 0
BBX 13 14 0 1
BITMAP
0F80
1FE0
3070
6F90
CD98
CC88
8D88
8F08
CD88
CC98
6050
3070
1FE0
0F80
ENDCHAR
STARTCHAR 00AF
ENCODING 175
SWIDTH 585 0
DWIDTH 13 0
BBX 7 3 3 16
BITMAP
FE
FE
FE
ENDCHAR
STARTCHAR 00B0
ENCODING 176
SWIDTH 585 0
DWIDTH 13 0
BBX 7 8 3 10
BITMAP
38
7C
C6
C6
C6
C6
7E
38
ENDCHAR
STARTCHAR 00B1
ENCODING 177
SWIDTH 585 0
DWIDTH 13 0
BBX 11 15 1 0
BITMAP
0E00
0E00
0E00
0E00
FFE0
FFE0
FFE0
0E00
0E00
0E00
0E00
0000
FFE0
FFE0
FFE0
ENDCHAR
STARTCHAR 00B2
ENCODING 178
SWIDTH 585 0
DWIDTH 13 0
BBX 7 9 3 12
BITMAP
FC
FE
06
06
0C
38
70
FE
FE
ENDCHAR
STARTCHAR 00B3
ENCODING 179
SWIDTH 585 0
DWIDTH 13 0
BBX 7 9 3 12
BITMAP
FC
FE
06
3C
3E
06
06
FE
FC
ENDCHAR
STARTCHAR 00B4
ENCODING 180
SWIDTH 585 0
DWIDTH 13 0
BBX 6 5 5 14
BITMAP
1C
38
30
70
E0
ENDCHAR
STARTCHAR 00B5
ENCODING 181
SWIDTH 585 0
DWIDTH 13 0
BBX 11 18 2 -5
BITMAP
E380
E380
E380
E380
E380
E380
E380
E380
E380
E380
FFE0
FFE0
FCE0
E000
E000
E000
E000
E000
ENDCHAR
STARTCHAR 00B6
ENCODING 182
SWIDTH 585 0
DWIDTH 13 0
BBX 11 19 1 -2
BITMAP
3FE0
7FE0
FCE0
FCE0
FCE0
FCE0
FCE0
FCE0
7CE0
1CE0
0CE0
0CE0
0CE0
0CE0
0CE0
0CE0
0CE0
0CE0
0CE0
ENDCHAR
STARTCHAR 00B7
ENCODING 183
SWIDTH 585 0
DWIDTH 13 0
BBX 3 4 5 7
BITMAP
E0
E0
E0
E0
ENDCHAR
STARTCHAR 00B8
ENCODING 184
SWIDTH 585 0
DWIDTH 13 0
BBX 5 5 4 -4
BITMAP
30
10
18
F8
F0
ENDCHAR
STARTCHAR 00B9
ENCODING 185
SWIDTH 585 0
DWIDTH 13 0
BBX 7 9 3 12
BITMAP
F8
F8
18
18
18
18
18
FE
FE
ENDCHAR
STARTCHAR 00BA
ENCODING 186
SWIDTH 585 0
DWIDTH 13 0
BBX 8 12 3 5
BITMAP
10
7E
E6
C7
C3
C3
E7
7E
3C
00
FF
FF
ENDCHAR
STARTCHAR 00BB
ENCODING 187
SWIDTH 585 0
DWIDTH 13 0
BBX 10 9 3 2
BITMAP
8400
C600
E700
3380
18C0
7380
E700
C600
8400
ENDCHAR
STARTCHAR 00BC
ENCODING 188
SWIDTH 585 0
DWIDTH 13 0
BBX 11 22 1 -3
BITMAP
F000
F000
3000
3000
3000
3000
3000
3000
FE00
FE60
07E0
7E00
E000
01C0
03C0
02C0
06C0
0CC0
0FE0
0FE0
00C0
00C0
ENDCHAR
STARTCHAR 00BD
ENCODING 189
SWIDTH 585 0
DWIDTH 13 0
BBX 11 22 1 -3
BITMAP
F000
F000
3000
3000
3000
3000
3000
3000
FE00
FE60
07E0
7E00
E7C0
0FE0
0860
0060
00E0
01C0
0380
0600
0FE0
0FE0
ENDCHAR
STARTCHAR 00BE
ENCODING 190
SWIDTH 585 0
DWIDTH 13 0
BBX 11 22 1 -3
BITMAP
F800
FC00
0600
0E00
3C00
3C00
0600
0600
FE00
FC20
03E0
3F00
F000
81C0
03C0
02C0
06C0
0CC0
0FE0
0FE0
00C0
00C0
ENDCHAR
STARTCHAR 00BF
ENCODING 191
SWIDTH 585 0
DWIDTH 13 0
BBX 9 18 2 0
BITMAP
0C00
1E00
0E00
0C00
0000
0E00
0E00
0E00
1C00
1C00
3800
7000
E000
E000
E080
FF80
7F80
3E00
ENDCHAR
STARTCHAR 00C0
ENCODING 192
SWIDTH 585 0
DWIDTH 13 0
BBX 13 21 0 0
BITMAP
1E00
0600
0300
0000
0780
0F80
0F80
0FC0
0DC0
1DC0
1DC0
1CE0
1CE0
38E0
3FE0
3FF0
3FF0
7070
7070
7078
F038
ENDCHAR
STARTCHAR 00C1
ENCODING 193
SWIDTH 585 0
DWIDTH 13 0
BBX 13 21 0 0
BITMAP
01C0
0380
0700
0000
0780
0F80
0F80
0FC0
0DC0
1DC0
1DC0
1CE0
1CE0
38E0
3FE0
3FF0
3FF0
7070
7070
7078
F038
ENDCHAR
STARTCHAR 00C2
ENCODING 194
SWIDTH 585 0
DWIDTH 13 0
BBX 13 21 0 0
BITMAP
0780
0DC0
18E0
0000
0780
0F80
0F80
0FC0
0DC0
1DC0
1DC0
1CE0
1CE0
38E0
3FE0
3FF0
3FF0
7070
7070
7078
F038
ENDCHAR
STARTCHAR 00C3
ENCODING 195
SWIDTH 585 0
DWIDTH 13 0
BBX 13 21 0 0
BITMAP
0E40
1FC0
11C0
0000
0780
0F80
0F80
0FC0
0DC0
1DC0
1DC0
1CE0
1CE0
38E0
3FE0
3FF0
3FF0
7070
7070
7078
F038
ENDCHAR
STARTCHAR 00C4
ENCODING 196
SWIDTH 585 0
DWIDTH 13 0
BBX 13 21 0 0
BITMAP
1CC0
1CC0
1CC0
0000
0780
0F80
0F80
0FC0
0DC0
1DC0
1DC0
1CE0
1CE0
38E0
3FE0
3FF0
3FF0
7070
7070
7078
F038
ENDCHAR
STARTCHAR 00C5
ENCODING 197
SWIDTH 585 0
DWIDTH 13 0
BBX 13 21 0 0
BITMAP
0700
0F80
08C0
08C0
0F80
0F80
0F80
0FC0
0DC0
1DC0
1DC0
1CE0
1CE0
38E0
3FE0
3FF0
3FF0
7070
7070
7078
F038
ENDCHAR
STARTCHAR 00C6
ENCODING 198
SWIDTH 585 0
DWIDTH 13 0
BBX 13 17 0 0
BITMAP
0FF8
0FF8
1FF8
1D80
1980
1980
3980
39F0
39F0
31F0
7F80
7F80
7F80
7180
61F8
E1F8
E1F8
ENDCHAR
STARTCHAR 00C7
ENCODING 199
SWIDTH 585 0
DWIDTH 13 0
BBX 10 22 2 -5
BITMAP
0F80
3FC0
7FC0
7040
F000
E000
E000
E000
E000
E000
E000
E000
E000
F040
79C0
7FC0
3FC0
0F00
0300
0300
1F00
1E00
ENDCHAR
STARTCHAR 00C8
ENCODING 200
SWIDTH 585 0
DWIDTH 13 0
BBX 10 21 2 0
BITMAP
7800
1C00
0E00
0000
FFC0
FFC0
FFC0
E000
E000
E000
E000
FF80
FF80
FF80
E000
E000
E000
E000
FFC0
FFC0
FFC0
ENDCHAR
STARTCHAR 00C9
ENCODING 201
SWIDTH 585 0
DWIDTH 13 0
BBX 10 21 2 0
BITMAP
0780
0E00
1C00
0000
FFC0
FFC0
FFC0
E000
E000
E000
E000
FF80
FF80
FF80
E000
E000
E000
E000
FFC0
FFC0
FFC0
ENDCHAR
STARTCHAR 00CA
ENCODING 202
SWIDTH 585 0
DWIDTH 13 0
BBX 10 21 2 0
BITMAP
1E00
3F00
6180
0000
FFC0
FFC0
FFC0
E000
E000
E000
E000
FF80
FF80
FF80
E000
E000
E000
E000
FFC0
FFC0
FFC0
ENDCHAR
STARTCHAR 00CB
ENCODING 203
SWIDTH 585 0
DWIDTH 13 0
BBX 10 21 2 0
BITMAP
3300
3300
3300
0000
FFC0
FFC0
FFC0
E000
E000
E000
E000
FF80
FF80
FF80
E000
E000
E000
E000
FFC0
FFC0
FFC0
ENDCHAR
STARTCHAR 00CC
ENCODING 204
SWIDTH 585 0
DWIDTH 13 0
BBX 10 21 2 0
BITMAP
7800
1800
0C00
0000
FFC0
FFC0
FFC0
1C00
1C00
1C00
1C00
1C00
1C00
1C00
1C00
1C00
1C00
1C00
FFC0
FFC0
FFC0
ENDCHAR
STARTCHAR 00CD
ENCODING 205
SWIDTH 585 0
DWIDTH 13 0
BBX 10 21 2 0
BITMAP
0700
0E00
1C00
0000
FFC0
FFC0
FFC0
1C00
1C00
1C00
1C00
1C00
1C00
1C00
1C00
1C00
1C00
1C00
FFC0
FFC0
FFC0
ENDCHAR
STARTCHAR 00CE
ENCODING 206
SWIDTH 585 0
DWIDTH 13 0
BBX 10 21 2 0
BITMAP
1E00
3700
6380
0000
FFC0
FFC0
FFC0
1C00
1C00
1C00
1C00
1C00
1C00
1C00
1C00
1C00
1C00
1C00
FFC0
FFC0
FFC0
ENDCHAR
STARTCHAR 00CF
ENCODING 207
SWIDTH 585 0
DWIDTH 13 0
BBX 10 21 2 0
BITMAP
7300
7300
7300
0000
FFC0
FFC0
FFC0
1C00
1C00
1C00
1C00
1C00
1C00
1C00
1C00
1C00
1C00
1C00
FFC0
FFC0
FFC0
ENDCHAR
STARTCHAR 00D0
ENCODING 208
SWIDTH 585 0
DWIDTH 13 0
BBX 12 17 0 0
BITMAP
7F00
7FC0
7FE0
78F0
78F0
7870
7870
FE70
FE70
FE70
7870
7870
78F0
78F0
7FE0
7FC0
7F00
ENDCHAR
STARTCHAR 00D1
ENCODING 209
SWIDTH 585 0
DWIDTH 13 0
BBX 11 21 1 0
BITMAP
1C80
3F80
2380
0000
F0E0
F0E0
F8E0
F8E0
F8E0
FCE0
ECE0
ECE0
E6E0
E6E0
E7E0
E3E0
E3E0
E3E0
E1E0
E1E0
E1E0
ENDCHAR
STARTCHAR 00D2
ENCODING 210
SWIDTH 585 0
DWIDTH 13 0
BBX 11 22 1 0
BITMAP
3800
1C00
0E00
0600
0000
1F00
3F80
7FC0
71E0
F0E0
F0E0
E0E0
E0E0
E0E0
E0E0
E0E0
F0E0
F0E0
71E0
7FC0
3F80
1F00
ENDCHAR
STARTCHAR 00D3
ENCODING 211
SWIDTH 585 0
DWIDTH 13 0
BBX 11 22 1 0
BITMAP
0380
0300
0600
0C00
0000
1F00
3F80
7FC0
71E0
F0E0
F0E0
E0E0
E0E0
E0E0
E0E0
E0E0
F0E0
F0E0
71E0
7FC0
3F80
1F00
ENDCHAR
STARTCHAR 00D4
ENCODING 212
SWIDTH 585 0
DWIDTH 13 0
BBX 11 22 1 0
BITMAP
0E00
1F00
3980
30C0
0000
1F00
3F80
7FC0
71E0
F0E0
F0E0
E0E0
E0E0
E0E0
E0E0
E0E0
F0E0
F0E0
71E0
7FC0
3F80
1F00
ENDCHAR
STARTCHAR 00D5
ENCODING 213
SWIDTH 585 0
DWIDTH 13 0
BBX 11 21 1 0
BITMAP
1C80
3F80
2300
0000
1F00
3F80
7FC0
71E0
F0E0
F0E0
E0E0
E0E0
E0E0
E0E0
E0E0
F0E0
F0E0
71E0
7FC0
3F80
1F00
ENDCHAR
STARTCHAR 00D6
ENCODING 214
SWIDTH 585 0
DWIDTH 13 0
BBX 11 21 1 0
BITMAP
3980
3980
3980
0000
1F00
3F80
7FC0
71E0
F0E0
F0E0
E0E0
E0E0
E0E0
E0E0
E0E0
F0E0
F0E0
71E0
7FC0
3F80
1F00
ENDCHAR
STARTCHAR 00D7
ENCODING 215
SWIDTH 585 0
DWIDTH 13 0
BBX 11 10 1 2
BITMAP
60C0
F1E0
7BC0
3F80
1F00
1F00
3F80
7BC0
F1E0
60C0
ENDCHAR
STARTCHAR 00D8
ENCODING 216
SWIDTH 585 0
DWIDTH 13 0
BBX 13 17 0 0
BITMAP
0F98
1FF8
3FF0
38F0
78F0
79F0
71F0
73F0
7770
7670
7E70
7C70
7870
38F0
7FE0
FFC0
CF80
ENDCHAR
STARTCHAR 00D9
ENCODING 217
SWIDTH 585 0
DWIDTH 13 0
BBX 11 22 1 0
BITMAP
3800
1C00
0E00
0600
0000
E0E0
E0E0
E0E0
E0E0
E0E0
E0E0
E0E0
E0E0
E0E0
E0E0
E0E0
E0E0
F0E0
71E0
7FE0
3FC0
1F00
ENDCHAR
STARTCHAR 00DA
ENCODING 218
SWIDTH 585 0
DWIDTH 13 0
BBX 11 22 1 0
BITMAP
0380
0300
0600
0C00
0000
E0E0
E0E0
E0E0
E0E0
E0E0
E0E0
E0E0
E0E0
E0E0
E0E0
E0E0
E0E0
F0E0
71E0
7FE0
3FC0
1F00
ENDCHAR
STARTCHAR 00DB
ENCODING 219
SWIDTH 585 0
DWIDTH 13 0
BBX 11 22 1 0
BITMAP
0E00
1F00
3980
30C0
0000
E0E0
E0E0
E0E0
E0E0
E0E0
E0E0
E0E0
E0E0
E0E0
E0E0
E0E0
E0E0
F0E0
71E0
7FE0
3FC0
1F00
ENDCHAR
STARTCHAR 00DC
ENCODING 220
SWIDTH 585 0
DWIDTH 13 0
BBX 11 21 1 0
BITMAP
3980
3980
3980
0000
E0E0
E0E0
E0E0
E0E0
E0E0
E0E0
E0E0
E0E0
E0E0
E0E0
E0E0
E0E0
F0E0
71E0
7FE0
3FC0
1F00
ENDCHAR
STARTCHAR 00DD
ENCODING 221
SWIDTH 585 0
DWIDTH 13 0
BBX 13 21 0 0
BITMAP
01C0
0380
0700
0000
F038
7078
7870
38F0
3CE0
1DE0
1FC0
0FC0
0F80
0780
0700
0700
0700
0700
0700
0700
0700
ENDCHAR
STARTCHAR 00DE
ENCODING 222
SWIDTH 585 0
DWIDTH 13 0
BBX 10 17 2 0
BITMAP
E000
E000
E000
FF00
FF80
FFC0
E1C0
E1C0
E1C0
E1C0
FFC0
FF80
FF00
E000
E000
E000
E000
ENDCHAR
STARTCHAR 00DF
ENCODING 223
SWIDTH 585 0
DWIDTH 13 0
BBX 12 18 1 0
BITMAP
1F00
7F80
7FC0
70C0
F1C0
F3C0
F700
F600
F700
F780
F3C0
F1E0
F0F0
F070
F070
FFE0
FFE0
FFC0
ENDCHAR
STARTCHAR 00E0
ENCODING 224
SWIDTH 585 0
DWIDTH 13 0
BBX 12 20 1 0
BITMAP
7000
3800
1C00
0C00
0600
0000
0000
3F80
7FC0
7FE0
40E0
0FE0
7FE0
FFE0
F0E0
E0E0
E1E0
F3E0
7FE0
3EF0
ENDCHAR
STARTCHAR 00E1
ENCODING 225
SWIDTH 585 0
DWIDTH 13 0
BBX 12 20 1 0
BITMAP
01C0
0380
0300
0700
0E00
0000
0000
3F80
7FC0
7FE0
40E0
00E0
3FE0
7FE0
F0E0
E0E0
F1E0
FFE0
7FE0
3CF0
ENDCHAR
STARTCHAR 00E2
ENCODING 226
SWIDTH 585 0
DWIDTH 13 0
BBX 12 20 1 0
BITMAP
0E00
0F00
1F00
1980
31C0
0000
0000
3F80
7FC0
7FE0
40E0
0FE0
7FE0
FFE0
F0E0
E0E0
F1E0
FFE0
7FE0
3CF0
ENDCHAR
STARTCHAR 00E3
ENCODING 227
SWIDTH 585 0
DWIDTH 13 0
BBX 12 18 1 0
BITMAP
1C80
3F80
2380
0000
0000
3F80
7FC0
7FE0
40E0
0FE0
7FE0
FFE0
F0E0
E0E0
F1E0
FFE0
7FE0
3CF0
ENDCHAR
STARTCHAR 00E4
ENCODING 228
SWIDTH 585 0
DWIDTH 13 0
BBX 12 18 1 0
BITMAP
3980
3980
3980
0000
0000
3F80
7FC0
7FE0
40E0
0FE0
7FE0
FFE0
F0E0
E0E0
F1E0
FFE0
7FE0
3CF0
ENDCHAR
STARTCHAR 00E5
ENCODING 229
SWIDTH 585 0
DWIDTH 13 0
BBX 12 21 1 0
BITMAP
0E00
1F00
1980
1180
1980
1F00
0E00
0000
3F80
7FC0
7FE0
40E0
0FE0
7FE0
FFE0
F0E0
E0E0
F1E0
FFE0
7FE0
3CF0
ENDCHAR
STARTCHAR 00E6
ENCODING 230
SWIDTH 585 0
DWIDTH 13 0
BBX 13 13 0 0
BITMAP
3CE0
7FF0
7FF8
4738
0738
3FF8
7FF8
FFF8
E700
E708
FFF8
7DF8
3CF0
ENDCHAR
STARTCHAR 00E7
ENCODING 231
SWIDTH 585 0
DWIDTH 13 0
BBX 10 18 2 -5
BITMAP
1F00
3FC0
7FC0
F040
E000
E000
E000
E000
E000
F000
78C0
7FC0
3FC0
0F00
0200
0300
1F00
1E00
ENDCHAR
STARTCHAR 00E8
ENCODING 232
SWIDTH 585 0
DWIDTH 13 0
BBX 11 20 1 0
BITMAP
3800
3800
1C00
0E00
0700
0000
0000
1F00
3FC0
7FE0
70E0
E0E0
FFE0
FFE0
E000
E000
F020
7FE0
3FE0
1FC0
ENDCHAR
STARTCHAR 00E9
ENCODING 233
SWIDTH 585 0
DWIDTH 13 0
BBX 11 20 1 0
BITMAP
01E0
01C0
0380
0700
0E00
0000
0000
1F00
3FC0
7FC0
F0E0
E0E0
FFE0
FFE0
E000
E000
F020
7FE0
3FE0
1FC0
ENDCHAR
STARTCHAR 00EA
ENCODING 234
SWIDTH 585 0
DWIDTH 13 0
BBX 11 20 1 0
BITMAP
0600
0F00
1F80
1980
30C0
0000
0000
1F00
3FC0
7FC0
F0E0
E0E0
FFE0
FFE0
FFE0
E000
F020
7FE0
3FE0
1FC0
ENDCHAR
STARTCHAR 00EB
ENCODING 235
SWIDTH 585 0
DWIDTH 13 0
BBX 11 18 1 0
BITMAP
1980
1980
1980
0000
0000
1F00
3FC0
7FC0
F0E0
E0E0
FFE0
FFE0
FFE0
E000
F020
7FE0
3FE0
1FC0
ENDCHAR
STARTCHAR 00EC
ENCODING 236
SWIDTH 585 0
DWIDTH 13 0
BBX 10 19 2 0
BITMAP
E000
7000
3800
1C00
0000
0000
FC00
FC00
FC00
1C00
1C00
1C00
1C00
1C00
1C00
1C00
1FC0
1FC0
07C0
ENDCHAR
STARTCHAR 00ED
ENCODING 237
SWIDTH 585 0
DWIDTH 13 0
BBX 10 19 2 0
BITMAP
0780
0E00
0C00
3800
0000
0000
FC00
FC00
FC00
3C00
3C00
3C00
3C00
3C00
3C00
1C00
1FC0
1FC0
0FC0
ENDCHAR
STARTCHAR 00EE
ENCODING 238
SWIDTH 585 0
DWIDTH 13 0
BBX 10 19 2 0
BITMAP
3C00
3C00
6600
C300
0000
0000
FC00
FC00
FC00
1C00
1C00
1C00
1C00
1C00
1C00
1C00
1FC0
1FC0
0FC0
ENDCHAR
STARTCHAR 00EF
ENCODING 239
SWIDTH 585 0
DWIDTH 13 0
BBX 10 18 2 0
BITMAP
E600
E600
6600
0000
0000
FC00
FC00
FC00
1C00
1C00
1C00
1C00
1C00
1C00
1C00
1FC0
1FC0
0FC0
ENDCHAR
STARTCHAR 00F0
ENCODING 240
SWIDTH 585 0
DWIDTH 13 0
BBX 11 18 1 0
BITMAP
3CC0
1FC0
0F00
7F00
6780
0380
1FC0
3FC0
7FE0
F0E0
E0E0
E0E0
E0E0
E0E0
71E0
7FC0
3FC0
1F00
ENDCHAR
STARTCHAR 00F1
ENCODING 241
SWIDTH 585 0
DWIDTH 13 0
BBX 10 18 2 0
BITMAP
3900
7F00
4700
0000
0000
EF00
FF80
FF80
F3C0
E3C0
E3C0
E3C0
E3C0
E3C0
E3C0
E3C0
E3C0
E3C0
ENDCHAR
STARTCHAR 00F2
ENCODING 242
SWIDTH 585 0
DWIDTH 13 0
BBX 11 18 1 0
BITMAP
7800
1C00
0E00
0000
0000
1F00
3FC0
7FC0
71E0
F0E0
E0E0
E0E0
E0E0
F0E0
71E0
7FC0
3FC0
1F00
ENDCHAR
STARTCHAR 00F3
ENCODING 243
SWIDTH 585 0
DWIDTH 13 0
BBX 11 18 1 0
BITMAP
01C0
0300
0600
0800
0000
1F00
3FC0
7FC0
71E0
F0E0
E0E0
E0E0
E0E0
F0E0
71E0
7FC0
3FC0
1F00
ENDCHAR
STARTCHAR 00F4
ENCODING 244
SWIDTH 585 0
DWIDTH 13 0
BBX 11 18 1 0
BITMAP
0E00
1F00
3980
0040
0000
1F00
3FC0
7FC0
71E0
F0E0
E0E0
E0E0
E0E0
F0E0
71E0
7FC0
3FC0
1F00
ENDCHAR
STARTCHAR 00F5
ENCODING 245
SWIDTH 585 0
DWIDTH 13 0
BBX 11 18 1 0
BITMAP
1C80
3F80
2300
0000
0000
1F00
3FC0
7FC0
71E0
F0E0
E0E0
E0E0
E0E0
F0E0
71E0
7FC0
3FC0
1F00
ENDCHAR
STARTCHAR 00F6
ENCODING 246
SWIDTH 585 0
DWIDTH 13 0
BBX 11 18 1 0
BITMAP
3980
3980
3980
0000
0000
1F00
3FC0
7FC0
71E0
F0E0
E0E0
E0E0
E0E0
F0E0
71E0
7FC0
3FC0
1F00
ENDCHAR
STARTCHAR 00F7
ENCODING 247
SWIDTH 585 0
DWIDTH 13 0
BBX 12 13 1 1
BITMAP
0E00
0E00
0E00
0E00
0000
FFF0
FFF0
FFF0
0000
0E00
0E00
0E00
0E00
ENDCHAR
STARTCHAR 00F8
ENCODING 248
SWIDTH 585 0
DWIDTH 13 0
BBX 13 15 0 -1
BITMAP
0010
0FB8
1FF0
3FE0
38F0
79F0
73F0
7770
7E70
7C70
38F0
3FE0
7FE0
EF80
4000
ENDCHAR
STARTCHAR 00F9
ENCODING 249
SWIDTH 585 0
DWIDTH 13 0
BBX 10 19 2 0
BITMAP
F000
7000
3800
1C00
0C00
0000
E3C0
E3C0
E3C0
E3C0
E3C0
E3C0
E3C0
E3C0
E3C0
E3C0
FFC0
FFC0
79C0
ENDCHAR
STARTCHAR 00FA
ENCODING 250
SWIDTH 585 0
DWIDTH 13 0
BBX 10 19 2 0
BITMAP
0380
0700
0E00
0C00
1800
0000
E3C0
E3C0
E3C0
E3C0
E3C0
E3C0
E3C0
E3C0
E3C0
E3C0
FFC0
FFC0
79C0
ENDCHAR
STARTCHAR 00FB
ENCODING 251
SWIDTH 585 0
DWIDTH 13 0
BBX 10 19 2 0
BITMAP
1C00
3E00
3700
6300
6180
0000
E3C0
E3C0
E3C0
E3C0
E3C0
E3C0
E3C0
E3C0
E3C0
E3C0
FFC0
FFC0
79C0
ENDCHAR
STARTCHAR 00FC
ENCODING 252
SWIDTH 585 0
DWIDTH 13 0
BBX 10 18 2 0
BITMAP
7300
7300
7300
0000
0000
E3C0
E3C0
E3C0
E3C0
E3C0
E3C0
E3C0
E3C0
E3C0
E3C0
FFC0
FFC0
79C0
ENDCHAR
STARTCHAR 00FD
ENCODING 253
SWIDTH 585 0
DWIDTH 13 0
BBX 12 24 1 -5
BITMAP
01C0
0180
0380
0700
0E00
0000
E0F0
F0E0
70E0
71E0
79C0
39C0
39C0
3F80
1F80
1F80
0F00
0F00
0F00
0E00
0E00
3C00
FC00
F800
ENDCHAR
STARTCHAR 00FE
ENCODING 254
SWIDTH 585 0
DWIDTH 13 0
BBX 10 23 2 -5
BITMAP
E000
E000
E000
E000
E000
EF00
FF80
FFC0
F1C0
E1C0
E1C0
E1C0
E1C0
E1C0
F1C0
FFC0
FF80
EF00
E000
E000
E000
E000
E000
ENDCHAR
STARTCHAR 00FF
ENCODING 255
SWIDTH 585 0
DWIDTH 13 0
BBX 12 23 1 -5
BITMAP
3980
3980
3980
0000
0000
E0F0
F0E0
70E0
71E0
79C0
39C0
39C0
3F80
1F80
1F80
0F00
0F00
0F00
0E00
0E00
3C00
FC00
F800
ENDCHAR
STARTCHAR 0100
ENCODING 256
SWIDTH 585 0
DWIDTH 13 0
BBX 13 21 0 0
BITMAP
1FC0
1FC0
1FC0
0000
0780
0F80
0F80
0FC0
0DC0
1DC0
1DC0
1CE0
1CE0
38E0
3FE0
3FF0
3FF0
7070
7070
7078
F038
ENDCHAR
STARTCHAR 0101
ENCODING 257
SWIDTH 585 0
DWIDTH 13 0
BBX 12 18 1 0
BITMAP
3F80
3F80
3F80
0000
0000
3F80
7FC0
7FE0
40E0
0FE0
7FE0
FFE0
F0E0
E0E0
F1E0
FFE0
7FE0
3CF0
ENDCHAR
STARTCHAR 0102
ENCODING 258
SWIDTH 585 0
DWIDTH 13 0
BBX 13 21 0 0
BITMAP
18C0
0FC0
0780
0000
0780
0F80
0F80
0FC0
0DC0
1DC0
1DC0
1CE0
1CE0
38E0
3FE0
3FF0
3FF0
7070
7070
7078
F038
ENDCHAR
STARTCHAR 0103
ENCODING 259
SWIDTH 585 0
DWIDTH 13 0
BBX 12 18 1 0
BITMAP
3180
3F80
0F00
0000
0000
3F80
7FC0
7FE0
40E0
00E0
3FE0
7FE0
F0E0
E0E0
E1E0
F3E0
7FE0
3EF0
ENDCHAR
STARTCHAR 0104
ENCODING 260
SWIDTH 585 0
DWIDTH 13 0
BBX 13 22 0 -5
BITMAP
0780
0F80
0F80
0FC0
0DC0
1DC0
1DC0
1CE0
1CE0
38E0
3FE0
3FF0
3FF0
7070
7070
7078
F038
0020
0060
0060
0078
0078
ENDCHAR
STARTCHAR 0105
ENCODING 261
SWIDTH 585 0
DWIDTH 13 0
BBX 12 18 1 -5
BITMAP
3F80
7FC0
7FE0
40E0
00E0
3FE0
7FE0
FFE0
F0E0
F1E0
FFE0
7FE0
3CE0
00D0
0180
0180
01F0
00F0
ENDCHAR
STARTCHAR 0106
ENCODING 262
SWIDTH 585 0
DWIDTH 13 0
BBX 10 22 2 0
BITMAP
01C0
0380
0700
0E00
0000
1F80
3FC0
7FC0
F040
F000
E000
E000
E000
E000
E000
E000
E000
F000
F040
7FC0
3FC0
1F80
ENDCHAR
STARTCHAR 0107
ENCODING 263
SWIDTH 585 0
DWIDTH 13 0
BBX 10 20 2 0
BITMAP
01C0
0180
0380
0700
0E00
0000
0000
1F00
3FC0
7FC0
F040
E000
E000
E000
E000
E000
F040
7FC0
3FC0
1F80
ENDCHAR
STARTCHAR 0108
ENCODING 264
SWIDTH 585 0
DWIDTH 13 0
BBX 10 22 2 0
BITMAP
0E00
1F00
3300
6180
0000
0F80
3FC0
7FC0
F040
F000
E000
E000
E000
E000
E000
E000
E000
F000
F040
7FC0
3FC0
1F80
ENDCHAR
STARTCHAR 0109
ENCODING 265
SWIDTH 585 0
DWIDTH 13 0
BBX 9 18 2 0
BITMAP
1E00
1F00
3380
4000
0000
1F00
7F80
7F80
F080
E000
E000
E000
E000
E000
F080
7F80
7F80
1F00
ENDCHAR
STARTCHAR 010A
ENCODING 266
SWIDTH 585 0
DWIDTH 13 0
BBX 10 21 2 0
BITMAP
0E00
0E00
0E00
0000
1F80
3FC0
7FC0
F040
F000
E000
E000
E000
E000
E000
E000
E000
F000
F040
7FC0
3FC0
1F80
ENDCHAR
STARTCHAR 010B
ENCODING 267
SWIDTH 585 0
DWIDTH 13 0
BBX 10 18 2 0
BITMAP
0E00
0E00
0E00
0000
0000
1F80
3FC0
7FC0
F040
E000
E000
E000
E000
E000
F040
7FC0
3FC0
1F80
ENDCHAR
STARTCHAR 010C
ENCODING 268
SWIDTH 585 0
DWIDTH 13 0
BBX 10 22 2 0
BITMAP
30C0
1980
0F80
0F00
0000
1F80
3FC0
7FC0
F8C0
F000
E000
E000
E000
E000
E000
E000
E000
F000
F8C0
7FC0
3FC0
1F80
ENDCHAR
STARTCHAR 010D
ENCODING 269
SWIDTH 585 0
DWIDTH 13 0
BBX 10 20 2 0
BITMAP
30C0
3180
1B80
0F00
0E00
0000
0000
1F00
3FC0
7FC0
F040
E000
E000
E000
E000
E000
F040
7FC0
3FC0
1F80
ENDCHAR
STARTCHAR 010E
ENCODING 270
SWIDTH 585 0
DWIDTH 13 0
BBX 11 21 1 0
BITMAP
71C0
1B00
0F00
0000
FE00
FF80
FFC0
F1E0
F1E0
F0E0
F0E0
F0E0
F0E0
F0E0
F0E0
F0E0
F1E0
F1E0
FFC0
FF80
FE00
ENDCHAR
STARTCHAR 010F
ENCODING 271
SWIDTH 585 0
DWIDTH 13 0
BBX 15 18 1 0
BITMAP
00EE
00FC
00FC
00F8
00E0
3CE0
7EE0
7FE0
F1E0
E1E0
E0E0
E0E0
E0E0
E1E0
F1E0
7FE0
7EE0
3CE0
ENDCHAR
STARTCHAR 0110
ENCODING 272
SWIDTH 585 0
DWIDTH 13 0
BBX 12 17 0 0
BITMAP
7F00
7FC0
7FE0
78F0
78F0
7870
7870
FE70
FE70
FE70
7870
7870
78F0
78F0
7FE0
7FC0
7F00
ENDCHAR
STARTCHAR 0111
ENCODING 273
SWIDTH 585 0
DWIDTH 13 0
BBX 12 18 1 0
BITMAP
00E0
0FF0
0FF0
0FF0
00E0
3CE0
7EE0
7FE0
F1E0
E1E0
E0E0
E0E0
E0E0
E1E0
F1E0
7FE0
7EE0
3CE0
ENDCHAR
STARTCHAR 0112
ENCODING 274
SWIDTH 585 0
DWIDTH 13 0
BBX 10 21 2 0
BITMAP
3F00
3F00
3F00
0000
FFC0
FFC0
FFC0
E000
E000
E000
E000
FF80
FF80
FF80
E000
E000
E000
E000
FFC0
FFC0
FFC0
ENDCHAR
STARTCHAR 0113
ENCODING 275
SWIDTH 585 0
DWIDTH 13 0
BBX 11 18 1 0
BITMAP
1F80
1F80
1F80
0000
0000
1F00
3FC0
7FC0
F0E0
E0E0
FFE0
FFE0
FFE0
E000
F020
7FE0
3FE0
1FC0
ENDCHAR
STARTCHAR 0114
ENCODING 276
SWIDTH 585 0
DWIDTH 13 0
BBX 10 21 2 0
BITMAP
3180
3F00
1E00
0000
FFC0
FFC0
FFC0
E000
E000
E000
E000
FF80
FF80
FF80
E000
E000
E000
E000
FFC0
FFC0
FFC0
ENDCHAR
STARTCHAR 0115
ENCODING 277
SWIDTH 585 0
DWIDTH 13 0
BBX 11 18 1 0
BITMAP
3180
3F80
0F00
0000
0000
1F00
3FC0
7FC0
F0E0
E0E0
FFE0
FFE0
E000
E000
F020
7FE0
3FE0
1FC0
ENDCHAR
STARTCHAR 0116
ENCODING 278
SWIDTH 585 0
DWIDTH 13 0
BBX 10 21 2 0
BITMAP
0E00
0E00
0C00
0000
FFC0
FFC0
FFC0
E000
E000
E000
E000
FF80
FF80
FF80
E000
E000
E000
E000
FFC0
FFC0
FFC0
ENDCHAR
STARTCHAR 0117
ENCODING 279
SWIDTH 585 0
DWIDTH 13 0
BBX 11 18 1 0
BITMAP
0700
0700
0600
0000
0000
1F00
3FC0
7FC0
F0E0
E0E0
FFE0
FFE0
FFE0
E000
F020
7FE0
3FE0
1FC0
ENDCHAR
STARTCHAR 0118
ENCODING 280
SWIDTH 585 0
DWIDTH 13 0
BBX 10 22 2 -5
BITMAP
FFC0
FFC0
FFC0
E000
E000
E000
E000
FF80
FF80
FF80
E000
E000
E000
E000
FFC0
FFC0
FFC0
0300
0200
0600
07C0
03C0
ENDCHAR
STARTCHAR 0119
ENCODING 281
SWIDTH 585 0
DWIDTH 13 0
BBX 11 18 1 -5
BITMAP
1F00
3FC0
7FC0
F0E0
E0E0
FFE0
FFE0
FFE0
E000
F020
7FE0
3FE0
1FC0
0180
0300
0300
03E0
01E0
ENDCHAR
STARTCHAR 011A
ENCODING 282
SWIDTH 585 0
DWIDTH 13 0
BBX 10 21 2 0
BITMAP
7180
3B00
1E00
0000
FFC0
FFC0
FFC0
E000
E000
E000
E000
FF80
FF80
FF80
E000
E000
E000
E000
FFC0
FFC0
FFC0
ENDCHAR
STARTCHAR 011B
ENCODING 283
SWIDTH 585 0
DWIDTH 13 0
BBX 11 20 1 0
BITMAP
30C0
3180
1B80
0F00
0E00
0000
0000
1F00
3FC0
7FE0
F0E0
E0E0
FFE0
FFE0
E000
E000
F020
7FE0
3FE0
1FC0
ENDCHAR
STARTCHAR 011C
ENCODING 284
SWIDTH 585 0
DWIDTH 13 0
BBX 11 22 1 0
BITMAP
0700
0F80
19C0
30C0
0000
0FC0
1FE0
3FE0
7820
7020
7000
F000
F000
F3E0
F3E0
F3E0
70E0
70E0
78E0
3FE0
1FE0
0FC0
ENDCHAR
STARTCHAR 011D
ENCODING 285
SWIDTH 585 0
DWIDTH 13 0
BBX 11 24 1 -5
BITMAP
0F00
0F00
1980
1980
30C0
0000
1CE0
3FE0
7FE0
F1E0
F1E0
E0E0
E0E0
E0E0
F1E0
F1E0
7FE0
7FE0
1EE0
00E0
41E0
7FC0
7FC0
3F00
ENDCHAR
STARTCHAR 011E
ENCODING 286
SWIDTH 585 0
DWIDTH 13 0
BBX 11 22 1 0
BITMAP
10C0
18C0
1F80
0700
0000
0FC0
1FE0
3FE0
7860
7020
7000
F000
F000
F3E0
F3E0
F3E0
70E0
70E0
78E0
3FE0
1FE0
0F80
ENDCHAR
STARTCHAR 011F
ENCODING 287
SWIDTH 585 0
DWIDTH 13 0
BBX 11 23 1 -5
BITMAP
3180
3F80
0F00
0000
0000
1CE0
3FE0
7FE0
F1E0
F1E0
E0E0
E0E0
E0E0
E1E0
F1E0
7FE0
7FE0
1EE0
00E0
41E0
7FC0
7FC0
3F00
ENDCHAR
STARTCHAR 0120
ENCODING 288
SWIDTH 585 0
DWIDTH 13 0
BBX 11 21 1 0
BITMAP
0700
0700
0700
0000
0FC0
1FE0
3FE0
7820
7020
7000
F000
F000
F3E0
F3E0
F3E0
70E0
70E0
78E0
3FE0
1FE0
0FC0
ENDCHAR
STARTCHAR 0121
ENCODING 289
SWIDTH 585 0
DWIDTH 13 0
BBX 11 23 1 -5
BITMAP
0E00
0E00
0E00
0000
0000
1CE0
3FE0
7FE0
F1E0
F1E0
E0E0
E0E0
E0E0
E1E0
F1E0
7FE0
7FE0
1EE0
00E0
41E0
7FC0
7FC0
3F00
ENDCHAR
STARTCHAR 0122
ENCODING 290
SWIDTH 585 0
DWIDTH 13 0
BBX 11 22 1 -5
BITMAP
0FC0
1FE0
3FE0
7820
7000
7000
F000
F3E0
F3E0
F3E0
F0E0
70E0
70E0
78E0
3FE0
1FE0
0FC0
0000
0000
0380
0700
0600
ENDCHAR
STARTCHAR 0123
ENCODING 291
SWIDTH 585 0
DWIDTH 13 0
BBX 11 23 1 -5
BITMAP
0300
0600
0E00
0000
0000
1CE0
3FE0
7FE0
F1E0
F1E0
E0E0
E0E0
E0E0
E1E0
F1E0
7FE0
7FE0
1EE0
00E0
41E0
7FC0
7FC0
3F00
ENDCHAR
STARTCHAR 0124
ENCODING 292
SWIDTH 585 0
DWIDTH 13 0
BBX 11 21 1 0
BITMAP
0F00
1B80
31C0
0000
F0E0
F0E0
F0E0
F0E0
F0E0
F0E0
F0E0
FFE0
FFE0
FFE0
F0E0
F0E0
F0E0
F0E0
F0E0
F0E0
F0E0
ENDCHAR
STARTCHAR 0125
ENCODING 293
SWIDTH 585 0
DWIDTH 13 0
BBX 10 21 2 0
BITMAP
0F00
3980
0040
E000
E000
E000
E000
E000
EF00
FF80
FF80
E3C0
E3C0
E3C0
E3C0
E3C0
E3C0
E3C0
E3C0
E3C0
E3C0
ENDCHAR
STARTCHAR 0126
ENCODING 294
SWIDTH 585 0
DWIDTH 13 0
BBX 13 17 0 0
BITMAP
7870
7870
7870
FFF8
FFF8
7870
7870
7FF0
7FF0
7FF0
7870
7870
7870
7870
7870
7870
7870
ENDCHAR
STARTCHAR 0127
ENCODING 295
SWIDTH 585 0
DWIDTH 13 0
BBX 12 18 0 0
BITMAP
3800
3800
FF00
FF00
3800
3BC0
3FE0
3FE0
38F0
38F0
38F0
38F0
38F0
38F0
38F0
38F0
38F0
38F0
ENDCHAR
STARTCHAR 0128
ENCODING 296
SWIDTH 585 0
DWIDTH 13 0
BBX 10 21 2 0
BITMAP
3900
7F00
4700
0000
FFC0
FFC0
FFC0
1C00
1C00
1C00
1C00
1C00
1C00
1C00
1C00
1C00
1C00
1C00
FFC0
FFC0
FFC0
ENDCHAR
STARTCHAR 0129
ENCODING 297
SWIDTH 585 0
DWIDTH 13 0
BBX 10 18 2 0
BITMAP
7300
7B00
CF00
C600
0000
FC00
FC00
FC00
1C00
1C00
1C00
1C00
1C00
1C00
1C00
1FC0
1FC0
0FC0
ENDCHAR
STARTCHAR 012A
ENCODING 298
SWIDTH 585 0
DWIDTH 13 0
BBX 10 21 2 0
BITMAP
7F00
7F00
7F00
0000
FFC0
FFC0
FFC0
1C00
1C00
1C00
1C00
1C00
1C00
1C00
1C00
1C00
1C00
1C00
FFC0
FFC0
FFC0
ENDCHAR
STARTCHAR 012B
ENCODING 299
SWIDTH 585 0
DWIDTH 13 0
BBX 10 18 2 0
BITMAP
FE00
FE00
FE00
0000
0000
FC00
FC00
FC00
1C00
1C00
1C00
1C00
1C00
1C00
1C00
1FC0
1FC0
0FC0
ENDCHAR
STARTCHAR 012C
ENCODING 300
SWIDTH 585 0
DWIDTH 13 0
BBX 10 21 2 0
BITMAP
6300
3F00
1E00
0000
FFC0
FFC0
FFC0
1C00
1C00
1C00
1C00
1C00
1C00
1C00
1C00
1C00
1C00
1C00
FFC0
FFC0
FFC0
ENDCHAR
STARTCHAR 012D
ENCODING 301
SWIDTH 585 0
DWIDTH 13 0
BBX 10 18 2 0
BITMAP
4300
7E00
3C00
0000
0000
FC00
FC00
FC00
1C00
1C00
1C00
1C00
1C00
1C00
1C00
1FC0
1FC0
0FC0
ENDCHAR
STARTCHAR 012E
ENCODING 302
SWIDTH 585 0
DWIDTH 13 0
BBX 10 22 2 -5
BITMAP
FFC0
FFC0
FFC0
1C00
1C00
1C00
1C00
1C00
1C00
1C00
1C00
1C00
1C00
1C00
FFC0
FFC0
FFC0
0C00
0800
0800
0F00
0F00
ENDCHAR
STARTCHAR 012F
ENCODING 303
SWIDTH 585 0
DWIDTH 13 0
BBX 10 23 2 -5
BITMAP
1C00
1C00
1C00
1C00
0000
FC00
FC00
FC00
1C00
1C00
1C00
1C00
1C00
1C00
1C00
1FC0
1FC0
0FC0
0300
0200
0200
03C0
03C0
ENDCHAR
STARTCHAR 0130
ENCODING 304
SWIDTH 585 0
DWIDTH 13 0
BBX 10 21 2 0
BITMAP
1C00
1C00
1C00
0000
FFC0
FFC0
FFC0
1C00
1C00
1C00
1C00
1C00
1C00
1C00
1C00
1C00
1C00
1C00
FFC0
FFC0
FFC0
ENDCHAR
STARTCHAR 0131
ENCODING 305
SWIDTH 585 0
DWIDTH 13 0
BBX 10 13 2 0
BITMAP
FC00
FC00
FC00
1C00
1C00
1C00
1C00
1C00
1C00
1C00
1FC0
1FC0
0FC0
ENDCHAR
STARTCHAR 0132
ENCODING 306
SWIDTH 585 0
DWIDTH 13 0
BBX 11 17 1 0
BITMAP
F0E0
F0E0
F0E0
F0E0
F0E0
F0E0
F0E0
F0E0
F0E0
F0E0
00E0
00E0
01E0
03C0
FFC0
FF80
FE00
ENDCHAR
STARTCHAR 0133
ENCODING 307
SWIDTH 585 0
DWIDTH 13 0
BBX 11 23 1 -5
BITMAP
F0E0
F0E0
F0E0
F0E0
0000
F0E0
F0E0
F0E0
F0E0
F0E0
F0E0
F0E0
F0E0
F0E0
F0E0
F0E0
F0E0
F0E0
00E0
00E0
0FC0
0FC0
0F00
ENDCHAR
STARTCHAR 0134
ENCODING 308
SWIDTH 585 0
DWIDTH 13 0
BBX 12 22 1 0
BITMAP
01C0
03E0
0670
0C30
0000
1FC0
1FC0
1FC0
01C0
01C0
01C0
01C0
01C0
01C0
01C0
01C0
01C0
81C0
C3C0
FF80
FF80
3F00
ENDCHAR
STARTCHAR 0135
ENCODING 309
SWIDTH 585 0
DWIDTH 13 0
BBX 10 24 2 -5
BITMAP
0F00
0F00
1B80
3980
30C0
0000
7F00
7F00
7F00
0F00
0F00
0F00
0F00
0F00
0F00
0F00
0F00
0F00
0F00
0E00
0E00
FE00
FE00
FC00
ENDCHAR
STARTCHAR 0136
ENCODING 310
SWIDTH 585 0
DWIDTH 13 0
BBX 12 22 1 -5
BITMAP
E0F0
E1E0
E1C0
E380
E780
EF00
EE00
FE00
FF00
FF00
F780
E380
E3C0
E1C0
E1E0
E0F0
E0F0
0000
0000
0700
0600
0E00
ENDCHAR
STARTCHAR 0137
ENCODING 311
SWIDTH 585 0
DWIDTH 13 0
BBX 11 23 2 -5
BITMAP
E000
E000
E000
E000
E000
E3E0
E380
E700
EE00
FE00
FC00
FE00
FF00
E700
E380
E380
E1C0
E1E0
0000
0000
0E00
0C00
1C00
ENDCHAR
STARTCHAR 0138
ENCODING 312
SWIDTH 585 0
DWIDTH 13 0
BBX 11 13 2 0
BITMAP
E3E0
E380
E700
EE00
FE00
FC00
FE00
FF00
E700
E380
E380
E1C0
E1E0
ENDCHAR
STARTCHAR 0139
ENCODING 313
SWIDTH 585 0
DWIDTH 13 0
BBX 10 21 2 0
BITMAP
0700
0E00
1C00
0000
F000
F000
F000
F000
F000
F000
F000
F000
F000
F000
F000
F000
F000
F000
FFC0
FFC0
FFC0
ENDCHAR
STARTCHAR 013A
ENCODING 314
SWIDTH 585 0
DWIDTH 13 0
BBX 11 21 1 0
BITMAP
0380
0600
0800
FC00
FC00
FC00
1C00
1C00
1C00
1C00
1C00
1C00
1C00
1C00
1C00
1C00
1C00
1E00
0FE0
0FE0
07E0
ENDCHAR
STARTCHAR 013B
ENCODING 315
SWIDTH 585 0
DWIDTH 13 0
BBX 10 22 2 -5
BITMAP
F000
F000
F000
F000
F000
F000
F000
F000
F000
F000
F000
F000
F000
F000
FFC0
FFC0
FFC0
0000
0000
0E00
0E00
1C00
ENDCHAR
STARTCHAR 013C
ENCODING 316
SWIDTH 585 0
DWIDTH 13 0
BBX 11 23 1 -5
BITMAP
FC00
FC00
FC00
1C00
1C00
1C00
1C00
1C00
1C00
1C00
1C00
1C00
1C00
1C00
1E00
0FE0
0FE0
07E0
0000
0000
0E00
0C00
1C00
ENDCHAR
STARTCHAR 013D
ENCODING 317
SWIDTH 585 0
DWIDTH 13 0
BBX 10 17 2 0
BITMAP
F1C0
F1C0
F180
F180
F000
F000
F000
F000
F000
F000
F000
F000
F000
F000
FFC0
FFC0
FFC0
ENDCHAR
STARTCHAR 013E
ENCODING 318
SWIDTH 585 0
DWIDTH 13 0
BBX 12 18 1 0
BITMAP
FC70
FC60
FCE0
1CC0
1C00
1C00
1C00
1C00
1C00
1C00
1C00
1C00
1C00
1C00
1E00
0FE0
0FE0
07E0
ENDCHAR
STARTCHAR 013F
ENCODING 319
SWIDTH 585 0
DWIDTH 13 0
BBX 10 17 2 0
BITMAP
F000
F000
F000
F000
F000
F000
F000
F380
F380
F380
F000
F000
F000
F000
FFC0
FFC0
FFC0
ENDCHAR
STARTCHAR 0140
ENCODING 320
SWIDTH 585 0
DWIDTH 13 0
BBX 11 18 0 0
BITMAP
FE00
FE00
FE00
0E00
0E00
0E00
0E00
0E00
0EE0
0EE0
0EE0
0E00
0E00
0E00
0E00
0FE0
0FE0
03E0
ENDCHAR
STARTCHAR 0141
ENCODING 321
SWIDTH 585 0
DWIDTH 13 0
BBX 12 17 0 0
BITMAP
3C00
3C00
3C00
3C00
3C80
3FC0
3F00
3E00
3C00
7C00
FC00
FC00
3C00
3C00
3FF0
3FF0
3FF0
ENDCHAR
STARTCHAR 0142
ENCODING 322
SWIDTH 585 0
DWIDTH 13 0
BBX 12 18 0 0
BITMAP
7F00
7F00
7F00
0F20
0F70
0FE0
0FC0
0F80
0F00
1F00
7F00
EF00
4F00
0F00
0700
07F0
07F0
03F0
ENDCHAR
STARTCHAR 0143
ENCODING 323
SWIDTH 585 0
DWIDTH 13 0
BBX 11 21 1 0
BITMAP
03C0
0700
0E00
0000
F0E0
F0E0
F8E0
F8E0
F8E0
FCE0
ECE0
ECE0
E6E0
E6E0
E7E0
E3E0
E3E0
E3E0
E1E0
E1E0
E1E0
ENDCHAR
STARTCHAR 0144
ENCODING 324
SWIDTH 585 0
DWIDTH 13 0
BBX 10 19 2 0
BITMAP
0380
0700
0E00
1C00
0000
0000
EF00
FF80
FF80
E3C0
E3C0
E3C0
E3C0
E3C0
E3C0
E3C0
E3C0
E3C0
E3C0
ENDCHAR
STARTCHAR 0145
ENCODING 325
SWIDTH 585 0
DWIDTH 13 0
BBX 11 22 1 -5
BITMAP
F0E0
F0E0
F8E0
F8E0
F8E0
FCE0
ECE0
ECE0
E6E0
E6E0
E7E0
E3E0
E3E0
E3E0
E1E0
E1E0
E1E0
0000
0000
0F00
0E00
0C00
ENDCHAR
STARTCHAR 0146
ENCODING 326
SWIDTH 585 0
DWIDTH 13 0
BBX 10 18 2 -5
BITMAP
EF00
FF80
FF80
E3C0
E3C0
E3C0
E3C0
E3C0
E3C0
E3C0
E3C0
E3C0
E3C0
0000
0000
0E00
1C00
1800
ENDCHAR
STARTCHAR 0147
ENCODING 327
SWIDTH 585 0
DWIDTH 13 0
BBX 11 21 1 0
BITMAP
38C0
1D80
0F00
0000
F0E0
F0E0
F8E0
F8E0
F8E0
FCE0
ECE0
ECE0
E6E0
E6E0
E7E0
E3E0
E3E0
E3E0
E1E0
E1E0
E1E0
ENDCHAR
STARTCHAR 0148
ENCODING 328
SWIDTH 585 0
DWIDTH 13 0
BBX 10 19 2 0
BITMAP
6180
3300
1F00
1E00
0C00
0000
EF00
FF80
FF80
E3C0
E3C0
E3C0
E3C0
E3C0
E3C0
E3C0
E3C0
E3C0
E3C0
ENDCHAR
STARTCHAR 0149
ENCODING 329
SWIDTH 585 0
DWIDTH 13 0
BBX 14 18 -1 0
BITMAP
3800
3800
3800
7800
7000
7778
E7FC
079C
071C
071C
071C
071C
071C
071C
071C
071C
071C
071C
ENDCHAR
STARTCHAR 014A
ENCODING 330
SWIDTH 585 0
DWIDTH 13 0
BBX 11 22 1 -5
BITMAP
E780
EFC0
FFE0
F0E0
F0E0
E0E0
E0E0
E0E0
E0E0
E0E0
E0E0
E0E0
E0E0
E0E0
E0E0
E0E0
E0E0
00E0
00E0
03E0
03C0
0380
ENDCHAR
STARTCHAR 014B
ENCODING 331
SWIDTH 585 0
DWIDTH 13 0
BBX 10 18 2 -5
BITMAP
EF00
FF80
FF80
E3C0
E3C0
E3C0
E3C0
E3C0
E3C0
E3C0
E3C0
E3C0
E3C0
03C0
0380
0F80
0F80
0F00
ENDCHAR
STARTCHAR 014C
ENCODING 332
SWIDTH 585 0
DWIDTH 13 0
BBX 11 21 1 0
BITMAP
3F80
3F80
3F80
0000
1F00
3F80
7FC0
71E0
F0E0
F0E0
E0E0
E0E0
E0E0
E0E0
E0E0
F0E0
F0E0
71E0
7FC0
3F80
1F00
ENDCHAR
STARTCHAR 014D
ENCODING 333
SWIDTH 585 0
DWIDTH 13 0
BBX 11 18 1 0
BITMAP
3F80
3F80
3F80
0000
0000
1F00
3FC0
7FC0
71E0
F0E0
E0E0
E0E0
E0E0
F0E0
71E0
7FC0
3FC0
1F00
ENDCHAR
STARTCHAR 014E
ENCODING 334
SWIDTH 585 0
DWIDTH 13 0
BBX 11 22 1 0
BITMAP
3080
3180
1F80
0E00
0000
1F00
3F80
7FC0
71E0
F0E0
F0E0
E0E0
E0E0
E0E0
E0E0
E0E0
F0E0
F0E0
71E0
7FC0
3F80
1F00
ENDCHAR
STARTCHAR 014F
ENCODING 335
SWIDTH 585 0
DWIDTH 13 0
BBX 11 18 1 0
BITMAP
3180
3F80
0F00
0000
0000
1F00
3FC0
7FC0
71E0
F0E0
E0E0
E0E0
E0E0
F0E0
71E0
7FC0
3FC0
1F00
ENDCHAR
STARTCHAR 0150
ENCODING 336
SWIDTH 585 0
DWIDTH 13 0
BBX 11 21 1 0
BITMAP
0EE0
1DC0
3380
0000
1F00
3F80
7FC0
71E0
F0E0
F0E0
E0E0
E0E0
E0E0
E0E0
E0E0
F0E0
F0E0
71E0
7FC0
3F80
1F00
ENDCHAR
STARTCHAR 0151
ENCODING 337
SWIDTH 585 0
DWIDTH 13 0
BBX 11 19 1 0
BITMAP
0EE0
0DC0
1980
3300
0000
0000
1F00
3FC0
7FC0
71E0
F0E0
E0E0
E0E0
E0E0
F0E0
71E0
7FC0
3FC0
1F00
ENDCHAR
STARTCHAR 0152
ENCODING 338
SWIDTH 585 0
DWIDTH 13 0
BBX 12 17 1 0
BITMAP
1FF0
7FF0
7FF0
E300
E300
E300
E300
E3F0
E3F0
E3F0
E300
E300
E300
E300
7FF0
7FF0
1FF0
ENDCHAR
STARTCHAR 0153
ENCODING 339
SWIDTH 585 0
DWIDTH 13 0
BBX 13 13 0 0
BITMAP
3CF0
7FF0
7FF8
E718
E318
E3F8
E3F8
E3F8
E300
E788
7FF8
7FF8
3CF0
ENDCHAR
STARTCHAR 0154
ENCODING 340
SWIDTH 585 0
DWIDTH 13 0
BBX 12 21 1 0
BITMAP
0380
0700
0E00
0000
FF00
FFC0
FFE0
F1E0
F0E0
F0E0
F1E0
FFC0
FF80
FF80
F380
F3C0
F1C0
F1E0
F0E0
F0F0
F070
ENDCHAR
STARTCHAR 0155
ENCODING 341
SWIDTH 585 0
DWIDTH 13 0
BBX 9 19 3 0
BITMAP
0380
0700
0E00
1C00
0000
0000
E780
EF80
FF80
F080
F000
E000
E000
E000
E000
E000
E000
E000
E000
ENDCHAR
STARTCHAR 0156
ENCODING 342
SWIDTH 585 0
DWIDTH 13 0
BBX 12 22 1 -5
BITMAP
FF00
FFC0
FFE0
F1E0
F0E0
F0E0
F1E0
FFC0
FF80
FF80
F380
F3C0
F1C0
F1E0
F0E0
F0F0
F070
0000
0000
0700
0600
0E00
ENDCHAR
STARTCHAR 0157
ENCODING 343
SWIDTH 585 0
DWIDTH 13 0
BBX 9 18 3 -5
BITMAP
E780
EF80
FF80
F080
F000
E000
E000
E000
E000
E000
E000
E000
E000
0000
0000
7000
E000
C000
ENDCHAR
STARTCHAR 0158
ENCODING 344
SWIDTH 585 0
DWIDTH 13 0
BBX 12 21 1 0
BITMAP
7180
3B00
1E00
0000
FF00
FFC0
FFE0
F1E0
F0E0
F0E0
F1E0
FFC0
FF80
FF80
F380
F3C0
F1C0
F1E0
F0E0
F0F0
F070
ENDCHAR
STARTCHAR 0159
ENCODING 345
SWIDTH 585 0
DWIDTH 13 0
BBX 9 19 3 0
BITMAP
6180
3300
3E00
1C00
0000
0000
E780
EF80
FF80
F080
F000
E000
E000
E000
E000
E000
E000
E000
E000
ENDCHAR
STARTCHAR 015A
ENCODING 346
SWIDTH 585 0
DWIDTH 13 0
BBX 11 22 1 0
BITMAP
01C0
0380
0700
0E00
0000
1F80
3FC0
7FC0
7040
F000
F000
7C00
7F00
3FC0
07C0
01E0
00E0
00E0
C1E0
FFE0
FFC0
3F00
ENDCHAR
STARTCHAR 015B
ENCODING 347
SWIDTH 585 0
DWIDTH 13 0
BBX 10 20 2 0
BITMAP
0380
0700
0600
0E00
1C00
0000
0000
3F00
7F80
FF80
E080
E000
FC00
7F00
0F80
03C0
83C0
FF80
FF80
7F00
ENDCHAR
STARTCHAR 015C
ENCODING 348
SWIDTH 585 0
DWIDTH 13 0
BBX 11 22 1 0
BITMAP
0E00
1F00
3980
60C0
0000
1F80
3FC0
7FC0
7040
F000
F000
7C00
7F00
3FC0
07C0
01E0
00E0
00E0
C1E0
FFE0
FFC0
3F00
ENDCHAR
STARTCHAR 015D
ENCODING 349
SWIDTH 585 0
DWIDTH 13 0
BBX 10 18 2 0
BITMAP
1C00
3E00
7300
0080
0000
3F00
7F80
FF80
E080
E000
FC00
7F00
0F80
03C0
83C0
FF80
FF80
7F00
ENDCHAR
STARTCHAR 015E
ENCODING 350
SWIDTH 585 0
DWIDTH 13 0
BBX 11 22 1 -5
BITMAP
1F80
3FC0
7FC0
7040
F000
F000
7C00
7F00
3FC0
07C0
01E0
00E0
00E0
C1E0
FFE0
FFC0
3F00
0200
0300
0300
1F00
1E00
ENDCHAR
STARTCHAR 015F
ENCODING 351
SWIDTH 585 0
DWIDTH 13 0
BBX 10 18 2 -5
BITMAP
3F00
7F80
FF80
E080
E000
FC00
7F00
0F80
03C0
83C0
FF80
FF80
7F00
0400
0600
0600
3E00
3C00
ENDCHAR
STARTCHAR 0160
ENCODING 352
SWIDTH 585 0
DWIDTH 13 0
BBX 11 22 1 0
BITMAP
30C0
3980
1F00
0E00
0000
1F80
3FC0
7FC0
7040
F000
F000
7C00
7F00
3FC0
07C0
01E0
00E0
00E0
C1E0
FFE0
FFC0
3F00
ENDCHAR
STARTCHAR 0161
ENCODING 353
SWIDTH 585 0
DWIDTH 13 0
BBX 10 20 2 0
BITMAP
6180
6300
3700
3E00
1C00
0000
0000
3F00
7F80
F380
E080
F000
FE00
7F80
1F80
03C0
81C0
E380
FF80
7F00
ENDCHAR
STARTCHAR 0162
ENCODING 354
SWIDTH 585 0
DWIDTH 13 0
BBX 11 22 1 -5
BITMAP
FFE0
FFE0
FFE0
0E00
0E00
0E00
0E00
0E00
0E00
0E00
0E00
0E00
0E00
0E00
0E00
0E00
0E00
0600
0300
0300
1F00
1E00
ENDCHAR
STARTCHAR 0163
ENCODING 355
SWIDTH 585 0
DWIDTH 13 0
BBX 11 23 1 -5
BITMAP
0200
1C00
1C00
1C00
1C00
FFE0
FFE0
FFE0
1C00
1C00
1C00
1C00
1C00
1C00
1E00
1FE0
0FE0
07E0
0180
00C0
00C0
07C0
0780
ENDCHAR
STARTCHAR 0164
ENCODING 356
SWIDTH 585 0
DWIDTH 13 0
BBX 11 21 1 0
BITMAP
31C0
1B00
0F00
0000
FFE0
FFE0
FFE0
0E00
0E00
0E00
0E00
0E00
0E00
0E00
0E00
0E00
0E00
0E00
0E00
0E00
0E00
ENDCHAR
STARTCHAR 0165
ENCODING 357
SWIDTH 585 0
DWIDTH 13 0
BBX 12 19 1 0
BITMAP
0070
0260
0CE0
1CC0
1C00
1C00
FFE0
FFE0
FFE0
1C00
1C00
1C00
1C00
1C00
1C00
1E00
1FE0
0FE0
07E0
ENDCHAR
STARTCHAR 0166
ENCODING 358
SWIDTH 585 0
DWIDTH 13 0
BBX 11 17 1 0
BITMAP
FFE0
FFE0
FFE0
0E00
0E00
0E00
0E00
0E00
7FC0
7FC0
7FC0
0E00
0E00
0E00
0E00
0E00
0E00
ENDCHAR
STARTCHAR 0167
ENCODING 359
SWIDTH 585 0
DWIDTH 13 0
BBX 11 18 1 0
BITMAP
0200
1C00
1C00
1C00
1C00
FFE0
FFE0
FFE0
1C00
7F00
7F00
7F00
1C00
1C00
1E00
1FE0
0FE0
07E0
ENDCHAR
STARTCHAR 0168
ENCODING 360
SWIDTH 585 0
DWIDTH 13 0
BBX 11 21 1 0
BITMAP
1C80
3F80
2300
0000
E0E0
E0E0
E0E0
E0E0
E0E0
E0E0
E0E0
E0E0
E0E0
E0E0
E0E0
E0E0
F0E0
F1E0
7FE0
3FC0
1F00
ENDCHAR
STARTCHAR 0169
ENCODING 361
SWIDTH 585 0
DWIDTH 13 0
BBX 10 18 2 0
BITMAP
3900
7F00
4700
0000
0000
E3C0
E3C0
E3C0
E3C0
E3C0
E3C0
E3C0
E3C0
E3C0
E3C0
FFC0
FFC0
79C0
ENDCHAR
STARTCHAR 016A
ENCODING 362
SWIDTH 585 0
DWIDTH 13 0
BBX 11 21 1 0
BITMAP
3F80
3F80
3F80
0000
E0E0
E0E0
E0E0
E0E0
E0E0
E0E0
E0E0
E0E0
E0E0
E0E0
E0E0
E0E0
F0E0
F1E0
7FE0
3FC0
1F00
ENDCHAR
STARTCHAR 016B
ENCODING 363
SWIDTH 585 0
DWIDTH 13 0
BBX 10 17 2 0
BITMAP
7F00
7F00
7F00
0000
E3C0
E3C0
E3C0
E3C0
E3C0
E3C0
E3C0
E3C0
E3C0
E3C0
FFC0
FFC0
79C0
ENDCHAR
STARTCHAR 016C
ENCODING 364
SWIDTH 585 0
DWIDTH 13 0
BBX 11 22 1 0
BITMAP
3080
3180
1F80
0E00
0000
E0E0
E0E0
E0E0
E0E0
E0E0
E0E0
E0E0
E0E0
E0E0
E0E0
E0E0
E0E0
E0E0
F1E0
7FC0
3FC0
1F00
ENDCHAR
STARTCHAR 016D
ENCODING 365
SWIDTH 585 0
DWIDTH 13 0
BBX 10 18 2 0
BITMAP
6300
7F00
1E00
0000
0000
E3C0
E3C0
E3C0
E3C0
E3C0
E3C0
E3C0
E3C0
E3C0
E3C0
FFC0
FFC0
79C0
ENDCHAR
STARTCHAR 016E
ENCODING 366
SWIDTH 585 0
DWIDTH 13 0
BBX 11 21 1 0
BITMAP
0F00
1F00
1180
1980
FFE0
EEE0
E0E0
E0E0
E0E0
E0E0
E0E0
E0E0
E0E0
E0E0
E0E0
E0E0
F0E0
F1E0
7FE0
3FC0
1F00
ENDCHAR
STARTCHAR 016F
ENCODING 367
SWIDTH 585 0
DWIDTH 13 0
BBX 10 21 2 0
BITMAP
1C00
3E00
3300
2300
3300
3E00
1C00
0000
E3C0
E3C0
E3C0
E3C0
E3C0
E3C0
E3C0
E3C0
E3C0
E3C0
FFC0
FFC0
79C0
ENDCHAR
STARTCHAR 0170
ENCODING 368
SWIDTH 585 0
DWIDTH 13 0
BBX 11 21 1 0
BITMAP
0EE0
1DC0
3B80
0000
E0E0
E0E0
E0E0
E0E0
E0E0
E0E0
E0E0
E0E0
E0E0
E0E0
E0E0
E0E0
F0E0
F1E0
7FE0
3FC0
1F00
ENDCHAR
STARTCHAR 0171
ENCODING 369
SWIDTH 585 0
DWIDTH 13 0
BBX 10 19 2 0
BITMAP
1DC0
1B80
3300
6600
0000
0000
E3C0
E3C0
E3C0
E3C0
E3C0
E3C0
E3C0
E3C0
E3C0
E3C0
FFC0
FFC0
79C0
ENDCHAR
STARTCHAR 0172
ENCODING 370
SWIDTH 585 0
DWIDTH 13 0
BBX 11 22 1 -5
BITMAP
E0E0
E0E0
E0E0
E0E0
E0E0
E0E0
E0E0
E0E0
E0E0
E0E0
E0E0
E0E0
E0E0
F1E0
7FE0
7FC0
1F80
0400
0C00
0C00
0F00
0F00
ENDCHAR
STARTCHAR 0173
ENCODING 371
SWIDTH 585 0
DWIDTH 13 0
BBX 11 18 2 -5
BITMAP
E3C0
E3C0
E3C0
E3C0
E3C0
E3C0
E3C0
E3C0
E3C0
E3C0
FFC0
FFC0
7BC0
0080
0180
0180
01E0
01E0
ENDCHAR
STARTCHAR 0174
ENCODING 372
SWIDTH 585 0
DWIDTH 13 0
BBX 13 21 0 0
BITMAP
0780
0DC0
18E0
0000
E018
E038
E038
E038
6738
6738
67B8
67B8
77B0
7DB0
7DB0
7DB0
7CF0
3CF0
38F0
38F0
38F0
ENDCHAR
STARTCHAR 0175
ENCODING 373
SWIDTH 585 0
DWIDTH 13 0
BBX 13 19 0 0
BITMAP
0700
0780
0D80
18C0
1860
0000
E018
E018
E038
6738
6738
6730
77B0
75B0
7DF0
3DF0
3CF0
3CE0
38E0
ENDCHAR
STARTCHAR 0176
ENCODING 374
SWIDTH 585 0
DWIDTH 13 0
BBX 13 21 0 0
BITMAP
0780
0DC0
18E0
0000
F038
7078
7870
38F0
3CE0
1DE0
1FC0
0FC0
0F80
0780
0700
0700
0700
0700
0700
0700
0700
ENDCHAR
STARTCHAR 0177
ENCODING 375
SWIDTH 585 0
DWIDTH 13 0
BBX 12 24 1 -5
BITMAP
0E00
0F00
1F00
1980
30C0
0000
E0F0
F0E0
70E0
71E0
79C0
39C0
39C0
3F80
1F80
1F80
0F00
0F00
0F00
0E00
0E00
FC00
FC00
F800
ENDCHAR
STARTCHAR 0178
ENCODING 376
SWIDTH 585 0
DWIDTH 13 0
BBX 13 21 0 0
BITMAP
1CC0
1CC0
1CC0
0000
F038
7078
7870
38F0
3CE0
1DE0
1FC0
0FC0
0F80
0780
0700
0700
0700
0700
0700
0700
0700
ENDCHAR
STARTCHAR 0179
ENCODING 377
SWIDTH 585 0
DWIDTH 13 0
BBX 12 21 1 0
BITMAP
03C0
0700
0E00
0000
FFE0
FFE0
FFE0
01E0
03C0
03C0
0780
0700
0F00
1E00
1C00
3C00
7800
7000
FFF0
FFF0
FFF0
ENDCHAR
STARTCHAR 017A
ENCODING 378
SWIDTH 585 0
DWIDTH 13 0
BBX 10 19 2 0
BITMAP
0380
0700
0600
0C00
1800
0000
FFC0
FFC0
03C0
0780
0700
0E00
1E00
3C00
7800
F000
E000
FFC0
FFC0
ENDCHAR
STARTCHAR 017B
ENCODING 379
SWIDTH 585 0
DWIDTH 13 0
BBX 12 21 1 0
BITMAP
0700
0700
0700
0000
FFE0
FFE0
FFE0
01E0
03C0
03C0
0780
0700
0F00
1E00
1C00
3C00
7800
7000
FFF0
FFF0
FFF0
ENDCHAR
STARTCHAR 017C
ENCODING 380
SWIDTH 585 0
DWIDTH 13 0
BBX 10 18 2 0
BITMAP
1C00
1C00
1C00
0000
0000
FFC0
FFC0
FFC0
0780
0700
0F00
1E00
3C00
7800
F000
FFC0
FFC0
FFC0
ENDCHAR
STARTCHAR 017D
ENCODING 381
SWIDTH 585 0
DWIDTH 13 0
BBX 12 21 1 0
BITMAP
31C0
1B80
0F00
0000
FFE0
FFE0
FFE0
01E0
03C0
03C0
0780
0700
0F00
1E00
1C00
3C00
7800
7000
FFF0
FFF0
FFF0
ENDCHAR
STARTCHAR 017E
ENCODING 382
SWIDTH 585 0
DWIDTH 13 0
BBX 10 19 2 0
BITMAP
6180
6300
3600
1E00
1C00
0000
FFC0
FFC0
FFC0
0780
0700
0F00
1E00
3C00
7800
F000
FFC0
FFC0
FFC0
ENDCHAR
STARTCHAR 017F
ENCODING 383
SWIDTH 585 0
DWIDTH 13 0
BBX 10 21 2 -3
BITMAP
07C0
0FC0
1FC0
1C00
1C00
FC00
FC00
FC00
1C00
1C00
1C00
1C00
1C00
1C00
1C00
1C00
1C00
1C00
1C00
1C00
1C00
ENDCHAR
STARTCHAR 0192
ENCODING 402
SWIDTH 585 0
DWIDTH 13 0
BBX 13 23 0 -5
BITMAP
00F0
01F8
03F8
0380
0380
0300
0300
0700
3FE0
3FE0
3FE0
0700
0700
0700
0600
0E00
0E00
0E00
0E00
0E00
FC00
FC00
F800
ENDCHAR
STARTCHAR 01A0
ENCODING 416
SWIDTH 585 0
DWIDTH 13 0
BBX 13 18 0 0
BITMAP
0018
1F08
3FC8
7FF8
71F8
F0E0
F0E0
E0E0
E0E0
E0E0
E0E0
E0E0
F0E0
F0E0
71E0
7FC0
3F80
1F00
ENDCHAR
STARTCHAR 01A1
ENCODING 417
SWIDTH 585 0
DWIDTH 13 0
BBX 13 13 0 0
BITMAP
1F18
3FC8
7FD8
71F8
F0F8
E0E0
E0E0
E0E0
F0E0
71E0
7FC0
3FC0
1F00
ENDCHAR
STARTCHAR 01A4
ENCODING 420
SWIDTH 585 0
DWIDTH 13 0
BBX 13 17 0 0
BITMAP
7FC0
FFF0
FFF8
DC38
DC38
1C38
1C38
1C78
1FF8
1FF0
1F80
1C00
1C00
1C00
1C00
1C00
1C00
ENDCHAR
STARTCHAR 01AF
ENCODING 431
SWIDTH 585 0
DWIDTH 13 0
BBX 13 18 0 0
BITMAP
0018
E0E8
E0E8
E0F8
E0F8
E0E0
E0E0
E0E0
E0E0
E0E0
E0E0
E0E0
E0E0
E0E0
F1E0
7FC0
7FC0
1F00
ENDCHAR
STARTCHAR 01B0
ENCODING 432
SWIDTH 585 0
DWIDTH 13 0
BBX 13 13 0 0
BITMAP
E1D8
E1C8
E1F8
E1F8
E1C0
E1C0
E1C0
E1C0
E1C0
F3C0
FFC0
7DC0
39C0
ENDCHAR
STARTCHAR 01E6
ENCODING 486
SWIDTH 585 0
DWIDTH 13 0
BBX 11 22 1 0
BITMAP
1860
1CC0
0F80
0700
0000
0FC0
1FE0
3FE0
7820
7020
7000
F000
F000
F3E0
F3E0
F3E0
70E0
70E0
78E0
3FE0
1FE0
0FC0
ENDCHAR
STARTCHAR 01E7
ENCODING 487
SWIDTH 585 0
DWIDTH 13 0
BBX 11 24 1 -5
BITMAP
71C0
3380
1B00
0E00
0E00
0000
1CE0
3FE0
7FE0
F1E0
F1E0
E0E0
E0E0
E0E0
E1E0
F1E0
7FE0
7FE0
1EE0
00E0
41E0
7FC0
7FC0
3F00
ENDCHAR
STARTCHAR 01FE
ENCODING 510
SWIDTH 585 0
DWIDTH 13 0
BBX 13 22 0 0
BITMAP
01C0
0180
0300
0600
0010
0F98
1FF8
3FF0
38F0
78F0
79F0
71F0
73F0
7770
7670
7E70
7C70
7870
38F0
7FE0
FFC0
CF80
ENDCHAR
STARTCHAR 01FF
ENCODING 511
SWIDTH 585 0
DWIDTH 13 0
BBX 13 21 0 -1
BITMAP
00E0
00C0
0180
0380
0700
0000
0010
0FB8
1FF0
3FE0
38F0
79F0
73F0
7770
7670
7C70
38F0
3FE0
7FE0
EF80
4000
ENDCHAR
STARTCHAR 0218
ENCODING 536
SWIDTH 585 0
DWIDTH 13 0
BBX 11 22 1 -5
BITMAP
1F80
3FC0
7FC0
7040
F000
F000
7C00
7F00
3FC0
07C0
01E0
00E0
00E0
C1E0
FFE0
FFC0
3F00
0000
0000
0E00
0C00
1800
ENDCHAR
STARTCHAR 0219
ENCODING 537
SWIDTH 585 0
DWIDTH 13 0
BBX 10 18 2 -5
BITMAP
3F00
7F80
FF80
E080
E000
FC00
7F00
0F80
03C0
83C0
FF80
FF80
7F00
0000
0000
1C00
1800
3000
ENDCHAR
STARTCHAR 021A
ENCODING 538
SWIDTH 585 0
DWIDTH 13 0
BBX 11 22 1 -5
BITMAP
FFE0
FFE0
FFE0
0E00
0E00
0E00
0E00
0E00
0E00
0E00
0E00
0E00
0E00
0E00
0E00
0E00
0E00
0600
0300
0300
1F00
1E00
ENDCHAR
STARTCHAR 021B
ENCODING 539
SWIDTH 585 0
DWIDTH 13 0
BBX 11 23 1 -5
BITMAP
0200
1C00
1C00
1C00
1C00
FFE0
FFE0
FFE0
1C00
1C00
1C00
1C00
1C00
1C00
1E00
1FE0
0FE0
07E0
0180
00C0
00C0
07C0
0780
ENDCHAR
STARTCHAR 02B9
ENCODING 697
SWIDTH 585 0
DWIDTH 13 0
BBX 4 6 5 13
BITMAP
70
60
60
60
60
C0
ENDCHAR
STARTCHAR 02BB
ENCODING 699
SWIDTH 585 0
DWIDTH 13 0
BBX 4 7 5 10
BITMAP
30
70
70
E0
E0
E0
E0
ENDCHAR
STARTCHAR 02BC
ENCODING 700
SWIDTH 585 0
DWIDTH 13 0
BBX 4 7 5 10
BITMAP
70
70
70
70
E0
E0
C0
ENDCHAR
STARTCHAR 02BD
ENCODING 701
SWIDTH 585 0
DWIDTH 13 0
BBX 3 6 5 14
BITMAP
E0
E0
E0
C0
E0
60
ENDCHAR
STARTCHAR 02BE
ENCODING 702
SWIDTH 585 0
DWIDTH 13 0
BBX 3 7 5 11
BITMAP
80
E0
60
20
60
E0
C0
ENDCHAR
STARTCHAR 02BF
ENCODING 703
SWIDTH 585 0
DWIDTH 13 0
BBX 3 7 5 11
BITMAP
20
60
C0
C0
C0
60
20
ENDCHAR
STARTCHAR 02C0
ENCODING 704
SWIDTH 585 0
DWIDTH 13 0
BBX 6 10 4 8
BITMAP
F0
F8
1C
0C
1C
78
70
60
60
60
ENDCHAR
STARTCHAR 02C1
ENCODING 705
SWIDTH 585 0
DWIDTH 13 0
BBX 6 10 4 8
BITMAP
3C
FC
C0
C0
C0
F8
38
38
38
38
ENDCHAR
STARTCHAR 02C6
ENCODING 710
SWIDTH 585 0
DWIDTH 13 0
BBX 8 5 3 14
BITMAP
38
3C
7C
66
C7
ENDCHAR
STARTCHAR 02C7
ENCODING 711
SWIDTH 585 0
DWIDTH 13 0
BBX 8 5 3 14
BITMAP
C3
C6
6E
7C
38
ENDCHAR
STARTCHAR 02C8
ENCODING 712
SWIDTH 585 0
DWIDTH 13 0
BBX 2 6 6 11
BITMAP
C0
C0
C0
C0
C0
C0
ENDCHAR
STARTCHAR 02C9
ENCODING 713
SWIDTH 585 0
DWIDTH 13 0
BBX 7 3 3 16
BITMAP
FE
FE
FE
ENDCHAR
STARTCHAR 02CC
ENCODING 716
SWIDTH 585 0
DWIDTH 13 0
BBX 2 6 6 -2
BITMAP
C0
C0
C0
C0
C0
C0
ENDCHAR
STARTCHAR 02CD
ENCODING 717
SWIDTH 585 0
DWIDTH 13 0
BBX 7 3 3 -5
BITMAP
FE
FE
FE
ENDCHAR
STARTCHAR 02CE
ENCODING 718
SWIDTH 585 0
DWIDTH 13 0
BBX 6 5 3 -7
BITMAP
E0
70
38
18
0C
ENDCHAR
STARTCHAR 02CF
ENCODING 719
SWIDTH 585 0
DWIDTH 13 0
BBX 6 5 4 -7
BITMAP
1C
38
30
60
E0
ENDCHAR
STARTCHAR 02D0
ENCODING 720
SWIDTH 585 0
DWIDTH 13 0
BBX 5 13 4 0
BITMAP
F8
70
30
20
00
00
00
00
00
20
30
70
F8
ENDCHAR
STARTCHAR 02D1
ENCODING 721
SWIDTH 585 0
DWIDTH 13 0
BBX 5 4 4 9
BITMAP
F8
70
30
20
ENDCHAR
STARTCHAR 02D8
ENCODING 728
SWIDTH 585 0
DWIDTH 13 0
BBX 7 4 3 15
BITMAP
C2
C6
7E
3C
ENDCHAR
STARTCHAR 02D9
ENCODING 729
SWIDTH 585 0
DWIDTH 13 0
BBX 3 3 5 15
BITMAP
E0
E0
E0
ENDCHAR
STARTCHAR 02DA
ENCODING 730
SWIDTH 585 0
DWIDTH 13 0
BBX 6 7 4 14
BITMAP
70
F8
CC
8C
CC
F8
70
ENDCHAR
STARTCHAR 02DB
ENCODING 731
SWIDTH 585 0
DWIDTH 13 0
BBX 4 5 5 -5
BITMAP
60
C0
C0
F0
70
ENDCHAR
STARTCHAR 02DC
ENCODING 732
SWIDTH 585 0
DWIDTH 13 0
BBX 7 3 3 15
BITMAP
72
FE
8E
ENDCHAR
STARTCHAR 02DD
ENCODING 733
SWIDTH 585 0
DWIDTH 13 0
BBX 9 4 3 14
BITMAP
3B80
3700
6600
CC00
ENDCHAR
STARTCHAR 0300
ENCODING 768
SWIDTH 0 0
DWIDTH 0 0
BBX 6 5 -11 14
BITMAP
E0
70
30
38
1C
ENDCHAR
STARTCHAR 0301
ENCODING 769
SWIDTH 0 0
DWIDTH 0 0
BBX 6 5 -8 14
BITMAP
1C
38
70
60
C0
ENDCHAR
STARTCHAR 0302
ENCODING 770
SWIDTH 0 0
DWIDTH 0 0
BBX 8 5 -11 14
BITMAP
1C
3C
3E
66
E3
ENDCHAR
STARTCHAR 0303
ENCODING 771
SWIDTH 0 0
DWIDTH 0 0
BBX 7 3 -10 15
BITMAP
E2
FE
9C
ENDCHAR
STARTCHAR 0304
ENCODING 772
SWIDTH 0 0
DWIDTH 0 0
BBX 7 3 -10 16
BITMAP
FE
FE
FE
ENDCHAR
STARTCHAR 0305
ENCODING 773
SWIDTH 0 0
DWIDTH 0 0
BBX 13 3 -13 15
BITMAP
FFF8
FFF8
FFF8
ENDCHAR
STARTCHAR 0306
ENCODING 774
SWIDTH 0 0
DWIDTH 0 0
BBX 7 4 -10 15
BITMAP
86
C6
FC
78
ENDCHAR
STARTCHAR 0307
ENCODING 775
SWIDTH 0 0
DWIDTH 0 0
BBX 3 3 -8 15
BITMAP
E0
E0
E0
ENDCHAR
STARTCHAR 0308
ENCODING 776
SWIDTH 0 0
DWIDTH 0 0
BBX 7 3 -10 15
BITMAP
CE
CE
CE
ENDCHAR
STARTCHAR 0309
ENCODING 777
SWIDTH 0 0
DWIDTH 0 0
BBX 5 5 -9 15
BITMAP
F0
F8
18
10
30
ENDCHAR
STARTCHAR 030A
ENCODING 778
SWIDTH 0 0
DWIDTH 0 0
BBX 6 7 -10 14
BITMAP
38
7C
CC
C4
CC
7C
38
ENDCHAR
STARTCHAR 030B
ENCODING 779
SWIDTH 0 0
DWIDTH 0 0
BBX 8 4 -10 14
BITMAP
33
66
6E
CC
ENDCHAR
STARTCHAR 030C
ENCODING 780
SWIDTH 0 0
DWIDTH 0 0
BBX 8 5 -11 14
BITMAP
C3
63
76
3E
1C
ENDCHAR
STARTCHAR 030D
ENCODING 781
SWIDTH 0 0
DWIDTH 0 0
BBX 2 5 -8 14
BITMAP
C0
C0
C0
C0
C0
ENDCHAR
STARTCHAR 030E
ENCODING 782
SWIDTH 0 0
DWIDTH 0 0
BBX 8 5 -11 14
BITMAP
C3
C3
C3
C3
C3
ENDCHAR
STARTCHAR 030F
ENCODING 783
SWIDTH 0 0
DWIDTH 0 0
BBX 9 4 -12 14
BITMAP
EE00
7600
3300
1980
ENDCHAR
STARTCHAR 0310
ENCODING 784
SWIDTH 0 0
DWIDTH 0 0
BBX 7 6 -10 15
BITMAP
38
38
BE
C6
FC
78
ENDCHAR
STARTCHAR 0311
ENCODING 785
SWIDTH 0 0
DWIDTH 0 0
BBX 7 3 -10 15
BITMAP
78
FC
C6
ENDCHAR
STARTCHAR 0312
ENCODING 786
SWIDTH 0 0
DWIDTH 0 0
BBX 5 3 -9 10
BITMAP
38
70
F0
ENDCHAR
STARTCHAR 0313
ENCODING 787
SWIDTH 0 0
DWIDTH 0 0
BBX 3 6 -8 14
BITMAP
E0
E0
E0
60
E0
C0
ENDCHAR
STARTCHAR 0314
ENCODING 788
SWIDTH 0 0
DWIDTH 0 0
BBX 3 6 -8 14
BITMAP
E0
E0
E0
C0
E0
60
ENDCHAR
STARTCHAR 0315
ENCODING 789
SWIDTH 0 0
DWIDTH 0 0
BBX 4 4 -8 14
BITMAP
F0
E0
E0
C0
ENDCHAR
STARTCHAR 0316
ENCODING 790
SWIDTH 0 0
DWIDTH 0 0
BBX 6 5 -10 -7
BITMAP
E0
70
38
18
0C
ENDCHAR
STARTCHAR 0317
ENCODING 791
SWIDTH 0 0
DWIDTH 0 0
BBX 6 5 -10 -7
BITMAP
1C
18
38
70
E0
ENDCHAR
STARTCHAR 0318
ENCODING 792
SWIDTH 0 0
DWIDTH 0 0
BBX 4 6 -9 -9
BITMAP
30
F0
F0
F0
30
30
ENDCHAR
STARTCHAR 0319
ENCODING 793
SWIDTH 0 0
DWIDTH 0 0
BBX 4 6 -8 -9
BITMAP
C0
F0
F0
F0
C0
C0
ENDCHAR
STARTCHAR 031A
ENCODING 794
SWIDTH 0 0
DWIDTH 0 0
BBX 6 7 -10 15
BITMAP
FC
FC
FC
0C
0C
0C
0C
ENDCHAR
STARTCHAR 031B
ENCODING 795
SWIDTH 0 0
DWIDTH 0 0
BBX 4 5 -9 8
BITMAP
10
10
90
F0
70
ENDCHAR
STARTCHAR 031C
ENCODING 796
SWIDTH 0 0
DWIDTH 0 0
BBX 3 5 -8 -6
BITMAP
60
E0
C0
E0
60
ENDCHAR
STARTCHAR 031D
ENCODING 797
SWIDTH 0 0
DWIDTH 0 0
BBX 6 4 -10 -7
BITMAP
30
30
FC
FC
ENDCHAR
STARTCHAR 031E
ENCODING 798
SWIDTH 0 0
DWIDTH 0 0
BBX 6 5 -10 -9
BITMAP
FC
FC
FC
30
30
ENDCHAR
STARTCHAR 031F
ENCODING 799
SWIDTH 0 0
DWIDTH 0 0
BBX 6 6 -10 -9
BITMAP
30
FC
FC
FC
30
30
ENDCHAR
STARTCHAR 0320
ENCODING 800
SWIDTH 0 0
DWIDTH 0 0
BBX 6 3 -10 -5
BITMAP
FC
FC
FC
ENDCHAR
STARTCHAR 0321
ENCODING 801
SWIDTH 0 0
DWIDTH 0 0
BBX 5 7 -7 -5
BITMAP
38
38
38
38
F8
F0
E0
ENDCHAR
STARTCHAR 0322
ENCODING 802
SWIDTH 0 0
DWIDTH 0 0
BBX 6 7 -12 -5
BITMAP
F0
F0
F0
70
7C
7C
3C
ENDCHAR
STARTCHAR 0323
ENCODING 803
SWIDTH 0 0
DWIDTH 0 0
BBX 3 3 -8 -5
BITMAP
E0
E0
E0
ENDCHAR
STARTCHAR 0324
ENCODING 804
SWIDTH 0 0
DWIDTH 0 0
BBX 7 3 -10 -5
BITMAP
CE
CE
CE
ENDCHAR
STARTCHAR 0325
ENCODING 805
SWIDTH 0 0
DWIDTH 0 0
BBX 5 5 -9 -6
BITMAP
70
F8
98
F8
70
ENDCHAR
STARTCHAR 0326
ENCODING 806
SWIDTH 0 0
DWIDTH 0 0
BBX 4 3 -9 -6
BITMAP
F0
E0
C0
ENDCHAR
STARTCHAR 0327
ENCODING 807
SWIDTH 0 0
DWIDTH 0 0
BBX 5 5 -9 -5
BITMAP
20
30
18
F0
F0
ENDCHAR
STARTCHAR 0328
ENCODING 808
SWIDTH 0 0
DWIDTH 0 0
BBX 5 5 -9 -5
BITMAP
60
C0
C0
F8
78
ENDCHAR
STARTCHAR 0329
ENCODING 809
SWIDTH 0 0
DWIDTH 0 0
BBX 2 5 -8 -7
BITMAP
C0
C0
C0
C0
C0
ENDCHAR
STARTCHAR 032A
ENCODING 810
SWIDTH 0 0
DWIDTH 0 0
BBX 7 5 -10 -7
BITMAP
FE
FE
FE
C6
C6
ENDCHAR
STARTCHAR 032B
ENCODING 811
SWIDTH 0 0
DWIDTH 0 0
BBX 9 4 -11 -6
BITMAP
8180
D980
FF00
7700
ENDCHAR
STARTCHAR 032C
ENCODING 812
SWIDTH 0 0
DWIDTH 0 0
BBX 8 5 -11 -5
BITMAP
C3
63
76
3E
1C
ENDCHAR
STARTCHAR 032D
ENCODING 813
SWIDTH 0 0
DWIDTH 0 0
BBX 8 5 -11 -5
BITMAP
1C
3C
3E
66
E3
ENDCHAR
STARTCHAR 032E
ENCODING 814
SWIDTH 0 0
DWIDTH 0 0
BBX 7 4 -10 -6
BITMAP
86
C6
FC
78
ENDCHAR
STARTCHAR 032F
ENCODING 815
SWIDTH 0 0
DWIDTH 0 0
BBX 7 3 -10 -5
BITMAP
78
FC
C6
ENDCHAR
STARTCHAR 0330
ENCODING 816
SWIDTH 0 0
DWIDTH 0 0
BBX 7 3 -10 -5
BITMAP
E2
FE
9C
ENDCHAR
STARTCHAR 0331
ENCODING 817
SWIDTH 0 0
DWIDTH 0 0
BBX 7 3 -10 -5
BITMAP
FE
FE
FE
ENDCHAR
STARTCHAR 0332
ENCODING 818
SWIDTH 0 0
DWIDTH 0 0
BBX 13 3 -13 -5
BITMAP
FFF8
FFF8
FFF8
ENDCHAR
STARTCHAR 0333
ENCODING 819
SWIDTH 0 0
DWIDTH 0 0
BBX 13 6 -13 -5
BITMAP
FFF8
FFF8
FFF8
FFF8
FFF8
FFF8
ENDCHAR
STARTCHAR 0334
ENCODING 820
SWIDTH 0 0
DWIDTH 0 0
BBX 11 4 -12 5
BITMAP
7820
FFE0
FFE0
83C0
ENDCHAR
STARTCHAR 0335
ENCODING 821
SWIDTH 0 0
DWIDTH 0 0
BBX 8 3 -11 5
BITMAP
FF
FF
FF
ENDCHAR
STARTCHAR 0336
ENCODING 822
SWIDTH 0 0
DWIDTH 0 0
BBX 13 3 -13 5
BITMAP
FFF8
FFF8
FFF8
ENDCHAR
STARTCHAR 0337
ENCODING 823
SWIDTH 0 0
DWIDTH 0 0
BBX 13 14 -13 -1
BITMAP
0038
0030
0060
00C0
01C0
0380
0700
0600
0C00
1800
3800
7000
E000
4000
ENDCHAR
STARTCHAR 0338
ENCODING 824
SWIDTH 0 0
DWIDTH 0 0
BBX 13 18 -13 -1
BITMAP
0010
0038
0070
0060
00E0
01C0
0180
0380
0700
0E00
0C00
1C00
3800
3000
7000
E000
C000
4000
ENDCHAR
STARTCHAR 0339
ENCODING 825
SWIDTH 0 0
DWIDTH 0 0
BBX 3 5 -8 -6
BITMAP
C0
C0
60
C0
C0
ENDCHAR
STARTCHAR 033A
ENCODING 826
SWIDTH 0 0
DWIDTH 0 0
BBX 7 5 -10 -6
BITMAP
C6
C6
C6
FE
FE
ENDCHAR
STARTCHAR 033B
ENCODING 827
SWIDTH 0 0
DWIDTH 0 0
BBX 6 7 -10 -9
BITMAP
FC
FC
C4
C4
C4
FC
FC
ENDCHAR
STARTCHAR 033C
ENCODING 828
SWIDTH 0 0
DWIDTH 0 0
BBX 9 3 -11 -5
BITMAP
7600
FF00
D980
ENDCHAR
STARTCHAR 033D
ENCODING 829
SWIDTH 0 0
DWIDTH 0 0
BBX 6 6 -10 13
BITMAP
48
EC
78
38
FC
48
ENDCHAR
STARTCHAR 033E
ENCODING 830
SWIDTH 0 0
DWIDTH 0 0
BBX 3 6 -8 14
BITMAP
60
C0
C0
60
60
C0
ENDCHAR
STARTCHAR 033F
ENCODING 831
SWIDTH 0 0
DWIDTH 0 0
BBX 13 3 -13 12
BITMAP
FFF8
FFF8
FFF8
ENDCHAR
STARTCHAR 0358
ENCODING 856
SWIDTH 0 0
DWIDTH 0 0
BBX 3 3 -3 15
BITMAP
E0
E0
E0
ENDCHAR
STARTCHAR 0361
ENCODING 865
SWIDTH 0 0
DWIDTH 0 0
BBX 19 3 -16 18
BITMAP
07FE00
7FFF80
E001E0
ENDCHAR
STARTCHAR 0384
ENCODING 900
SWIDTH 585 0
DWIDTH 13 0
BBX 6 5 5 14
BITMAP
1C
38
30
70
E0
ENDCHAR
STARTCHAR 0385
ENCODING 901
SWIDTH 585 0
DWIDTH 13 0
BBX 9 7 2 15
BITMAP
0380
0700
0600
0C00
F980
E180
E180
ENDCHAR
STARTCHAR 0386
ENCODING 902
SWIDTH 585 0
DWIDTH 13 0
BBX 14 19 -1 0
BITMAP
1C00
3800
33C0
67C0
C7C0
07E0
06E0
0EE0
0EE0
0E70
0E70
1C70
1FF0
1FF8
1FF8
3838
3838
383C
781C
ENDCHAR
STARTCHAR 0388
ENCODING 904
SWIDTH 585 0
DWIDTH 13 0
BBX 16 19 -4 0
BITMAP
1C00
1800
33FF
63FF
C3FF
0380
0380
0380
0380
03FE
03FE
03FE
0380
0380
0380
0380
03FF
03FF
03FF
ENDCHAR
STARTCHAR 0389
ENCODING 905
SWIDTH 585 0
DWIDTH 13 0
BBX 16 19 -4 0
BITMAP
1C00
3800
7787
6787
C787
0787
0787
0787
0787
07FF
07FF
07FF
0787
0787
0787
0787
0787
0787
0787
ENDCHAR
STARTCHAR 038A
ENCODING 906
SWIDTH 585 0
DWIDTH 13 0
BBX 16 19 -4 0
BITMAP
1E00
1C00
33FF
63FF
83FF
0070
0070
0070
0070
0070
0070
0070
0070
0070
0070
0070
03FF
03FF
03FF
ENDCHAR
STARTCHAR 038C
ENCODING 908
SWIDTH 585 0
DWIDTH 13 0
BBX 14 19 -2 0
BITMAP
1C00
3BE0
77F0
EFF8
0E3C
0E1C
1E1C
1C1C
1C1C
1C1C
1C1C
1C1C
1C1C
1E1C
0E1C
0E3C
0FF8
07F0
03E0
ENDCHAR
STARTCHAR 038E
ENCODING 910
SWIDTH 585 0
DWIDTH 13 0
BBX 19 18 -6 0
BITMAP
1C0000
3BC0C0
73E3E0
E3F3E0
0077E0
003760
003E00
001E00
001E00
001C00
001C00
001C00
001C00
001C00
001C00
001C00
001C00
001C00
ENDCHAR
STARTCHAR 038F
ENCODING 911
SWIDTH 585 0
DWIDTH 13 0
BBX 13 19 -1 0
BITMAP
1C00
3800
67C0
CFE0
1FF0
1C78
1C38
3C38
3838
3838
3838
3838
3C38
1C38
1C70
0E70
0EE0
3EF8
3EF8
ENDCHAR
STARTCHAR 0390
ENCODING 912
SWIDTH 585 0
DWIDTH 13 0
BBX 9 21 2 0
BITMAP
0380
0700
0C00
F980
E180
E180
0000
0000
7C00
7C00
7C00
1C00
1C00
1C00
1C00
1C00
1C00
1C00
1F80
0F80
0780
ENDCHAR
STARTCHAR 0391
ENCODING 913
SWIDTH 585 0
DWIDTH 13 0
BBX 13 17 0 0
BITMAP
0780
0F80
0F80
0FC0
0DC0
1DC0
1DC0
1CE0
1CE0
38E0
3FE0
3FF0
3FF0
7070
7070
7078
F038
ENDCHAR
STARTCHAR 0392
ENCODING 914
SWIDTH 585 0
DWIDTH 13 0
BBX 12 17 1 0
BITMAP
FF80
FFC0
FFE0
E0E0
E0E0
E0E0
FFC0
FF80
FFC0
E0E0
E0E0
E0F0
E0F0
E0E0
FFE0
FFE0
FF80
ENDCHAR
STARTCHAR 0393
ENCODING 915
SWIDTH 585 0
DWIDTH 13 0
BBX 10 17 2 0
BITMAP
FFC0
FFC0
FFC0
E000
E000
E000
E000
E000
E000
E000
E000
E000
E000
E000
E000
E000
E000
ENDCHAR
STARTCHAR 0394
ENCODING 916
SWIDTH 585 0
DWIDTH 13 0
BBX 13 17 0 0
BITMAP
0780
0F80
0F80
0FC0
0DC0
1DC0
1DC0
1CE0
18E0
38E0
38E0
3870
3870
7070
7FF0
7FF8
FFF8
ENDCHAR
STARTCHAR 0395
ENCODING 917
SWIDTH 585 0
DWIDTH 13 0
BBX 10 17 2 0
BITMAP
FFC0
FFC0
FFC0
E000
E000
E000
E000
FF80
FF80
FF80
E000
E000
E000
E000
FFC0
FFC0
FFC0
ENDCHAR
STARTCHAR 0396
ENCODING 918
SWIDTH 585 0
DWIDTH 13 0
BBX 12 17 1 0
BITMAP
FFE0
FFE0
FFE0
01E0
03C0
03C0
0780
0700
0F00
1E00
1C00
3C00
7800
7000
FFF0
FFF0
FFF0
ENDCHAR
STARTCHAR 0397
ENCODING 919
SWIDTH 585 0
DWIDTH 13 0
BBX 11 17 1 0
BITMAP
F0E0
F0E0
F0E0
F0E0
F0E0
F0E0
F0E0
FFE0
FFE0
FFE0
F0E0
F0E0
F0E0
F0E0
F0E0
F0E0
F0E0
ENDCHAR
STARTCHAR 0398
ENCODING 920
SWIDTH 585 0
DWIDTH 13 0
BBX 13 16 0 0
BITMAP
0F80
3FE0
3FF0
7870
7038
E038
EFB8
EFB8
EFB8
E038
E038
7038
7078
7FF0
3FE0
0FC0
ENDCHAR
STARTCHAR 0399
ENCODING 921
SWIDTH 585 0
DWIDTH 13 0
BBX 10 17 2 0
BITMAP
FFC0
FFC0
FFC0
1C00
1C00
1C00
1C00
1C00
1C00
1C00
1C00
1C00
1C00
1C00
FFC0
FFC0
FFC0
ENDCHAR
STARTCHAR 039A
ENCODING 922
SWIDTH 585 0
DWIDTH 13 0
BBX 12 17 1 0
BITMAP
E0F0
E1E0
E1C0
E380
E780
EF00
EE00
FE00
FF00
FF00
F780
E380
E3C0
E1C0
E1E0
E0F0
E0F0
ENDCHAR
STARTCHAR 039B
ENCODING 923
SWIDTH 585 0
DWIDTH 13 0
BBX 13 17 0 0
BITMAP
0780
0F80
0F80
0FC0
0DC0
1DC0
1DC0
1CE0
18E0
38E0
38E0
3870
3870
7070
7070
7078
F038
ENDCHAR
STARTCHAR 039C
ENCODING 924
SWIDTH 585 0
DWIDTH 13 0
BBX 11 17 1 0
BITMAP
F1E0
F1E0
F1E0
F9E0
FB60
FB60
FB60
EF60
EF60
EE60
EE60
E060
E060
E060
E060
E060
E060
ENDCHAR
STARTCHAR 039D
ENCODING 925
SWIDTH 585 0
DWIDTH 13 0
BBX 11 17 1 0
BITMAP
F0E0
F0E0
F8E0
F8E0
F8E0
FCE0
ECE0
ECE0
E6E0
E6E0
E7E0
E3E0
E3E0
E3E0
E1E0
E1E0
E1E0
ENDCHAR
STARTCHAR 039E
ENCODING 926
SWIDTH 585 0
DWIDTH 13 0
BBX 11 17 1 0
BITMAP
FFE0
FFE0
FFE0
0000
0000
0000
0000
1F00
1F00
1F00
0000
0000
0000
0000
FFE0
FFE0
FFE0
ENDCHAR
STARTCHAR 039F
ENCODING 927
SWIDTH 585 0
DWIDTH 13 0
BBX 11 18 1 0
BITMAP
1F00
3F80
7FC0
71E0
70E0
F0E0
E0E0
E0E0
E0E0
E0E0
E0E0
E0E0
F0E0
70E0
71E0
7FC0
3F80
1F00
ENDCHAR
STARTCHAR 03A0
ENCODING 928
SWIDTH 585 0
DWIDTH 13 0
BBX 11 17 1 0
BITMAP
FFE0
FFE0
FFE0
F0E0
F0E0
F0E0
F0E0
F0E0
F0E0
F0E0
F0E0
F0E0
F0E0
F0E0
F0E0
F0E0
F0E0
ENDCHAR
STARTCHAR 03A1
ENCODING 929
SWIDTH 585 0
DWIDTH 13 0
BBX 10 17 2 0
BITMAP
FF00
FF80
FFC0
E1C0
E1C0
E1C0
E1C0
E3C0
FFC0
FF80
FC00
E000
E000
E000
E000
E000
E000
ENDCHAR
STARTCHAR 03A3
ENCODING 931
SWIDTH 585 0
DWIDTH 13 0
BBX 11 17 1 0
BITMAP
FFE0
FFE0
FFE0
7000
7800
3C00
1E00
0E00
0F00
0E00
1E00
3C00
7800
7000
FFE0
FFE0
FFE0
ENDCHAR
STARTCHAR 03A4
ENCODING 932
SWIDTH 585 0
DWIDTH 13 0
BBX 11 17 1 0
BITMAP
FFE0
FFE0
FFE0
0E00
0E00
0E00
0E00
0E00
0E00
0E00
0E00
0E00
0E00
0E00
0E00
0E00
0E00
ENDCHAR
STARTCHAR 03A5
ENCODING 933
SWIDTH 585 0
DWIDTH 13 0
BBX 13 17 0 0
BITMAP
F030
F8F8
FCF8
1DF8
0DF8
0F80
0F80
0780
0700
0700
0700
0700
0700
0700
0700
0700
0700
ENDCHAR
STARTCHAR 03A6
ENCODING 934
SWIDTH 585 0
DWIDTH 13 0
BBX 11 17 1 0
BITMAP
1F80
1F80
1F80
0E00
3FC0
7FE0
EEE0
EEE0
EE60
EEE0
EEE0
7FE0
3FC0
0E00
1F80
1F80
1F80
ENDCHAR
STARTCHAR 03A7
ENCODING 935
SWIDTH 585 0
DWIDTH 13 0
BBX 13 17 0 0
BITMAP
F078
7870
38F0
3CE0
1DC0
1FC0
0F80
0780
0700
0F80
0FC0
1FC0
1DE0
3CE0
38F0
7070
F038
ENDCHAR
STARTCHAR 03A8
ENCODING 936
SWIDTH 585 0
DWIDTH 13 0
BBX 12 17 1 0
BITMAP
EEF0
EEF0
EEF0
EEF0
EEF0
EEE0
EEE0
FEE0
FEE0
7FE0
7FC0
3F80
0E00
0E00
1F80
1F80
1F80
ENDCHAR
STARTCHAR 03A9
ENCODING 937
SWIDTH 585 0
DWIDTH 13 0
BBX 11 17 1 0
BITMAP
1F00
3F80
7FC0
71E0
F0E0
F0E0
E0E0
E0E0
E0E0
E0E0
F0E0
70E0
71C0
3BC0
FBE0
FBE0
FBE0
ENDCHAR
STARTCHAR 03AA
ENCODING 938
SWIDTH 585 0
DWIDTH 13 0
BBX 10 21 2 0
BITMAP
7300
7300
7300
0000
FFC0
FFC0
FFC0
1C00
1C00
1C00
1C00
1C00
1C00
1C00
1C00
1C00
1C00
1C00
FFC0
FFC0
FFC0
ENDCHAR
STARTCHAR 03AB
ENCODING 939
SWIDTH 585 0
DWIDTH 13 0
BBX 13 21 0 0
BITMAP
1DC0
1DC0
1DC0
0000
F030
F8F8
FCF8
1DF8
0DF8
0F80
0F80
0780
0700
0700
0700
0700
0700
0700
0700
0700
0700
ENDCHAR
STARTCHAR 03AC
ENCODING 940
SWIDTH 585 0
DWIDTH 13 0
BBX 12 19 1 0
BITMAP
01C0
0380
0700
0E00
0000
0000
3EE0
7FE0
FFE0
F3C0
E3C0
E3C0
E180
E3C0
E3C0
E3C0
F7F0
7FF0
3EF0
ENDCHAR
STARTCHAR 03AD
ENCODING 941
SWIDTH 585 0
DWIDTH 13 0
BBX 9 19 2 0
BITMAP
0380
0700
0E00
1C00
0000
0000
3F00
7F80
FF80
E000
E000
7E00
3E00
FE00
E000
E000
FF80
FF80
3F80
ENDCHAR
STARTCHAR 03AE
ENCODING 942
SWIDTH 585 0
DWIDTH 13 0
BBX 10 24 2 -5
BITMAP
0380
0700
0E00
0C00
1800
0000
EF00
FF80
FF80
E3C0
E3C0
E3C0
E3C0
E3C0
E3C0
E3C0
E3C0
E3C0
E3C0
03C0
03C0
03C0
03C0
03C0
ENDCHAR
STARTCHAR 03AF
ENCODING 943
SWIDTH 585 0
DWIDTH 13 0
BBX 8 19 3 0
BITMAP
07
0E
1C
18
30
00
F8
F8
F8
38
38
38
38
38
38
38
3F
1F
0F
ENDCHAR
STARTCHAR 03B0
ENCODING 944
SWIDTH 585 0
DWIDTH 13 0
BBX 12 21 1 0
BITMAP
01C0
0380
0600
7CC0
70C0
70C0
0000
0000
F9C0
F8E0
F8E0
38E0
38E0
38F0
38F0
38E0
38E0
38E0
3FE0
3FC0
1F00
ENDCHAR
STARTCHAR 03B1
ENCODING 945
SWIDTH 585 0
DWIDTH 13 0
BBX 12 13 1 0
BITMAP
3EE0
7FE0
FFE0
F3C0
E3C0
E3C0
E180
E3C0
E3C0
E3C0
F7F0
7FF0
3EF0
ENDCHAR
STARTCHAR 03B2
ENCODING 946
SWIDTH 585 0
DWIDTH 13 0
BBX 11 23 1 -5
BITMAP
1F00
7F80
7FC0
71C0
F1C0
F1C0
F1C0
F3C0
F780
F7C0
F7E0
F0E0
F0E0
F0E0
F0E0
FFE0
FFC0
FF80
F000
F000
F000
F000
F000
ENDCHAR
STARTCHAR 03B3
ENCODING 947
SWIDTH 585 0
DWIDTH 13 0
BBX 12 18 1 -5
BITMAP
C0F0
F0E0
F0E0
79E0
39C0
39C0
3BC0
1F80
1F80
1F80
1F00
0F00
0F00
0E00
0E00
0E00
0E00
0E00
ENDCHAR
STARTCHAR 03B4
ENCODING 948
SWIDTH 585 0
DWIDTH 13 0
BBX 11 18 1 0
BITMAP
1F80
3FC0
7FC0
7000
7000
3F00
3F80
7FC0
71E0
F0E0
E0E0
E0E0
E0E0
F0E0
71E0
7FC0
3FC0
1F00
ENDCHAR
STARTCHAR 03B5
ENCODING 949
SWIDTH 585 0
DWIDTH 13 0
BBX 9 13 2 0
BITMAP
3F00
7F80
FF80
E000
E000
7E00
3E00
FE00
E000
E000
FF80
FF80
3F80
ENDCHAR
STARTCHAR 03B6
ENCODING 950
SWIDTH 585 0
DWIDTH 13 0
BBX 10 23 2 -5
BITMAP
FFC0
FFC0
FFC0
0F00
1E00
3C00
7800
7000
F000
E000
E000
E000
E000
E000
F000
7E00
3F80
1F80
01C0
00C0
03C0
0380
0300
ENDCHAR
STARTCHAR 03B7
ENCODING 951
SWIDTH 585 0
DWIDTH 13 0
BBX 10 18 2 -5
BITMAP
EF00
FF80
FF80
E3C0
E3C0
E3C0
E3C0
E3C0
E3C0
E3C0
E3C0
E3C0
E3C0
03C0
03C0
03C0
03C0
03C0
ENDCHAR
STARTCHAR 03B8
ENCODING 952
SWIDTH 585 0
DWIDTH 13 0
BBX 11 18 1 0
BITMAP
0F00
3F80
3FC0
71C0
70E0
F0E0
E0E0
FFE0
FFE0
FFE0
E0E0
E0E0
F0E0
70E0
71C0
3FC0
3F80
0F00
ENDCHAR
STARTCHAR 03B9
ENCODING 953
SWIDTH 585 0
DWIDTH 13 0
BBX 8 13 3 0
BITMAP
F8
F8
F8
38
38
38
38
38
38
38
3F
1F
0F
ENDCHAR
STARTCHAR 03BA
ENCODING 954
SWIDTH 585 0
DWIDTH 13 0
BBX 11 13 2 0
BITMAP
E3E0
E380
E700
EE00
FE00
FC00
FE00
FF00
E700
E380
E380
E1C0
E1E0
ENDCHAR
STARTCHAR 03BB
ENCODING 955
SWIDTH 585 0
DWIDTH 13 0
BBX 12 18 1 0
BITMAP
7800
7C00
7C00
0E00
0E00
0F00
0F00
0F00
1F80
1F80
1F80
3F80
39C0
39C0
71C0
70E0
F0E0
E0F0
ENDCHAR
STARTCHAR 03BC
ENCODING 956
SWIDTH 585 0
DWIDTH 13 0
BBX 11 18 2 -5
BITMAP
E1C0
E1C0
E1C0
E1C0
E1C0
E1C0
E1C0
E1C0
E3C0
E3C0
FFE0
FFE0
FCE0
E000
E000
E000
E000
E000
ENDCHAR
STARTCHAR 03BD
ENCODING 957
SWIDTH 585 0
DWIDTH 13 0
BBX 11 13 1 0
BITMAP
E3C0
E1E0
E0E0
F0E0
70E0
70E0
70E0
79E0
3BC0
3FC0
3F80
3F00
1E00
ENDCHAR
STARTCHAR 03BE
ENCODING 958
SWIDTH 585 0
DWIDTH 13 0
BBX 10 23 2 -5
BITMAP
FF80
FF80
FF80
7800
F000
E000
F000
7800
3F00
1F00
7F00
F000
E000
E000
E000
FC00
7F80
3F80
01C0
01C0
0380
0380
0300
ENDCHAR
STARTCHAR 03BF
ENCODING 959
SWIDTH 585 0
DWIDTH 13 0
BBX 11 13 1 0
BITMAP
1F00
3FC0
7FC0
71E0
F0E0
E0E0
E0E0
E0E0
F0E0
71E0
7FC0
3FC0
1F00
ENDCHAR
STARTCHAR 03C0
ENCODING 960
SWIDTH 585 0
DWIDTH 13 0
BBX 13 13 0 0
BITMAP
FFF8
FFF8
FFF8
38E0
38E0
38E0
38E0
38E0
38E0
38E0
38E0
38F8
3878
ENDCHAR
STARTCHAR 03C1
ENCODING 961
SWIDTH 585 0
DWIDTH 13 0
BBX 10 18 2 -5
BITMAP
1F00
7F80
FFC0
F1C0
E1C0
E1C0
E1C0
E1C0
E1C0
F1C0
FFC0
FF80
EF00
E000
E000
E000
E000
E000
ENDCHAR
STARTCHAR 03C2
ENCODING 962
SWIDTH 585 0
DWIDTH 13 0
BBX 10 18 2 -5
BITMAP
1F80
3FC0
7FC0
F040
E000
E000
E000
E000
E000
F000
7C00
7F80
1F80
01C0
01C0
0380
0380
0300
ENDCHAR
STARTCHAR 03C3
ENCODING 963
SWIDTH 585 0
DWIDTH 13 0
BBX 11 13 1 0
BITMAP
1FE0
7FE0
7FE0
F3C0
E1E0
E0E0
E0E0
E0E0
E0E0
F1E0
7FC0
3F80
1F00
ENDCHAR
STARTCHAR 03C4
ENCODING 964
SWIDTH 585 0
DWIDTH 13 0
BBX 11 13 1 0
BITMAP
FFE0
FFE0
FFE0
0E00
0E00
0E00
0E00
0E00
0E00
0E00
0FC0
07C0
03C0
ENDCHAR
STARTCHAR 03C5
ENCODING 965
SWIDTH 585 0
DWIDTH 13 0
BBX 12 13 1 0
BITMAP
F9C0
F8E0
F8E0
38E0
38E0
38F0
38F0
38E0
38E0
38E0
3FE0
3FC0
1F00
ENDCHAR
STARTCHAR 03C6
ENCODING 966
SWIDTH 585 0
DWIDTH 13 0
BBX 12 18 1 -5
BITMAP
3380
77C0
F7E0
EFE0
EE70
EE70
EE70
EE70
EEF0
EEE0
FFE0
7FC0
3F80
0E00
0E00
0E00
0E00
0E00
ENDCHAR
STARTCHAR 03C7
ENCODING 967
SWIDTH 585 0
DWIDTH 13 0
BBX 12 18 1 -5
BITMAP
E0E0
F1E0
F1C0
39C0
3B80
1F80
1F00
1F00
0F00
0E00
1F00
1F00
3F80
3B80
3BC0
71F0
70F0
E070
ENDCHAR
STARTCHAR 03C8
ENCODING 968
SWIDTH 585 0
DWIDTH 13 0
BBX 12 18 1 -5
BITMAP
EEF0
EEF0
EEF0
EEF0
EEF0
EEF0
EEF0
EEF0
EEE0
EEE0
7FE0
7FC0
3F80
0E00
0E00
0E00
0E00
0E00
ENDCHAR
STARTCHAR 03C9
ENCODING 969
SWIDTH 585 0
DWIDTH 13 0
BBX 12 13 1 0
BITMAP
70E0
E0E0
E0E0
E0E0
E070
EE70
EE70
EE70
EE70
EEE0
FFE0
7FE0
79C0
ENDCHAR
STARTCHAR 03CA
ENCODING 970
SWIDTH 585 0
DWIDTH 13 0
BBX 8 18 3 0
BITMAP
E6
E6
E6
00
00
F8
F8
F8
38
38
38
38
38
38
38
3F
1F
0F
ENDCHAR
STARTCHAR 03CB
ENCODING 971
SWIDTH 585 0
DWIDTH 13 0
BBX 12 18 1 0
BITMAP
3980
3980
3980
0000
0000
F9C0
F8E0
F8E0
38E0
38E0
38F0
38F0
38E0
38E0
38E0
3FE0
3FC0
1F00
ENDCHAR
STARTCHAR 03CC
ENCODING 972
SWIDTH 585 0
DWIDTH 13 0
BBX 11 20 1 0
BITMAP
01C0
0380
0300
0700
0E00
0000
0000
1F00
3FC0
7FC0
71E0
F0E0
E0E0
E0E0
E0E0
F0E0
71E0
7FC0
3FC0
1F00
ENDCHAR
STARTCHAR 03CD
ENCODING 973
SWIDTH 585 0
DWIDTH 13 0
BBX 12 19 1 0
BITMAP
01C0
0380
0300
0600
0C00
0000
F9C0
F8E0
F8E0
38E0
38E0
38F0
38F0
38E0
38E0
38E0
3FE0
3FC0
1F00
ENDCHAR
STARTCHAR 03CE
ENCODING 974
SWIDTH 585 0
DWIDTH 13 0
BBX 12 19 1 0
BITMAP
01C0
0380
0700
0600
0C00
0000
70E0
E0E0
E0E0
E0E0
E070
EE70
EE70
EE70
EE70
EEE0
FFE0
7FE0
79C0
ENDCHAR
STARTCHAR 03F4
ENCODING 1012
SWIDTH 585 0
DWIDTH 13 0
BBX 11 18 1 0
BITMAP
1F00
3F80
7FC0
71E0
70E0
F0E0
E0E0
FFE0
FFE0
FFE0
E0E0
E0E0
F0E0
F0E0
71E0
7FC0
3F80
1F00
ENDCHAR
STARTCHAR 0400
ENCODING 1024
SWIDTH 585 0
DWIDTH 13 0
BBX 10 21 2 0
BITMAP
7800
1800
0E00
0000
FFC0
FFC0
FFC0
E000
E000
E000
E000
FF80
FF80
FF80
E000
E000
E000
E000
FFC0
FFC0
FFC0
ENDCHAR
STARTCHAR 0401
ENCODING 1025
SWIDTH 585 0
DWIDTH 13 0
BBX 10 21 2 0
BITMAP
7300
7300
3300
0000
FFC0
FFC0
FFC0
E000
E000
E000
E000
FF80
FF80
FF80
E000
E000
E000
E000
FFC0
FFC0
FFC0
ENDCHAR
STARTCHAR 0402
ENCODING 1026
SWIDTH 585 0
DWIDTH 13 0
BBX 13 23 0 -5
BITMAP
FFC0
FFC0
FFC0
3800
3800
3800
3800
3BE0
3FF0
3FF0
3878
3838
3838
3838
3838
3838
3838
3838
0038
0078
03F0
03F0
03E0
ENDCHAR
STARTCHAR 0403
ENCODING 1027
SWIDTH 585 0
DWIDTH 13 0
BBX 10 21 2 0
BITMAP
0780
0E00
1C00
0000
FFC0
FFC0
FFC0
E000
E000
E000
E000
E000
E000
E000
E000
E000
E000
E000
E000
E000
E000
ENDCHAR
STARTCHAR 0404
ENCODING 1028
SWIDTH 585 0
DWIDTH 13 0
BBX 10 17 1 0
BITMAP
0FC0
1FC0
3FC0
7840
7000
7000
F000
FFC0
FFC0
FFC0
F000
7000
7000
7840
3FC0
1FC0
0FC0
ENDCHAR
STARTCHAR 0405
ENCODING 1029
SWIDTH 585 0
DWIDTH 13 0
BBX 11 17 1 0
BITMAP
1F80
3FC0
7FC0
7040
F000
F000
7C00
7F00
3FC0
07C0
01E0
00E0
00E0
C1E0
FFE0
FFC0
3F00
ENDCHAR
STARTCHAR 0406
ENCODING 1030
SWIDTH 585 0
DWIDTH 13 0
BBX 10 17 2 0
BITMAP
FFC0
FFC0
FFC0
1C00
1C00
1C00
1C00
1C00
1C00
1C00
1C00
1C00
1C00
1C00
FFC0
FFC0
FFC0
ENDCHAR
STARTCHAR 0407
ENCODING 1031
SWIDTH 585 0
DWIDTH 13 0
BBX 10 21 2 0
BITMAP
7300
7300
7300
0000
FFC0
FFC0
FFC0
1C00
1C00
1C00
1C00
1C00
1C00
1C00
1C00
1C00
1C00
1C00
FFC0
FFC0
FFC0
ENDCHAR
STARTCHAR 0408
ENCODING 1032
SWIDTH 585 0
DWIDTH 13 0
BBX 10 17 1 0
BITMAP
1FC0
1FC0
1FC0
01C0
01C0
01C0
01C0
01C0
01C0
01C0
01C0
01C0
81C0
C3C0
FF80
FF80
7F00
ENDCHAR
STARTCHAR 0409
ENCODING 1033
SWIDTH 585 0
DWIDTH 13 0
BBX 13 17 0 0
BITMAP
3F80
3F80
3F80
3B80
3B80
3B80
3BC0
3BF0
3BF8
3BB8
3B98
3B98
3B98
3BB8
F3F8
F3F0
E3E0
ENDCHAR
STARTCHAR 040A
ENCODING 1034
SWIDTH 585 0
DWIDTH 13 0
BBX 13 17 0 0
BITMAP
E380
E380
E380
E380
E380
E380
E380
FFE0
FFF0
FFF8
E3B8
E398
E398
E3B8
E3F8
E3F0
E3E0
ENDCHAR
STARTCHAR 040B
ENCODING 1035
SWIDTH 585 0
DWIDTH 13 0
BBX 13 18 0 0
BITMAP
FFC0
FFC0
FFC0
3800
3800
3800
3800
3BE0
3FF0
3FF8
3878
3838
3838
3838
3838
3838
3838
3838
ENDCHAR
STARTCHAR 040C
ENCODING 1036
SWIDTH 585 0
DWIDTH 13 0
BBX 12 21 1 0
BITMAP
03C0
0700
0E00
0000
E0F0
E1E0
E1C0
E380
E780
EF00
EE00
FE00
FF00
FF00
F780
E380
E3C0
E1C0
E1E0
E0E0
E0F0
ENDCHAR
STARTCHAR 040D
ENCODING 1037
SWIDTH 585 0
DWIDTH 13 0
BBX 11 21 1 0
BITMAP
3C00
0E00
0700
0000
E1E0
E1E0
E1E0
E3E0
E3E0
E3E0
E7E0
E6E0
E6E0
ECE0
ECE0
FCE0
F8E0
F8E0
F8E0
F0E0
F0E0
ENDCHAR
STARTCHAR 040E
ENCODING 1038
SWIDTH 585 0
DWIDTH 13 0
BBX 13 21 0 0
BITMAP
1840
0FC0
0780
0000
F038
7078
3870
3870
1CE0
1CE0
0FE0
0FC0
07C0
07C0
0380
0780
0700
0700
3F00
3E00
3C00
ENDCHAR
STARTCHAR 040F
ENCODING 1039
SWIDTH 585 0
DWIDTH 13 0
BBX 11 20 1 -3
BITMAP
F0E0
F0E0
F0E0
F0E0
F0E0
F0E0
F0E0
F0E0
F0E0
F0E0
F0E0
F0E0
F0E0
F0E0
FFE0
FFE0
FFE0
0E00
0E00
0E00
ENDCHAR
STARTCHAR 0410
ENCODING 1040
SWIDTH 585 0
DWIDTH 13 0
BBX 13 17 0 0
BITMAP
0780
0F80
0F80
0FC0
0DC0
1DC0
1DC0
1CE0
1CE0
38E0
3FE0
3FF0
3FF0
7070
7070
7078
F038
ENDCHAR
STARTCHAR 0411
ENCODING 1041
SWIDTH 585 0
DWIDTH 13 0
BBX 10 17 2 0
BITMAP
FFC0
FFC0
FFC0
E000
E000
E000
FC00
FF80
FFC0
E3C0
E1C0
E1C0
E1C0
E1C0
FFC0
FF80
FF00
ENDCHAR
STARTCHAR 0412
ENCODING 1042
SWIDTH 585 0
DWIDTH 13 0
BBX 12 17 1 0
BITMAP
FF80
FFC0
FFE0
E0E0
E0E0
E0E0
FFC0
FF80
FFC0
E0E0
E0E0
E0F0
E0F0
E0E0
FFE0
FFE0
FF80
ENDCHAR
STARTCHAR 0413
ENCODING 1043
SWIDTH 585 0
DWIDTH 13 0
BBX 10 17 2 0
BITMAP
FFC0
FFC0
FFC0
E000
E000
E000
E000
E000
E000
E000
E000
E000
E000
E000
E000
E000
E000
ENDCHAR
STARTCHAR 0414
ENCODING 1044
SWIDTH 585 0
DWIDTH 13 0
BBX 13 21 0 -4
BITMAP
3FE0
3FE0
3FE0
38E0
38E0
38E0
38E0
38E0
38E0
38E0
38E0
38E0
38E0
38E0
FFF8
FFF8
FFF8
E038
E038
E038
E038
ENDCHAR
STARTCHAR 0415
ENCODING 1045
SWIDTH 585 0
DWIDTH 13 0
BBX 10 17 2 0
BITMAP
FFC0
FFC0
FFC0
E000
E000
E000
E000
FF80
FF80
FF80
E000
E000
E000
E000
FFC0
FFC0
FFC0
ENDCHAR
STARTCHAR 0416
ENCODING 1046
SWIDTH 585 0
DWIDTH 13 0
BBX 13 17 0 0
BITMAP
E738
7738
7770
3770
3F60
3FE0
1FE0
1FE0
3FE0
3FE0
3FE0
37F0
7770
7730
7738
6738
E738
ENDCHAR
STARTCHAR 0417
ENCODING 1047
SWIDTH 585 0
DWIDTH 13 0
BBX 11 17 1 0
BITMAP
3F00
7FC0
7FC0
81E0
01E0
01C0
1FC0
1F00
1F80
01C0
00E0
00E0
00E0
81E0
FFC0
FFC0
7F00
ENDCHAR
STARTCHAR 0418
ENCODING 1048
SWIDTH 585 0
DWIDTH 13 0
BBX 11 17 1 0
BITMAP
E1E0
E1E0
E1E0
E3E0
E3E0
E3E0
E7E0
E6E0
E6E0
ECE0
ECE0
FCE0
F8E0
F8E0
F8E0
F0E0
F0E0
ENDCHAR
STARTCHAR 0419
ENCODING 1049
SWIDTH 585 0
DWIDTH 13 0
BBX 11 21 1 0
BITMAP
3180
1F80
0F00
0000
E1E0
E1E0
E1E0
E3E0
E3E0
E3E0
E7E0
E6E0
E6E0
ECE0
ECE0
FCE0
F8E0
F8E0
F8E0
F0E0
F0E0
ENDCHAR
STARTCHAR 041A
ENCODING 1050
SWIDTH 585 0
DWIDTH 13 0
BBX 12 17 1 0
BITMAP
E0F0
E1E0
E1C0
E380
E780
EF00
EE00
FE00
FF00
FF00
F780
E380
E3C0
E1C0
E1E0
E0E0
E0F0
ENDCHAR
STARTCHAR 041B
ENCODING 1051
SWIDTH 585 0
DWIDTH 13 0
BBX 12 17 0 0
BITMAP
1FF0
1FF0
1FF0
1C70
1C70
1C70
1C70
1C70
1C70
1C70
1C70
1C70
3C70
3870
F870
F870
F070
ENDCHAR
STARTCHAR 041C
ENCODING 1052
SWIDTH 585 0
DWIDTH 13 0
BBX 11 17 1 0
BITMAP
F1E0
F1E0
F1E0
F9E0
FB60
FB60
FB60
EF60
EF60
EE60
EE60
E060
E060
E060
E060
E060
E060
ENDCHAR
STARTCHAR 041D
ENCODING 1053
SWIDTH 585 0
DWIDTH 13 0
BBX 11 17 1 0
BITMAP
F0E0
F0E0
F0E0
F0E0
F0E0
F0E0
F0E0
FFE0
FFE0
FFE0
F0E0
F0E0
F0E0
F0E0
F0E0
F0E0
F0E0
ENDCHAR
STARTCHAR 041E
ENCODING 1054
SWIDTH 585 0
DWIDTH 13 0
BBX 11 17 1 0
BITMAP
1F00
3F80
7FC0
71E0
F0E0
F0E0
E0E0
E0E0
E0E0
E0E0
E0E0
F0E0
F0E0
71E0
7FC0
3F80
1F00
ENDCHAR
STARTCHAR 041F
ENCODING 1055
SWIDTH 585 0
DWIDTH 13 0
BBX 11 17 1 0
BITMAP
FFE0
FFE0
FFE0
F0E0
F0E0
F0E0
F0E0
F0E0
F0E0
F0E0
F0E0
F0E0
F0E0
F0E0
F0E0
F0E0
F0E0
ENDCHAR
STARTCHAR 0420
ENCODING 1056
SWIDTH 585 0
DWIDTH 13 0
BBX 10 17 2 0
BITMAP
FF00
FF80
FFC0
E1C0
E1C0
E1C0
E1C0
E3C0
FFC0
FF80
FC00
E000
E000
E000
E000
E000
E000
ENDCHAR
STARTCHAR 0421
ENCODING 1057
SWIDTH 585 0
DWIDTH 13 0
BBX 10 17 2 0
BITMAP
1F80
3FC0
7FC0
F040
F000
E000
E000
E000
E000
E000
E000
E000
F000
F040
7FC0
3FC0
1F80
ENDCHAR
STARTCHAR 0422
ENCODING 1058
SWIDTH 585 0
DWIDTH 13 0
BBX 11 17 1 0
BITMAP
FFE0
FFE0
FFE0
0E00
0E00
0E00
0E00
0E00
0E00
0E00
0E00
0E00
0E00
0E00
0E00
0E00
0E00
ENDCHAR
STARTCHAR 0423
ENCODING 1059
SWIDTH 585 0
DWIDTH 13 0
BBX 13 17 0 0
BITMAP
F038
7078
3870
3870
1CE0
1CE0
0FE0
0FC0
07C0
07C0
0380
0780
0700
0700
3F00
3E00
3C00
ENDCHAR
STARTCHAR 0424
ENCODING 1060
SWIDTH 585 0
DWIDTH 13 0
BBX 13 17 0 0
BITMAP
0700
0F80
1FE0
3FF0
7770
7738
6738
E738
E738
E738
6738
7738
7FF0
3FE0
1FC0
0700
0700
ENDCHAR
STARTCHAR 0425
ENCODING 1061
SWIDTH 585 0
DWIDTH 13 0
BBX 13 17 0 0
BITMAP
F078
7870
38F0
3CE0
1DC0
1FC0
0F80
0780
0700
0F80
0FC0
1FC0
1DE0
3CE0
38F0
7070
F038
ENDCHAR
STARTCHAR 0426
ENCODING 1062
SWIDTH 585 0
DWIDTH 13 0
BBX 12 21 1 -4
BITMAP
F0E0
F0E0
F0E0
F0E0
F0E0
F0E0
F0E0
F0E0
F0E0
F0E0
F0E0
F0E0
F0E0
F0E0
FFF0
FFF0
FFF0
0070
0070
0070
0070
ENDCHAR
STARTCHAR 0427
ENCODING 1063
SWIDTH 585 0
DWIDTH 13 0
BBX 11 18 1 0
BITMAP
E0E0
E0E0
E0E0
E0E0
E0E0
E0E0
E0E0
F1E0
FFE0
7FE0
3EE0
00E0
00E0
00E0
00E0
00E0
00E0
00E0
ENDCHAR
STARTCHAR 0428
ENCODING 1064
SWIDTH 585 0
DWIDTH 13 0
BBX 12 17 1 0
BITMAP
CE70
CE70
CE70
CE70
CE70
CE70
CE70
CE70
CE70
CE70
CE70
CE70
CE70
CE70
FFF0
FFF0
FFF0
ENDCHAR
STARTCHAR 0429
ENCODING 1065
SWIDTH 585 0
DWIDTH 13 0
BBX 12 21 1 -4
BITMAP
EE70
EE70
EE70
EE70
EE70
EE70
EE70
EE70
EE70
EE70
EE70
EE70
EE70
EE70
FFF0
FFF0
FFF0
0030
0030
0030
0030
ENDCHAR
STARTCHAR 042A
ENCODING 1066
SWIDTH 585 0
DWIDTH 13 0
BBX 13 17 0 0
BITMAP
FC00
FC00
FC00
1C00
1C00
1C00
1F80
1FE0
1FF0
1C78
1C78
1C38
1C38
1C78
1FF0
1FF0
1FC0
ENDCHAR
STARTCHAR 042B
ENCODING 1067
SWIDTH 585 0
DWIDTH 13 0
BBX 13 17 0 0
BITMAP
E038
E038
E038
E038
E038
E038
F838
FF38
FF38
E3B8
E3B8
E3B8
E3B8
E3B8
FFB8
FF38
FC38
ENDCHAR
STARTCHAR 042C
ENCODING 1068
SWIDTH 585 0
DWIDTH 13 0
BBX 10 17 2 0
BITMAP
E000
E000
E000
E000
E000
E000
FC00
FF80
FFC0
E3C0
E1C0
E1C0
E1C0
E1C0
FFC0
FF80
FF00
ENDCHAR
STARTCHAR 042D
ENCODING 1069
SWIDTH 585 0
DWIDTH 13 0
BBX 10 17 2 0
BITMAP
7C00
FF00
FF80
8780
03C0
03C0
01C0
7FC0
7FC0
7FC0
01C0
03C0
03C0
8780
FF80
FF00
7C00
ENDCHAR
STARTCHAR 042E
ENCODING 1070
SWIDTH 585 0
DWIDTH 13 0
BBX 13 17 0 0
BITMAP
E1E0
E3F0
E3F0
E738
E738
E738
FF38
FF38
FF38
E738
E738
E738
E738
E738
E3F0
E3F0
E1E0
ENDCHAR
STARTCHAR 042F
ENCODING 1071
SWIDTH 585 0
DWIDTH 13 0
BBX 12 17 0 0
BITMAP
0FF0
3FF0
7FF0
7870
7070
7070
7870
3FF0
3FF0
0FF0
1E70
1C70
1C70
3870
3870
7870
F070
ENDCHAR
STARTCHAR 0430
ENCODING 1072
SWIDTH 585 0
DWIDTH 13 0
BBX 12 13 1 0
BITMAP
3F80
7FC0
7FE0
40E0
0FE0
7FE0
FFE0
F0E0
E0E0
F1E0
FFE0
7FE0
3CF0
ENDCHAR
STARTCHAR 0431
ENCODING 1073
SWIDTH 585 0
DWIDTH 13 0
BBX 12 19 1 0
BITMAP
0080
1FC0
3FC0
7C00
7000
E000
FF00
FFC0
FFE0
F0E0
F0E0
F0E0
E0F0
F0E0
70E0
70E0
7FE0
3FC0
0F00
ENDCHAR
STARTCHAR 0432
ENCODING 1074
SWIDTH 585 0
DWIDTH 13 0
BBX 10 13 2 0
BITMAP
FF00
FF80
FFC0
E1C0
E1C0
FF80
FF80
FFC0
E1C0
E1C0
FFC0
FFC0
FF00
ENDCHAR
STARTCHAR 0433
ENCODING 1075
SWIDTH 585 0
DWIDTH 13 0
BBX 9 13 3 0
BITMAP
FF80
FF80
FF80
E000
E000
E000
E000
E000
E000
E000
E000
E000
E000
ENDCHAR
STARTCHAR 0434
ENCODING 1076
SWIDTH 585 0
DWIDTH 13 0
BBX 12 16 1 -3
BITMAP
7FE0
7FE0
7FE0
79E0
79E0
79E0
79E0
79E0
71E0
71E0
FFF0
FFF0
FFF0
C070
C070
C070
ENDCHAR
STARTCHAR 0435
ENCODING 1077
SWIDTH 585 0
DWIDTH 13 0
BBX 11 13 1 0
BITMAP
1F00
3FC0
7FE0
70E0
E0E0
FFE0
FFE0
FFE0
E000
F020
7FE0
3FE0
1FC0
ENDCHAR
STARTCHAR 0436
ENCODING 1078
SWIDTH 585 0
DWIDTH 13 0
BBX 13 13 0 0
BITMAP
E738
7770
3F70
3FE0
1FE0
1FE0
3FE0
3FE0
37F0
7770
7730
6738
E738
ENDCHAR
STARTCHAR 0437
ENCODING 1079
SWIDTH 585 0
DWIDTH 13 0
BBX 10 13 2 0
BITMAP
FE00
FF80
FF80
0380
0380
3F80
3F00
3F80
01C0
01C0
FFC0
FF80
FE00
ENDCHAR
STARTCHAR 0438
ENCODING 1080
SWIDTH 585 0
DWIDTH 13 0
BBX 10 13 2 0
BITMAP
E3C0
E3C0
E3C0
E7C0
E7C0
EDC0
EDC0
F9C0
F9C0
F1C0
F1C0
F1C0
E1C0
ENDCHAR
STARTCHAR 0439
ENCODING 1081
SWIDTH 585 0
DWIDTH 13 0
BBX 10 18 2 0
BITMAP
6100
6300
3F00
1C00
0000
E3C0
E3C0
E3C0
E7C0
E7C0
EDC0
EDC0
F9C0
F9C0
F1C0
F1C0
F1C0
E1C0
ENDCHAR
STARTCHAR 043A
ENCODING 1082
SWIDTH 585 0
DWIDTH 13 0
BBX 11 13 2 0
BITMAP
E3E0
E380
E700
EE00
FE00
FC00
FE00
FF00
E700
E380
E380
E1C0
E1E0
ENDCHAR
STARTCHAR 043B
ENCODING 1083
SWIDTH 585 0
DWIDTH 13 0
BBX 12 13 0 0
BITMAP
1FF0
1FF0
1FF0
1C70
1C70
1C70
1C70
1C70
1C70
3C70
F870
F870
F070
ENDCHAR
STARTCHAR 043C
ENCODING 1084
SWIDTH 585 0
DWIDTH 13 0
BBX 11 13 1 0
BITMAP
F1E0
F1E0
F1E0
F9E0
FBE0
FB60
FB60
EF60
EF60
EE60
EE60
E060
E060
ENDCHAR
STARTCHAR 043D
ENCODING 1085
SWIDTH 585 0
DWIDTH 13 0
BBX 10 13 2 0
BITMAP
E3C0
E3C0
E3C0
E3C0
FFC0
FFC0
FFC0
E3C0
E3C0
E3C0
E3C0
E3C0
E3C0
ENDCHAR
STARTCHAR 043E
ENCODING 1086
SWIDTH 585 0
DWIDTH 13 0
BBX 11 13 1 0
BITMAP
1F00
3FC0
7FC0
71E0
F0E0
E0E0
E0E0
E0E0
F0E0
71E0
7FC0
3FC0
1F00
ENDCHAR
STARTCHAR 043F
ENCODING 1087
SWIDTH 585 0
DWIDTH 13 0
BBX 10 13 2 0
BITMAP
FFC0
FFC0
FFC0
E3C0
E3C0
E3C0
E3C0
E3C0
E3C0
E3C0
E3C0
E3C0
E3C0
ENDCHAR
STARTCHAR 0440
ENCODING 1088
SWIDTH 585 0
DWIDTH 13 0
BBX 10 18 2 -5
BITMAP
EF00
FF80
FFC0
F1C0
E1C0
E1C0
E1C0
E1C0
E1C0
F1C0
FFC0
FF80
EF00
E000
E000
E000
E000
E000
ENDCHAR
STARTCHAR 0441
ENCODING 1089
SWIDTH 585 0
DWIDTH 13 0
BBX 9 13 2 0
BITMAP
1F00
7F80
7F80
F080
E000
E000
E000
E000
E000
F080
7F80
7F80
1F00
ENDCHAR
STARTCHAR 0442
ENCODING 1090
SWIDTH 585 0
DWIDTH 13 0
BBX 10 13 2 0
BITMAP
FFC0
FFC0
FFC0
1C00
1C00
1C00
1C00
1C00
1C00
1C00
1C00
1C00
1C00
ENDCHAR
STARTCHAR 0443
ENCODING 1091
SWIDTH 585 0
DWIDTH 13 0
BBX 12 18 1 -5
BITMAP
E0F0
F0E0
70E0
71E0
79C0
39C0
39C0
3F80
1F80
1F80
0F00
0F00
0F00
0E00
0E00
FC00
FC00
F800
ENDCHAR
STARTCHAR 0444
ENCODING 1092
SWIDTH 585 0
DWIDTH 13 0
BBX 12 22 1 -5
BITMAP
0E00
0E00
0E00
0E00
0E00
3F80
7FC0
7FE0
EEE0
EE60
CE60
CE70
EE60
EE60
6EE0
7FC0
3F80
0F00
0E00
0E00
0E00
0E00
ENDCHAR
STARTCHAR 0445
ENCODING 1093
SWIDTH 585 0
DWIDTH 13 0
BBX 12 13 1 0
BITMAP
F1E0
71C0
3BC0
3B80
1F00
0F00
0E00
1F00
1F80
3B80
79C0
71E0
F0F0
ENDCHAR
STARTCHAR 0446
ENCODING 1094
SWIDTH 585 0
DWIDTH 13 0
BBX 11 17 2 -4
BITMAP
E3C0
E3C0
E3C0
E3C0
E3C0
E3C0
E3C0
E3C0
E3C0
E3C0
E3C0
FFE0
FFE0
0060
0060
0060
0060
ENDCHAR
STARTCHAR 0447
ENCODING 1095
SWIDTH 585 0
DWIDTH 13 0
BBX 10 13 1 0
BITMAP
F1C0
F1C0
F1C0
F1C0
F1C0
71C0
7FC0
3FC0
1FC0
01C0
01C0
01C0
01C0
ENDCHAR
STARTCHAR 0448
ENCODING 1096
SWIDTH 585 0
DWIDTH 13 0
BBX 12 13 1 0
BITMAP
CE70
CE70
CE70
CE70
CE70
CE70
CE70
CE70
CE70
CE70
CE70
FFF0
FFF0
ENDCHAR
STARTCHAR 0449
ENCODING 1097
SWIDTH 585 0
DWIDTH 13 0
BBX 12 17 1 -4
BITMAP
CE60
CE60
CE60
CE60
CE60
CE60
CE60
CE60
CE60
CE60
CE60
FFF0
FFF0
0030
0030
0030
0030
ENDCHAR
STARTCHAR 044A
ENCODING 1098
SWIDTH 585 0
DWIDTH 13 0
BBX 12 13 1 0
BITMAP
F800
F800
F800
3800
3800
3FC0
3FE0
3FF0
38F0
38F0
3FF0
3FE0
3FC0
ENDCHAR
STARTCHAR 044B
ENCODING 1099
SWIDTH 585 0
DWIDTH 13 0
BBX 13 13 0 0
BITMAP
F038
F038
F038
F038
F038
FC38
FF38
FF38
F7B8
F7B8
FF38
FF38
FC38
ENDCHAR
STARTCHAR 044C
ENCODING 1100
SWIDTH 585 0
DWIDTH 13 0
BBX 10 13 2 0
BITMAP
F000
F000
F000
F000
F000
FF00
FFC0
F7C0
F1C0
F1C0
F7C0
FFC0
FF00
ENDCHAR
STARTCHAR 044D
ENCODING 1101
SWIDTH 585 0
DWIDTH 13 0
BBX 10 13 2 0
BITMAP
7C00
FF00
FF80
8380
03C0
7FC0
7FC0
7FC0
03C0
8380
FF80
FF00
7C00
ENDCHAR
STARTCHAR 044E
ENCODING 1102
SWIDTH 585 0
DWIDTH 13 0
BBX 12 13 1 0
BITMAP
E380
E7E0
E7E0
EE70
EE70
FC70
FC70
FC70
EE70
EE70
EFE0
E7E0
E3C0
ENDCHAR
STARTCHAR 044F
ENCODING 1103
SWIDTH 585 0
DWIDTH 13 0
BBX 11 13 1 0
BITMAP
1FE0
7FE0
7FE0
70E0
70E0
7FE0
3FE0
1FE0
3CE0
38E0
78E0
70E0
F0E0
ENDCHAR
STARTCHAR 0450
ENCODING 1104
SWIDTH 585 0
DWIDTH 13 0
BBX 11 20 1 0
BITMAP
3800
3800
1C00
0E00
0700
0000
0000
1F00
3FC0
7FE0
70E0
E0E0
FFE0
FFE0
E000
E000
F020
7FE0
3FE0
1FC0
ENDCHAR
STARTCHAR 0451
ENCODING 1105
SWIDTH 585 0
DWIDTH 13 0
BBX 11 18 1 0
BITMAP
19C0
19C0
19C0
0000
0000
1F00
3FC0
7FE0
70E0
E0E0
FFE0
FFE0
FFE0
E000
F020
7FE0
3FE0
1FC0
ENDCHAR
STARTCHAR 0452
ENCODING 1106
SWIDTH 585 0
DWIDTH 13 0
BBX 13 23 0 -5
BITMAP
3800
3800
3800
3800
3800
FFC0
FFC0
FFC0
3800
39E0
3BF0
3FF0
3C70
3878
3878
3878
3870
3870
0070
00F0
03E0
03C0
0300
ENDCHAR
STARTCHAR 0453
ENCODING 1107
SWIDTH 585 0
DWIDTH 13 0
BBX 9 19 3 0
BITMAP
0380
0700
0E00
1C00
1800
0000
FF80
FF80
FF80
E000
E000
E000
E000
E000
E000
E000
E000
E000
E000
ENDCHAR
STARTCHAR 0454
ENCODING 1108
SWIDTH 585 0
DWIDTH 13 0
BBX 9 13 2 0
BITMAP
1F00
7F80
7F80
F080
E000
FE00
FE00
FE00
E000
F080
7F80
7F80
1F00
ENDCHAR
STARTCHAR 0455
ENCODING 1109
SWIDTH 585 0
DWIDTH 13 0
BBX 10 13 2 0
BITMAP
3F00
7F80
FF80
E080
E000
FC00
7F00
0F80
03C0
83C0
FF80
FF80
7F00
ENDCHAR
STARTCHAR 0456
ENCODING 1110
SWIDTH 585 0
DWIDTH 13 0
BBX 10 19 2 0
BITMAP
3C00
3C00
3C00
3C00
0000
0000
FC00
FC00
FC00
3C00
3C00
3C00
3C00
3C00
3C00
1C00
1FC0
1FC0
0FC0
ENDCHAR
STARTCHAR 0457
ENCODING 1111
SWIDTH 585 0
DWIDTH 13 0
BBX 10 18 2 0
BITMAP
6600
6600
6600
0000
0000
FC00
FC00
FC00
3C00
3C00
3C00
3C00
3C00
3C00
1C00
1FC0
1FC0
0FC0
ENDCHAR
STARTCHAR 0458
ENCODING 1112
SWIDTH 585 0
DWIDTH 13 0
BBX 8 24 2 -5
BITMAP
0F
0F
0F
0F
00
00
7F
7F
7F
0F
0F
0F
0F
0F
0F
0F
0F
0F
0F
0E
0E
FE
FE
FC
ENDCHAR
STARTCHAR 0459
ENCODING 1113
SWIDTH 585 0
DWIDTH 13 0
BBX 13 13 0 0
BITMAP
3F80
3F80
3F80
3B80
3B80
3BE0
3BF8
3BF8
3B98
3B98
F3F8
F3F8
E3E0
ENDCHAR
STARTCHAR 045A
ENCODING 1114
SWIDTH 585 0
DWIDTH 13 0
BBX 13 13 0 0
BITMAP
E380
E380
E380
E380
E380
FFE0
FFF8
E3F8
E398
E398
E3F8
E3F8
E3E0
ENDCHAR
STARTCHAR 045B
ENCODING 1115
SWIDTH 585 0
DWIDTH 13 0
BBX 12 18 0 0
BITMAP
3800
3800
3800
3800
3800
FFC0
FFC0
FFC0
3800
39C0
3BE0
3FF0
3C70
3C70
3870
3870
3870
3870
ENDCHAR
STARTCHAR 045C
ENCODING 1116
SWIDTH 585 0
DWIDTH 13 0
BBX 11 19 2 0
BITMAP
0380
0700
0600
0C00
1800
0000
E3E0
E380
E700
EE00
FE00
FC00
FE00
FF00
E700
E380
E380
E1C0
E1E0
ENDCHAR
STARTCHAR 045D
ENCODING 1117
SWIDTH 585 0
DWIDTH 13 0
BBX 10 19 2 0
BITMAP
7000
3000
1800
0C00
0600
0000
E3C0
E3C0
E3C0
E7C0
E7C0
EDC0
EDC0
F9C0
F9C0
F1C0
F1C0
F1C0
E1C0
ENDCHAR
STARTCHAR 045E
ENCODING 1118
SWIDTH 585 0
DWIDTH 13 0
BBX 12 23 1 -5
BITMAP
3080
3180
1F80
0F00
0000
E0F0
F0E0
70E0
71E0
79C0
39C0
39C0
3F80
1F80
1F80
0F00
0F00
0F00
0E00
0E00
FC00
FC00
F800
ENDCHAR
STARTCHAR 045F
ENCODING 1119
SWIDTH 585 0
DWIDTH 13 0
BBX 10 16 2 -3
BITMAP
E3C0
E3C0
E3C0
E3C0
E3C0
E3C0
E3C0
E3C0
E3C0
E3C0
E3C0
FFC0
FFC0
0C00
0C00
0C00
ENDCHAR
STARTCHAR 0462
ENCODING 1122
SWIDTH 585 0
DWIDTH 13 0
BBX 13 17 0 0
BITMAP
1C00
1C00
FFC0
FFC0
FFC0
1C00
1F80
1FE0
1FF0
1C70
1C78
1C78
1C78
1C78
1FF0
1FF0
1FC0
ENDCHAR
STARTCHAR 0463
ENCODING 1123
SWIDTH 585 0
DWIDTH 13 0
BBX 13 18 0 0
BITMAP
1C00
1C00
1C00
1C00
FFE0
FFE0
FFE0
1C00
1C00
1C00
1FC0
1FF0
1CF0
1C78
1C78
1CF0
1FF0
1FC0
ENDCHAR
STARTCHAR 0472
ENCODING 1138
SWIDTH 585 0
DWIDTH 13 0
BBX 11 17 1 0
BITMAP
1F00
3F80
7FC0
71E0
F0E0
E0E0
FFE0
FFE0
FFE0
E0E0
E0E0
F0E0
F0E0
71E0
7FC0
3F80
1F00
ENDCHAR
STARTCHAR 0473
ENCODING 1139
SWIDTH 585 0
DWIDTH 13 0
BBX 11 13 1 0
BITMAP
1F00
3FC0
7FC0
71E0
E0E0
FFE0
FFE0
FFE0
E0E0
71E0
7FC0
3FC0
1F00
ENDCHAR
STARTCHAR 0490
ENCODING 1168
SWIDTH 585 0
DWIDTH 13 0
BBX 11 21 2 0
BITMAP
00E0
00E0
00E0
00E0
FFE0
FFE0
FFE0
F000
F000
F000
F000
F000
F000
F000
F000
F000
F000
F000
F000
F000
F000
ENDCHAR
STARTCHAR 0491
ENCODING 1169
SWIDTH 585 0
DWIDTH 13 0
BBX 9 17 3 0
BITMAP
0380
0380
0380
0380
FF80
FF80
FF80
E000
E000
E000
E000
E000
E000
E000
E000
E000
E000
ENDCHAR
STARTCHAR 0492
ENCODING 1170
SWIDTH 585 0
DWIDTH 13 0
BBX 12 17 1 0
BITMAP
7FF0
7FF0
7FF0
7800
7800
7800
7800
FF80
FF80
FF80
7800
7800
7800
7800
7800
7800
7800
ENDCHAR
STARTCHAR 0493
ENCODING 1171
SWIDTH 585 0
DWIDTH 13 0
BBX 10 13 2 0
BITMAP
7FC0
7FC0
7FC0
7000
7000
FF00
FF00
FF00
7000
7000
7000
7000
7000
ENDCHAR
STARTCHAR 0494
ENCODING 1172
SWIDTH 585 0
DWIDTH 13 0
BBX 10 22 2 -5
BITMAP
FFC0
FFC0
FFC0
E000
E000
E000
FF00
FF80
FFC0
E1C0
E1C0
E1C0
E1C0
E1C0
E1C0
E1C0
E1C0
01C0
01C0
0FC0
0FC0
0F00
ENDCHAR
STARTCHAR 0495
ENCODING 1173
SWIDTH 585 0
DWIDTH 13 0
BBX 10 18 2 -5
BITMAP
FF80
FF80
FF80
F000
F000
F000
FF00
FF80
FF80
F3C0
F3C0
F3C0
F3C0
03C0
03C0
1F80
1F80
1F00
ENDCHAR
STARTCHAR 0496
ENCODING 1174
SWIDTH 585 0
DWIDTH 13 0
BBX 13 21 0 -4
BITMAP
E738
7738
7770
3770
3F60
3FE0
1FE0
1FE0
3FE0
3FE0
3FE0
37F0
7770
7730
7738
6738
E738
0018
0018
0018
0018
ENDCHAR
STARTCHAR 0497
ENCODING 1175
SWIDTH 585 0
DWIDTH 13 0
BBX 13 16 0 -3
BITMAP
E738
7770
3F70
3FE0
1FE0
1FE0
3FE0
3FE0
3770
7770
7738
6738
E738
0018
0018
0018
ENDCHAR
STARTCHAR 0498
ENCODING 1176
SWIDTH 585 0
DWIDTH 13 0
BBX 11 22 1 -5
BITMAP
3F00
7F80
7FC0
41C0
01E0
01C0
01C0
1F80
1F00
1FC0
01E0
00E0
00E0
81E0
FFE0
FFC0
7F00
0600
0600
0600
3E00
3E00
ENDCHAR
STARTCHAR 0499
ENCODING 1177
SWIDTH 585 0
DWIDTH 13 0
BBX 10 18 2 -5
BITMAP
FE00
FF00
FF80
0380
0380
0380
3F80
3F00
3F80
01C0
FFC0
FF80
FE00
0800
0C00
0C00
7C00
7800
ENDCHAR
STARTCHAR 049A
ENCODING 1178
SWIDTH 585 0
DWIDTH 13 0
BBX 12 21 1 -4
BITMAP
E0F0
E1E0
E1C0
E380
E780
EF00
EE00
FE00
FF00
FF00
F780
E380
E3C0
E1E0
E1F0
E0F0
E0F0
0070
0070
0070
0070
ENDCHAR
STARTCHAR 049B
ENCODING 1179
SWIDTH 585 0
DWIDTH 13 0
BBX 11 16 2 -3
BITMAP
E3E0
E380
E700
EE00
FC00
FE00
FE00
E700
E780
E380
E3E0
E1E0
E1E0
00E0
00E0
00E0
ENDCHAR
STARTCHAR 04A2
ENCODING 1186
SWIDTH 585 0
DWIDTH 13 0
BBX 13 21 1 -4
BITMAP
E1C0
E1C0
E1C0
E1C0
E1C0
E1C0
E1C0
FFC0
FFC0
FFC0
E1C0
E1C0
E1C0
E1C0
E1F8
E1F8
E1F8
0038
0038
0038
0038
ENDCHAR
STARTCHAR 04A3
ENCODING 1187
SWIDTH 585 0
DWIDTH 13 0
BBX 13 16 0 -3
BITMAP
F1C0
F1C0
F1C0
F1C0
FFC0
FFC0
FFC0
F1C0
F1C0
F1C0
F1F8
F1F8
F1F8
0038
0038
0038
ENDCHAR
STARTCHAR 04A4
ENCODING 1188
SWIDTH 585 0
DWIDTH 13 0
BBX 12 17 1 0
BITMAP
E3F0
E3F0
E3F0
E380
E380
E380
E380
FF80
FF80
FF80
E380
E380
E380
E380
E380
E380
E380
ENDCHAR
STARTCHAR 04A5
ENCODING 1189
SWIDTH 585 0
DWIDTH 13 0
BBX 12 13 1 0
BITMAP
E3F0
E3F0
E3F0
E380
FF80
FF80
FF80
E380
E380
E380
E380
E380
E380
ENDCHAR
STARTCHAR 04AA
ENCODING 1194
SWIDTH 585 0
DWIDTH 13 0
BBX 10 22 2 -5
BITMAP
0F80
3FC0
7FC0
7040
F000
E000
E000
E000
E000
E000
E000
E000
E000
F040
79C0
7FC0
3FC0
0F00
0300
0300
1F00
1E00
ENDCHAR
STARTCHAR 04AB
ENCODING 1195
SWIDTH 585 0
DWIDTH 13 0
BBX 9 18 2 -5
BITMAP
1F00
3F80
7F80
F080
E000
E000
E000
E000
E000
E000
F080
7F80
3F80
0F00
0600
0300
1E00
1E00
ENDCHAR
STARTCHAR 04AC
ENCODING 1196
SWIDTH 585 0
DWIDTH 13 0
BBX 11 21 1 -4
BITMAP
FFE0
FFE0
FFE0
0E00
0E00
0E00
0E00
0E00
0E00
0E00
0E00
0E00
0E00
0E00
0FC0
0FC0
0FC0
01C0
01C0
01C0
01C0
ENDCHAR
STARTCHAR 04AD
ENCODING 1197
SWIDTH 585 0
DWIDTH 13 0
BBX 10 16 2 -3
BITMAP
FFC0
FFC0
FFC0
1C00
1C00
1C00
1C00
1C00
1C00
1C00
1F80
1F80
1F80
0380
0380
0380
ENDCHAR
STARTCHAR 04AE
ENCODING 1198
SWIDTH 585 0
DWIDTH 13 0
BBX 13 17 0 0
BITMAP
F038
7078
7870
38F0
3CE0
1DE0
1FC0
0FC0
0F80
0780
0700
0700
0700
0700
0700
0700
0700
ENDCHAR
STARTCHAR 04AF
ENCODING 1199
SWIDTH 585 0
DWIDTH 13 0
BBX 12 18 1 -5
BITMAP
E0F0
E0E0
70E0
71E0
71C0
39C0
3B80
3B80
1F80
1F00
1F00
0F00
0E00
0E00
0E00
0E00
0E00
0E00
ENDCHAR
STARTCHAR 04B0
ENCODING 1200
SWIDTH 585 0
DWIDTH 13 0
BBX 13 17 0 0
BITMAP
F038
7078
7870
38F0
3CE0
1DE0
1FC0
0FC0
0F80
0780
0700
3FE0
3FE0
3FE0
0700
0700
0700
ENDCHAR
STARTCHAR 04B1
ENCODING 1201
SWIDTH 585 0
DWIDTH 13 0
BBX 12 18 1 -5
BITMAP
E0F0
E0E0
F0E0
71E0
71C0
39C0
3B80
3B80
1F80
1F00
1F00
0F00
0E00
0E00
3F80
3F80
0E00
0E00
ENDCHAR
STARTCHAR 04B2
ENCODING 1202
SWIDTH 585 0
DWIDTH 13 0
BBX 13 21 0 -4
BITMAP
F078
7870
38F0
3CE0
1DC0
1FC0
0F80
0780
0700
0F80
0FC0
1FC0
1DE0
3CE0
38F8
7078
F038
0038
0038
0038
0038
ENDCHAR
STARTCHAR 04B3
ENCODING 1203
SWIDTH 585 0
DWIDTH 13 0
BBX 12 16 1 -3
BITMAP
F1E0
71C0
3BC0
3F80
1F00
0F00
0F00
1F00
3F80
3BC0
79F0
71F0
F0F0
0070
0070
0070
ENDCHAR
STARTCHAR 04BA
ENCODING 1210
SWIDTH 585 0
DWIDTH 13 0
BBX 11 18 1 0
BITMAP
E000
E000
E000
E000
E000
E000
E7C0
EFE0
FFE0
F0E0
F0E0
E0E0
E0E0
E0E0
E0E0
E0E0
E0E0
E0E0
ENDCHAR
STARTCHAR 04BB
ENCODING 1211
SWIDTH 585 0
DWIDTH 13 0
BBX 10 18 2 0
BITMAP
E000
E000
E000
E000
E000
EF00
FF80
FF80
E3C0
E3C0
E3C0
E3C0
E3C0
E3C0
E3C0
E3C0
E3C0
E3C0
ENDCHAR
STARTCHAR 04C0
ENCODING 1216
SWIDTH 585 0
DWIDTH 13 0
BBX 10 17 2 0
BITMAP
FFC0
FFC0
FFC0
1C00
1C00
1C00
1C00
1C00
1C00
1C00
1C00
1C00
1C00
1C00
FFC0
FFC0
FFC0
ENDCHAR
STARTCHAR 04C1
ENCODING 1217
SWIDTH 585 0
DWIDTH 13 0
BBX 13 21 0 0
BITMAP
18C0
0FC0
0780
0000
E738
7738
7770
3770
3F60
3FE0
1FE0
1FE0
3FE0
3FE0
3FE0
37F0
7770
7730
7738
6738
E738
ENDCHAR
STARTCHAR 04C2
ENCODING 1218
SWIDTH 585 0
DWIDTH 13 0
BBX 13 18 0 0
BITMAP
1840
18C0
0FC0
0700
0000
E738
7770
3F70
3FE0
1FE0
1FE0
3FE0
3FE0
37F0
7770
7730
6738
E738
ENDCHAR
STARTCHAR 04C3
ENCODING 1219
SWIDTH 585 0
DWIDTH 13 0
BBX 12 22 1 -5
BITMAP
E0F0
E1E0
E1C0
E380
E780
EF00
EF80
FFC0
FFE0
F9E0
F0E0
E0E0
E0E0
E0E0
E0E0
E0E0
E0E0
00E0
01E0
0FE0
0FC0
0F80
ENDCHAR
STARTCHAR 04C4
ENCODING 1220
SWIDTH 585 0
DWIDTH 13 0
BBX 11 18 2 -5
BITMAP
E3E0
E380
E700
EE00
FC00
FC00
FF00
FF80
E780
E380
E380
E380
E380
0380
0380
1F80
1F00
1E00
ENDCHAR
STARTCHAR 04C7
ENCODING 1223
SWIDTH 585 0
DWIDTH 13 0
BBX 11 22 1 -5
BITMAP
F0E0
F0E0
F0E0
F0E0
F0E0
F0E0
F0E0
FFE0
FFE0
FFE0
F0E0
F0E0
F0E0
F0E0
F0E0
F0E0
F0E0
00E0
01E0
0FE0
0FC0
0F80
ENDCHAR
STARTCHAR 04C8
ENCODING 1224
SWIDTH 585 0
DWIDTH 13 0
BBX 10 18 2 -5
BITMAP
E3C0
E3C0
E3C0
E3C0
E3C0
FFC0
FFC0
FFC0
E3C0
E3C0
E3C0
E3C0
E3C0
03C0
0380
1F80
1F80
1F00
ENDCHAR
STARTCHAR 04CB
ENCODING 1227
SWIDTH 585 0
DWIDTH 13 0
BBX 11 22 1 -4
BITMAP
E0E0
E0E0
E0E0
E0E0
E0E0
E0E0
E0E0
E1E0
FFE0
7FE0
3EE0
00E0
00E0
00E0
00E0
07E0
07E0
07E0
0700
0700
0700
0700
ENDCHAR
STARTCHAR 04CC
ENCODING 1228
SWIDTH 585 0
DWIDTH 13 0
BBX 10 16 1 -3
BITMAP
F1C0
F1C0
F1C0
F1C0
F1C0
71C0
7FC0
3FC0
0FC0
01C0
0FC0
0FC0
0FC0
0E00
0E00
0E00
ENDCHAR
STARTCHAR 04CF
ENCODING 1231
SWIDTH 585 0
DWIDTH 13 0
BBX 3 18 4 0
BITMAP
E0
E0
E0
E0
E0
E0
E0
E0
E0
E0
E0
E0
E0
E0
E0
E0
E0
E0
ENDCHAR
STARTCHAR 04D0
ENCODING 1232
SWIDTH 585 0
DWIDTH 13 0
BBX 13 21 0 0
BITMAP
18C0
0FC0
0780
0000
0780
0F80
0F80
0FC0
0DC0
1DC0
1DC0
1CE0
1CE0
38E0
3FE0
3FF0
3FF0
7070
7070
7078
F038
ENDCHAR
STARTCHAR 04D1
ENCODING 1233
SWIDTH 585 0
DWIDTH 13 0
BBX 12 18 1 0
BITMAP
3080
3F80
1F00
0000
0000
3F80
7FC0
7FE0
40E0
00E0
3FE0
7FE0
F0E0
E0E0
E1E0
F3E0
7FE0
3EF0
ENDCHAR
STARTCHAR 04D2
ENCODING 1234
SWIDTH 585 0
DWIDTH 13 0
BBX 13 21 0 0
BITMAP
1CC0
1CC0
1CC0
0000
0780
0F80
0F80
0FC0
0DC0
1DC0
1DC0
1CE0
1CE0
38E0
3FE0
3FF0
3FF0
7070
7070
7078
F038
ENDCHAR
STARTCHAR 04D3
ENCODING 1235
SWIDTH 585 0
DWIDTH 13 0
BBX 12 18 1 0
BITMAP
3980
3980
3980
0000
0000
3F80
7FC0
7FE0
40E0
0FE0
7FE0
FFE0
F0E0
E0E0
F1E0
FFE0
7FE0
3CF0
ENDCHAR
STARTCHAR 04D4
ENCODING 1236
SWIDTH 585 0
DWIDTH 13 0
BBX 13 17 0 0
BITMAP
0FF8
0FF8
1FF8
1D80
1980
1980
3980
39F0
39F0
31F0
7F80
7F80
7F80
7180
61F8
E1F8
E1F8
ENDCHAR
STARTCHAR 04D5
ENCODING 1237
SWIDTH 585 0
DWIDTH 13 0
BBX 13 13 0 0
BITMAP
3CE0
7FF0
7FF8
4738
0738
3FF8
7FF8
FFF8
E700
E708
FFF8
7DF8
3CF0
ENDCHAR
STARTCHAR 04D6
ENCODING 1238
SWIDTH 585 0
DWIDTH 13 0
BBX 10 21 2 0
BITMAP
6180
3F00
1E00
0000
FFC0
FFC0
FFC0
E000
E000
E000
E000
FF80
FF80
FF80
E000
E000
E000
E000
FFC0
FFC0
FFC0
ENDCHAR
STARTCHAR 04D7
ENCODING 1239
SWIDTH 585 0
DWIDTH 13 0
BBX 11 19 1 0
BITMAP
3080
3180
1F80
0F00
0000
0000
1F00
3FC0
7FE0
70E0
E0E0
FFE0
FFE0
E000
E000
F020
7FE0
3FE0
1FC0
ENDCHAR
STARTCHAR 04D8
ENCODING 1240
SWIDTH 585 0
DWIDTH 13 0
BBX 11 17 1 0
BITMAP
1F00
3F80
3FC0
21E0
00E0
00E0
00E0
FFE0
FFE0
FFE0
E0E0
F0E0
F0E0
71E0
7FC0
3F80
1F00
ENDCHAR
STARTCHAR 04D9
ENCODING 1241
SWIDTH 585 0
DWIDTH 13 0
BBX 12 13 1 0
BITMAP
3F00
7FC0
7FE0
40E0
00E0
FFF0
FFF0
FFF0
E0E0
70E0
7FE0
3FC0
1F00
ENDCHAR
STARTCHAR 04DA
ENCODING 1242
SWIDTH 585 0
DWIDTH 13 0
BBX 11 21 1 0
BITMAP
3980
3980
3980
0000
1F00
3F80
3FC0
21E0
00E0
00E0
00E0
FFE0
FFE0
FFE0
E0E0
F0E0
F0E0
71E0
7FC0
3F80
1F00
ENDCHAR
STARTCHAR 04DB
ENCODING 1243
SWIDTH 585 0
DWIDTH 13 0
BBX 12 18 1 0
BITMAP
3980
3980
3980
0000
0000
3F00
7FC0
7FE0
40E0
00E0
FFF0
FFF0
FFF0
E0E0
70E0
7FE0
3FC0
1F00
ENDCHAR
STARTCHAR 04DC
ENCODING 1244
SWIDTH 585 0
DWIDTH 13 0
BBX 13 21 0 0
BITMAP
1DC0
1DC0
1DC0
0000
E738
7738
7770
3770
3F60
3FE0
1FE0
1FE0
3FE0
3FE0
3FE0
37F0
7770
7730
7738
6738
E738
ENDCHAR
STARTCHAR 04DD
ENCODING 1245
SWIDTH 585 0
DWIDTH 13 0
BBX 13 18 0 0
BITMAP
1CC0
1CC0
1CC0
0000
0000
E738
7770
3F70
3FE0
1FE0
1FE0
3FE0
3FE0
37F0
7770
7730
6738
E738
ENDCHAR
STARTCHAR 04DE
ENCODING 1246
SWIDTH 585 0
DWIDTH 13 0
BBX 11 21 1 0
BITMAP
3B80
3B80
3B80
0000
3F00
7FC0
7FC0
81E0
01E0
01C0
1FC0
1F00
1F80
01C0
00E0
00E0
00E0
81E0
FFC0
FFC0
7F00
ENDCHAR
STARTCHAR 04DF
ENCODING 1247
SWIDTH 585 0
DWIDTH 13 0
BBX 10 18 2 0
BITMAP
7700
7700
7700
0000
0000
FE00
FF80
FF80
0380
0380
3F80
3F00
3F80
03C0
03C0
FFC0
FF80
FE00
ENDCHAR
STARTCHAR 04E0
ENCODING 1248
SWIDTH 585 0
DWIDTH 13 0
BBX 13 17 0 0
BITMAP
7FF0
7FF0
7FF0
01E0
03E0
07C0
0F80
0FC0
0FF0
0FF8
0078
0078
F078
F078
7FF8
7FF0
1FC0
ENDCHAR
STARTCHAR 04E1
ENCODING 1249
SWIDTH 585 0
DWIDTH 13 0
BBX 11 18 1 -5
BITMAP
FFC0
FFC0
FFC0
03C0
0780
0F00
1E00
1C00
3F80
3FC0
3FE0
01E0
01E0
01E0
81E0
FFE0
FFC0
7F00
ENDCHAR
STARTCHAR 04E2
ENCODING 1250
SWIDTH 585 0
DWIDTH 13 0
BBX 11 21 1 0
BITMAP
3F80
3F80
3F80
0000
E1E0
E1E0
E1E0
E3E0
E3E0
E3E0
E7E0
E6E0
E6E0
ECE0
ECE0
FCE0
F8E0
F8E0
F8E0
F0E0
F0E0
ENDCHAR
STARTCHAR 04E3
ENCODING 1251
SWIDTH 585 0
DWIDTH 13 0
BBX 10 17 2 0
BITMAP
7F00
7F00
7F00
0000
E3C0
E3C0
E3C0
E7C0
E7C0
EDC0
EDC0
F9C0
F9C0
F1C0
F1C0
F1C0
E1C0
ENDCHAR
STARTCHAR 04E4
ENCODING 1252
SWIDTH 585 0
DWIDTH 13 0
BBX 11 21 1 0
BITMAP
3980
3980
3980
0000
E1E0
E1E0
E1E0
E3E0
E3E0
E3E0
E7E0
E6E0
E6E0
ECE0
ECE0
FCE0
F8E0
F8E0
F8E0
F0E0
F0E0
ENDCHAR
STARTCHAR 04E5
ENCODING 1253
SWIDTH 585 0
DWIDTH 13 0
BBX 10 18 2 0
BITMAP
7300
7300
7300
0000
0000
E3C0
E3C0
E3C0
E7C0
E7C0
EDC0
EDC0
F9C0
F9C0
F1C0
F1C0
F1C0
E1C0
ENDCHAR
STARTCHAR 04E6
ENCODING 1254
SWIDTH 585 0
DWIDTH 13 0
BBX 11 21 1 0
BITMAP
3980
3980
3980
0000
1F00
3F80
7FC0
71E0
F0E0
F0E0
E0E0
E0E0
E0E0
E0E0
E0E0
F0E0
F0E0
71E0
7FC0
3F80
1F00
ENDCHAR
STARTCHAR 04E7
ENCODING 1255
SWIDTH 585 0
DWIDTH 13 0
BBX 11 18 1 0
BITMAP
3980
3980
3980
0000
0000
1F00
3FC0
7FC0
71E0
F0E0
E0E0
E0E0
E0E0
F0E0
71E0
7FC0
3FC0
1F00
ENDCHAR
STARTCHAR 04E8
ENCODING 1256
SWIDTH 585 0
DWIDTH 13 0
BBX 11 17 1 0
BITMAP
1F00
3F80
7FC0
71E0
F0E0
E0E0
FFE0
FFE0
FFE0
E0E0
E0E0
F0E0
F0E0
71E0
7FC0
3F80
1F00
ENDCHAR
STARTCHAR 04E9
ENCODING 1257
SWIDTH 585 0
DWIDTH 13 0
BBX 11 13 1 0
BITMAP
1F00
3FC0
7FC0
71E0
E0E0
FFE0
FFE0
FFE0
E0E0
71E0
7FC0
3FC0
1F00
ENDCHAR
STARTCHAR 04EA
ENCODING 1258
SWIDTH 585 0
DWIDTH 13 0
BBX 11 21 1 0
BITMAP
3980
3980
3980
0000
1F00
3F80
7FC0
71E0
F0E0
E0E0
FFE0
FFE0
FFE0
E0E0
E0E0
F0E0
F0E0
71E0
7FC0
3F80
1F00
ENDCHAR
STARTCHAR 04EB
ENCODING 1259
SWIDTH 585 0
DWIDTH 13 0
BBX 11 18 1 0
BITMAP
3980
3980
3980
0000
0000
1F00
3FC0
7FC0
71E0
E0E0
FFE0
FFE0
FFE0
E0E0
71E0
7FC0
3FC0
1F00
ENDCHAR
STARTCHAR 04EC
ENCODING 1260
SWIDTH 585 0
DWIDTH 13 0
BBX 10 21 2 0
BITMAP
6700
6700
6700
0000
FC00
FF00
FF80
8780
0380
03C0
01C0
7FC0
7FC0
7FC0
03C0
03C0
0380
8780
FF80
FF00
FC00
ENDCHAR
STARTCHAR 04ED
ENCODING 1261
SWIDTH 585 0
DWIDTH 13 0
BBX 10 18 2 0
BITMAP
6700
6700
6700
0000
0000
7C00
FF00
FF80
8380
03C0
7FC0
7FC0
7FC0
03C0
8380
FF80
FF00
7E00
ENDCHAR
STARTCHAR 04EE
ENCODING 1262
SWIDTH 585 0
DWIDTH 13 0
BBX 13 21 0 0
BITMAP
1FC0
1FC0
1FC0
0000
F038
7078
3870
38F0
3CE0
1CE0
1FE0
0FC0
0FC0
0780
0780
0780
0700
0F00
3E00
3E00
3C00
ENDCHAR
STARTCHAR 04EF
ENCODING 1263
SWIDTH 585 0
DWIDTH 13 0
BBX 12 22 1 -5
BITMAP
3F80
3F80
3F80
0000
E0F0
E0E0
70E0
71E0
71C0
39C0
3B80
3B80
1F80
1F00
1F00
0F00
0E00
0E00
0E00
FC00
FC00
F800
ENDCHAR
STARTCHAR 04F0
ENCODING 1264
SWIDTH 585 0
DWIDTH 13 0
BBX 13 21 0 0
BITMAP
1CC0
1CC0
1CC0
0000
F038
7078
3870
38F0
3CE0
1CE0
1FE0
0FC0
0FC0
0780
0780
0780
0700
0F00
3E00
3E00
3C00
ENDCHAR
STARTCHAR 04F1
ENCODING 1265
SWIDTH 585 0
DWIDTH 13 0
BBX 12 23 1 -5
BITMAP
3980
3980
3980
0000
0000
E0F0
E0E0
70E0
71E0
71C0
39C0
3B80
3B80
1F80
1F00
1F00
0F00
0E00
0E00
0E00
FC00
FC00
F800
ENDCHAR
STARTCHAR 04F2
ENCODING 1266
SWIDTH 585 0
DWIDTH 13 0
BBX 13 21 0 0
BITMAP
0770
0EE0
19C0
0000
F038
7078
3870
38F0
3CE0
1CE0
1FE0
0FC0
0FC0
0780
0780
0780
0700
0F00
3E00
3E00
3C00
ENDCHAR
STARTCHAR 04F3
ENCODING 1267
SWIDTH 585 0
DWIDTH 13 0
BBX 12 23 1 -5
BITMAP
0EE0
0DC0
1980
3300
0000
E0F0
E0E0
70E0
71E0
71C0
39C0
3B80
3B80
1F80
1F00
1F00
0F00
0E00
0E00
0E00
FC00
FC00
F800
ENDCHAR
STARTCHAR 04F4
ENCODING 1268
SWIDTH 585 0
DWIDTH 13 0
BBX 11 21 1 0
BITMAP
3B80
3B80
3B80
E0E0
E0E0
E0E0
E0E0
E0E0
E0E0
E0E0
F1E0
FFE0
7FE0
3EE0
00E0
00E0
00E0
00E0
00E0
00E0
00E0
ENDCHAR
STARTCHAR 04F5
ENCODING 1269
SWIDTH 585 0
DWIDTH 13 0
BBX 10 18 1 0
BITMAP
3B80
3B80
3B80
0000
0000
F1C0
F1C0
F1C0
F1C0
F1C0
F1C0
7FC0
7FC0
1FC0
01C0
01C0
01C0
01C0
ENDCHAR
STARTCHAR 04F6
ENCODING 1270
SWIDTH 585 0
DWIDTH 13 0
BBX 10 21 2 -4
BITMAP
FFC0
FFC0
FFC0
E000
E000
E000
E000
E000
E000
E000
E000
E000
E000
E000
FC00
FC00
FC00
1C00
1C00
1C00
1C00
ENDCHAR
STARTCHAR 04F7
ENCODING 1271
SWIDTH 585 0
DWIDTH 13 0
BBX 8 16 3 -3
BITMAP
FF
FF
FF
E0
E0
E0
E0
E0
E0
E0
FC
FC
FC
1C
1C
1C
ENDCHAR
STARTCHAR 04F8
ENCODING 1272
SWIDTH 585 0
DWIDTH 13 0
BBX 13 21 0 0
BITMAP
0CE0
0CE0
0CE0
0000
E038
E038
E038
E038
E038
E038
F838
FF38
FF38
E3B8
E3B8
E3B8
E3B8
E3B8
FFB8
FF38
FC38
ENDCHAR
STARTCHAR 04F9
ENCODING 1273
SWIDTH 585 0
DWIDTH 13 0
BBX 13 18 0 0
BITMAP
1CC0
1CC0
1CC0
0000
0000
F038
F038
F038
F038
F038
FC38
FF38
FF38
F7B8
F7B8
FF38
FF38
FC38
ENDCHAR
STARTCHAR 0510
ENCODING 1296
SWIDTH 585 0
DWIDTH 13 0
BBX 11 17 1 0
BITMAP
1FC0
3FC0
7FC0
7020
7000
7000
3F00
0F00
3F00
7000
7000
E000
E000
7020
7FE0
3FE0
1FC0
ENDCHAR
STARTCHAR 0511
ENCODING 1297
SWIDTH 585 0
DWIDTH 13 0
BBX 9 13 2 0
BITMAP
3F00
7F80
FF80
E000
E000
7E00
3E00
FE00
E000
E000
FF80
FF80
3F80
ENDCHAR
STARTCHAR 051A
ENCODING 1306
SWIDTH 585 0
DWIDTH 13 0
BBX 12 20 1 -3
BITMAP
1F00
3F80
7FC0
71E0
F0E0
F0E0
E0E0
E0E0
E0E0
E0E0
E0E0
F0E0
F0E0
71E0
7FC0
3FC0
1F80
01C0
01E0
00F0
ENDCHAR
STARTCHAR 051B
ENCODING 1307
SWIDTH 585 0
DWIDTH 13 0
BBX 11 18 1 -5
BITMAP
3CE0
7EE0
7FE0
F1E0
E1E0
E0E0
E0E0
E0E0
E1E0
F1E0
7FE0
7EE0
3CE0
00E0
00E0
00E0
00E0
00E0
ENDCHAR
STARTCHAR 051C
ENCODING 1308
SWIDTH 585 0
DWIDTH 13 0
BBX 13 17 0 0
BITMAP
E018
E038
E038
E038
6738
6738
67B8
67B8
77B0
7DB0
7DB0
7DB0
7CF0
3CF0
38F0
38F0
38F0
ENDCHAR
STARTCHAR 051D
ENCODING 1309
SWIDTH 585 0
DWIDTH 13 0
BBX 13 13 0 0
BITMAP
E018
E018
E038
6738
6738
6730
77B0
75B0
7DF0
3DF0
3CF0
3CE0
38E0
ENDCHAR
STARTCHAR 0531
ENCODING 1329
SWIDTH 585 0
DWIDTH 13 0
BBX 12 17 1 0
BITMAP
E0E0
E0E0
E0E0
E0E0
E0E0
E0E0
E0E0
E0E0
E0E0
E0E0
E0E0
E2E0
E7E0
F7E0
FFF0
7FE0
1FC0
ENDCHAR
STARTCHAR 0532
ENCODING 1330
SWIDTH 585 0
DWIDTH 13 0
BBX 11 17 1 0
BITMAP
1F00
7FC0
7FC0
F1E0
E0E0
E0E0
E0E0
E000
E000
FFE0
FFE0
FFE0
E000
E000
E000
E000
E000
ENDCHAR
STARTCHAR 0533
ENCODING 1331
SWIDTH 585 0
DWIDTH 13 0
BBX 13 17 0 0
BITMAP
1F80
3FC0
7FE0
70E0
F0E0
F0E0
F0E0
F0E0
70E0
7FF8
3FF8
1FF8
00E0
00E0
00E0
00E0
00E0
ENDCHAR
STARTCHAR 0534
ENCODING 1332
SWIDTH 585 0
DWIDTH 13 0
BBX 13 17 0 0
BITMAP
1F80
3FC0
7FE0
70E0
F0E0
F0E0
F0E0
00E0
00E0
00F8
00F8
00F8
00E0
00E0
00E0
00E0
00E0
ENDCHAR
STARTCHAR 0535
ENCODING 1333
SWIDTH 585 0
DWIDTH 13 0
BBX 11 17 1 0
BITMAP
E000
E000
E000
E000
FFE0
FFE0
FFE0
E000
E000
E000
E0E0
E0E0
E0E0
F1E0
7FC0
7FC0
1F00
ENDCHAR
STARTCHAR 0536
ENCODING 1334
SWIDTH 585 0
DWIDTH 13 0
BBX 12 17 1 0
BITMAP
1F00
7FC0
7FE0
F1E0
E0E0
E0E0
E0F0
00E0
00E0
00E0
01E0
01C0
0380
E700
FFE0
FFE0
FFE0
ENDCHAR
STARTCHAR 0537
ENCODING 1335
SWIDTH 585 0
DWIDTH 13 0
BBX 11 17 1 0
BITMAP
E000
E000
E000
E000
FFE0
FFE0
FFE0
E000
E000
E000
E000
E000
E000
E000
FFC0
FFC0
FFC0
ENDCHAR
STARTCHAR 0538
ENCODING 1336
SWIDTH 585 0
DWIDTH 13 0
BBX 11 17 1 0
BITMAP
1F00
7FC0
7FC0
F1E0
E0E0
E0E0
E0E0
E000
E000
E000
E000
E000
E000
E000
FFE0
FFE0
FFE0
ENDCHAR
STARTCHAR 0539
ENCODING 1337
SWIDTH 585 0
DWIDTH 13 0
BBX 13 17 0 0
BITMAP
1F80
3FE0
7FE0
7070
6070
6070
E070
E3F8
E7F8
E7F8
EE70
EE70
EE70
EE70
E7F0
E7E0
E3C0
ENDCHAR
STARTCHAR 053A
ENCODING 1338
SWIDTH 585 0
DWIDTH 13 0
BBX 13 17 0 0
BITMAP
00E0
00E0
00E0
00E0
1FF8
3FF8
7FF8
70E0
70E0
F0E0
F0E0
F0E0
F0E0
79E0
7FE0
3FC0
1F80
ENDCHAR
STARTCHAR 053B
ENCODING 1339
SWIDTH 585 0
DWIDTH 13 0
BBX 11 17 1 0
BITMAP
E000
E000
E000
E000
FF00
FFC0
FFE0
F1E0
E0E0
E0E0
E0E0
E000
E000
E000
E000
E000
E000
ENDCHAR
STARTCHAR 053C
ENCODING 1340
SWIDTH 585 0
DWIDTH 13 0
BBX 10 17 2 0
BITMAP
E000
E000
E000
E000
E000
E000
E000
E000
E000
E000
E000
E000
E000
E000
FFC0
FFC0
FFC0
ENDCHAR
STARTCHAR 053D
ENCODING 1341
SWIDTH 585 0
DWIDTH 13 0
BBX 12 17 1 0
BITMAP
E000
E000
E000
E000
FE70
FE70
FE70
EE70
EE70
EE70
EE70
EE70
EE70
EE60
EFE0
E7E0
E3C0
ENDCHAR
STARTCHAR 053E
ENCODING 1342
SWIDTH 585 0
DWIDTH 13 0
BBX 13 17 0 0
BITMAP
E1F8
E7F8
EFF8
FF08
FFE0
FFF0
38F0
7878
7078
7038
7038
7038
7078
7870
3FF0
1FE0
0FC0
ENDCHAR
STARTCHAR 053F
ENCODING 1343
SWIDTH 585 0
DWIDTH 13 0
BBX 11 17 1 0
BITMAP
E000
E000
E000
E000
E0E0
E0E0
E0E0
E0E0
F0E0
71E0
7FE0
3FE0
0EE0
00E0
00E0
00E0
00E0
ENDCHAR
STARTCHAR 0540
ENCODING 1344
SWIDTH 585 0
DWIDTH 13 0
BBX 12 18 1 -1
BITMAP
0780
03C0
01C0
01E0
03F0
0FC0
1F80
3E00
7800
F000
F000
F800
FE00
7FC0
0FE0
03E0
00E0
0010
ENDCHAR
STARTCHAR 0541
ENCODING 1345
SWIDTH 585 0
DWIDTH 13 0
BBX 12 17 1 0
BITMAP
1F00
7FC0
7FC0
F1E0
E0E0
E0E0
E0E0
00E0
00E0
00E0
3CE0
FFE0
FFC0
E3C0
FFE0
FFF0
3CE0
ENDCHAR
STARTCHAR 0542
ENCODING 1346
SWIDTH 585 0
DWIDTH 13 0
BBX 13 17 0 0
BITMAP
1F80
3FC0
7FE0
70E0
F0E0
F0E0
F0E0
00E0
00E0
00E0
00E0
00E0
00E0
00E0
00F8
00F8
00F8
ENDCHAR
STARTCHAR 0543
ENCODING 1347
SWIDTH 585 0
DWIDTH 13 0
BBX 12 17 1 0
BITMAP
F070
71F0
7BF0
3FC0
3F00
1E00
1E00
3F00
3F00
7F80
7380
F3C0
E1C0
E1E0
FFE0
FFF0
7FF0
ENDCHAR
STARTCHAR 0544
ENCODING 1348
SWIDTH 585 0
DWIDTH 13 0
BBX 13 17 0 0
BITMAP
F0F8
F0F8
F0F8
F0E0
F0E0
F0E0
F0E0
F0E0
F0E0
F0E0
F0E0
F0E0
F0E0
71E0
7FE0
3FC0
1F80
ENDCHAR
STARTCHAR 0545
ENCODING 1349
SWIDTH 585 0
DWIDTH 13 0
BBX 12 17 1 0
BITMAP
1F80
3FC0
7FE0
70E0
00E0
00E0
FFE0
FFC0
FFE0
00F0
00F0
0070
F0F0
70F0
7FE0
3FC0
1F80
ENDCHAR
STARTCHAR 0546
ENCODING 1350
SWIDTH 585 0
DWIDTH 13 0
BBX 13 17 0 0
BITMAP
F800
F800
F800
3800
3800
3800
3800
3800
3800
3800
3838
3838
3838
3C78
1FF0
1FF0
07C0
ENDCHAR
STARTCHAR 0547
ENCODING 1351
SWIDTH 585 0
DWIDTH 13 0
BBX 12 17 1 0
BITMAP
F800
FF00
FFC0
1FE0
3FE0
7060
F000
E000
E000
E000
E0F0
E0E0
E0E0
F0E0
7FE0
3FC0
1F00
ENDCHAR
STARTCHAR 0548
ENCODING 1352
SWIDTH 585 0
DWIDTH 13 0
BBX 11 17 1 0
BITMAP
1F00
7FC0
7FE0
F1E0
E0E0
E0E0
E0E0
E0E0
E0E0
E0E0
E0E0
E0E0
E0E0
E0E0
E0E0
E0E0
E0E0
ENDCHAR
STARTCHAR 0549
ENCODING 1353
SWIDTH 585 0
DWIDTH 13 0
BBX 12 18 1 -1
BITMAP
1F00
7FC0
7FE0
F1E0
E0E0
E0E0
E0F0
00F0
00E0
00E0
81E0
61C0
7FC0
7F00
3FC0
0FC0
01C0
0040
ENDCHAR
STARTCHAR 054A
ENCODING 1354
SWIDTH 585 0
DWIDTH 13 0
BBX 12 17 1 0
BITMAP
1F80
7FC0
7FE0
EEE0
EE70
CE70
CE70
CE70
0E70
0E70
0E70
0E70
0070
0070
0070
0070
0070
ENDCHAR
STARTCHAR 054B
ENCODING 1355
SWIDTH 585 0
DWIDTH 13 0
BBX 12 17 1 0
BITMAP
1F00
3FC0
7FE0
F0E0
E0E0
E0F0
E0F0
FCF0
FEE0
3EE0
07E0
03C0
0780
E700
FFE0
FFE0
FFE0
ENDCHAR
STARTCHAR 054C
ENCODING 1356
SWIDTH 585 0
DWIDTH 13 0
BBX 13 17 0 0
BITMAP
1F80
3FC0
7FE0
70E0
F0E0
F0E0
F0E0
F0E0
F0E0
F0F8
F0F8
F0F8
F0E0
F0E0
F0E0
F0E0
F0E0
ENDCHAR
STARTCHAR 054D
ENCODING 1357
SWIDTH 585 0
DWIDTH 13 0
BBX 11 17 1 0
BITMAP
E0E0
E0E0
E0E0
E0E0
E0E0
E0E0
E0E0
E0E0
E0E0
E0E0
E0E0
E0E0
F0E0
F1E0
7FE0
3FC0
1F00
ENDCHAR
STARTCHAR 054E
ENCODING 1358
SWIDTH 585 0
DWIDTH 13 0
BBX 13 17 0 0
BITMAP
00E0
00E0
00E0
00E0
00E0
00E0
F0E0
F0E0
70E0
71E0
7FE0
3FE0
0FE0
00E0
00F8
00F8
00F8
ENDCHAR
STARTCHAR 054F
ENCODING 1359
SWIDTH 585 0
DWIDTH 13 0
BBX 11 17 1 0
BITMAP
1F00
3FC0
7FE0
70E0
7000
7000
7C00
3F00
1FC0
07E0
01E0
00E0
F0E0
F0E0
7FE0
3FC0
1F00
ENDCHAR
STARTCHAR 0550
ENCODING 1360
SWIDTH 585 0
DWIDTH 13 0
BBX 11 17 1 0
BITMAP
1F80
7FC0
7FE0
F1E0
E0E0
E0E0
E0E0
E000
E000
E000
E000
E000
E000
E000
E000
E000
E000
ENDCHAR
STARTCHAR 0551
ENCODING 1361
SWIDTH 585 0
DWIDTH 13 0
BBX 12 17 1 0
BITMAP
1F80
3FC0
7FE0
70E0
70E0
78E0
FFE0
FFC0
FFE0
00E0
00F0
0070
F0F0
70F0
7FE0
3FC0
1F80
ENDCHAR
STARTCHAR 0552
ENCODING 1362
SWIDTH 585 0
DWIDTH 13 0
BBX 11 17 1 0
BITMAP
E000
E000
E000
E000
FFE0
FFE0
FFE0
E000
E000
E000
E000
E000
E000
E000
E000
E000
E000
ENDCHAR
STARTCHAR 0553
ENCODING 1363
SWIDTH 585 0
DWIDTH 13 0
BBX 13 17 0 0
BITMAP
0700
1FE0
3FF0
7FF0
6738
E738
E738
E738
E738
E738
6738
6738
7FF0
3FF0
1FC0
0700
0700
ENDCHAR
STARTCHAR 0554
ENCODING 1364
SWIDTH 585 0
DWIDTH 13 0
BBX 12 17 1 0
BITMAP
0F80
3FE0
3FE0
78F0
7070
7070
78F0
7FE0
7FE0
7F80
7000
7000
FFF0
FFF0
FFF0
7000
7000
ENDCHAR
STARTCHAR 0555
ENCODING 1365
SWIDTH 585 0
DWIDTH 13 0
BBX 11 17 1 0
BITMAP
1F00
3F80
7FC0
71E0
F0E0
F0E0
E0E0
E0E0
E0E0
E0E0
E0E0
F0E0
F0E0
71E0
7FC0
3F80
1F00
ENDCHAR
STARTCHAR 0556
ENCODING 1366
SWIDTH 585 0
DWIDTH 13 0
BBX 13 17 0 0
BITMAP
1F00
3F00
7F00
7700
7FE0
3FF0
1FF0
0738
0738
0738
0738
E738
E738
6738
7FF0
3FF0
1FC0
ENDCHAR
STARTCHAR 0559
ENCODING 1369
SWIDTH 585 0
DWIDTH 13 0
BBX 3 6 5 11
BITMAP
20
60
C0
C0
60
20
ENDCHAR
STARTCHAR 055A
ENCODING 1370
SWIDTH 585 0
DWIDTH 13 0
BBX 5 7 4 10
BITMAP
38
38
38
78
70
70
E0
ENDCHAR
STARTCHAR 055B
ENCODING 1371
SWIDTH 585 0
DWIDTH 13 0
BBX 7 4 3 14
BITMAP
1E
3C
78
F0
ENDCHAR
STARTCHAR 055C
ENCODING 1372
SWIDTH 585 0
DWIDTH 13 0
BBX 11 7 1 14
BITMAP
00E0
00E0
07E0
3FC0
7F80
7C00
E000
ENDCHAR
STARTCHAR 055D
ENCODING 1373
SWIDTH 585 0
DWIDTH 13 0
BBX 7 4 3 14
BITMAP
F8
78
3C
1E
ENDCHAR
STARTCHAR 055E
ENCODING 1374
SWIDTH 585 0
DWIDTH 13 0
BBX 12 8 1 14
BITMAP
0780
1FC0
3FE0
70F0
E070
C6F0
C7E0
03C0
ENDCHAR
STARTCHAR 055F
ENCODING 1375
SWIDTH 585 0
DWIDTH 13 0
BBX 9 3 2 15
BITMAP
C000
C000
FF80
ENDCHAR
STARTCHAR 0561
ENCODING 1377
SWIDTH 585 0
DWIDTH 13 0
BBX 12 13 1 0
BITMAP
CE70
CE70
CE70
CE70
CE70
CE70
CE70
CE70
CE70
EE70
EE70
FFF0
77F0
ENDCHAR
STARTCHAR 0562
ENCODING 1378
SWIDTH 585 0
DWIDTH 13 0
BBX 10 18 2 -5
BITMAP
EF00
FF80
FF80
E380
E380
E380
E380
E380
E000
E000
FFC0
FFC0
FFC0
E000
E000
E000
E000
E000
ENDCHAR
STARTCHAR 0563
ENCODING 1379
SWIDTH 585 0
DWIDTH 13 0
BBX 12 18 1 -5
BITMAP
3CC0
7FC0
FFC0
E1C0
E1C0
E1C0
E1C0
E1C0
E1C0
F1C0
FFF0
7FF0
3DF0
01C0
01C0
01C0
01C0
01C0
ENDCHAR
STARTCHAR 0564
ENCODING 1380
SWIDTH 585 0
DWIDTH 13 0
BBX 11 18 1 -5
BITMAP
EF00
FF80
FBC0
F1C0
E1C0
E1C0
E1C0
E1C0
E1C0
E1C0
E1E0
E1E0
E1E0
01C0
01C0
01C0
01C0
01C0
ENDCHAR
STARTCHAR 0565
ENCODING 1381
SWIDTH 585 0
DWIDTH 13 0
BBX 10 17 2 0
BITMAP
E000
E000
E000
E000
FFC0
FFC0
FFC0
E000
E000
E380
E380
E380
E380
E380
F780
FF80
7B80
ENDCHAR
STARTCHAR 0566
ENCODING 1382
SWIDTH 585 0
DWIDTH 13 0
BBX 12 18 1 -5
BITMAP
3CC0
7FC0
FBC0
E1C0
E1C0
E1C0
E1C0
E1C0
E1C0
F1C0
FFC0
7FC0
3DC0
01C0
01C0
01F0
01F0
01F0
ENDCHAR
STARTCHAR 0567
ENCODING 1383
SWIDTH 585 0
DWIDTH 13 0
BBX 9 17 2 0
BITMAP
E000
E000
E000
E000
FF80
FF80
FF80
E000
E000
E000
E000
E000
E000
E000
FF00
FF00
FF00
ENDCHAR
STARTCHAR 0568
ENCODING 1384
SWIDTH 585 0
DWIDTH 13 0
BBX 10 18 2 -5
BITMAP
EF00
FF80
F780
E380
E380
E380
E380
E380
E380
E380
E380
E380
E380
E000
E000
FFC0
FFC0
FFC0
ENDCHAR
STARTCHAR 0569
ENCODING 1385
SWIDTH 585 0
DWIDTH 13 0
BBX 12 18 1 -5
BITMAP
EF00
FFC0
FFC0
E1E0
E0E0
E0E0
E0E0
E7F0
EFF0
F8E0
F8E0
EDC0
E780
E000
E000
E000
E000
E000
ENDCHAR
STARTCHAR 056A
ENCODING 1386
SWIDTH 585 0
DWIDTH 13 0
BBX 12 17 1 0
BITMAP
01C0
01C0
01C0
01C0
1FF0
7FF0
7FF0
E1C0
E1C0
E1C0
E1C0
E1C0
E1C0
E1C0
7FC0
7F80
1E00
ENDCHAR
STARTCHAR 056B
ENCODING 1387
SWIDTH 585 0
DWIDTH 13 0
BBX 10 22 2 -5
BITMAP
E000
E000
E000
E000
EF00
FF80
FF80
E380
E3C0
E3C0
E3C0
E3C0
E3C0
E3C0
E3C0
E3C0
E3C0
E000
E000
E000
E000
E000
ENDCHAR
STARTCHAR 056C
ENCODING 1388
SWIDTH 585 0
DWIDTH 13 0
BBX 6 18 4 -5
BITMAP
E0
E0
E0
E0
E0
E0
E0
E0
E0
E0
E0
E0
E0
E0
E0
FC
FC
FC
ENDCHAR
STARTCHAR 056D
ENCODING 1389
SWIDTH 585 0
DWIDTH 13 0
BBX 12 22 1 -5
BITMAP
C000
C000
C000
C000
DC70
FC70
FE70
EE70
CE70
CE70
CE70
CE70
CE70
CE70
C7F0
C7F0
C370
C000
C000
C000
C000
C000
ENDCHAR
STARTCHAR 056E
ENCODING 1390
SWIDTH 585 0
DWIDTH 13 0
BBX 11 18 1 0
BITMAP
1000
1C00
3C00
7800
3E00
1FE0
3FE0
7FE0
71E0
E0E0
E0E0
E0E0
E0E0
F0E0
71E0
7FC0
3FC0
1F00
ENDCHAR
STARTCHAR 056F
ENCODING 1391
SWIDTH 585 0
DWIDTH 13 0
BBX 10 22 2 -5
BITMAP
E000
E000
E000
E000
E3C0
E3C0
E3C0
E3C0
E3C0
E3C0
E3C0
E3C0
E3C0
E3C0
FFC0
FFC0
7BC0
03C0
03C0
03C0
03C0
03C0
ENDCHAR
STARTCHAR 0570
ENCODING 1392
SWIDTH 585 0
DWIDTH 13 0
BBX 10 17 2 0
BITMAP
E000
E000
E000
E000
EF00
FF80
FF80
E3C0
E3C0
E3C0
E3C0
E3C0
E3C0
E3C0
E3C0
E3C0
E3C0
ENDCHAR
STARTCHAR 0571
ENCODING 1393
SWIDTH 585 0
DWIDTH 13 0
BBX 10 17 2 0
BITMAP
3800
7000
7200
7E00
3E00
1C00
3F00
7780
7380
E3C0
E1C0
E1C0
E3C0
E3C0
F3C0
FDC0
79C0
ENDCHAR
STARTCHAR 0572
ENCODING 1394
SWIDTH 585 0
DWIDTH 13 0
BBX 11 18 1 -5
BITMAP
EF00
FF80
FFC0
F1C0
E1C0
E1C0
E1C0
E1C0
E1C0
E1C0
E1C0
E1C0
E1C0
01C0
01C0
01E0
01E0
01E0
ENDCHAR
STARTCHAR 0573
ENCODING 1395
SWIDTH 585 0
DWIDTH 13 0
BBX 10 17 2 0
BITMAP
0380
0F80
1E40
3800
FC00
FF00
FF80
F380
E3C0
E1C0
E1C0
E1C0
E1C0
E3C0
FFC0
7DC0
39C0
ENDCHAR
STARTCHAR 0574
ENCODING 1396
SWIDTH 585 0
DWIDTH 13 0
BBX 11 17 2 0
BITMAP
03E0
03E0
03E0
03C0
E3C0
E3C0
E3C0
E3C0
E3C0
E3C0
E3C0
E3C0
E3C0
E3C0
F7C0
FFC0
7BC0
ENDCHAR
STARTCHAR 0575
ENCODING 1397
SWIDTH 585 0
DWIDTH 13 0
BBX 8 18 3 -5
BITMAP
0F
0F
0F
0F
0F
0F
0F
0F
0F
0F
0F
0F
0F
0F
0E
FE
FE
FC
ENDCHAR
STARTCHAR 0576
ENCODING 1398
SWIDTH 585 0
DWIDTH 13 0
BBX 11 17 1 0
BITMAP
F800
F800
F800
7800
78E0
78E0
78E0
78E0
78E0
78E0
78E0
78E0
78E0
38E0
3DE0
3FE0
1EE0
ENDCHAR
STARTCHAR 0577
ENCODING 1399
SWIDTH 585 0
DWIDTH 13 0
BBX 10 18 2 -5
BITMAP
3E00
7F00
FF80
E3C0
43C0
03C0
0380
0380
0700
0F00
1E00
3C00
7800
F000
E000
FF80
FF80
7F80
ENDCHAR
STARTCHAR 0578
ENCODING 1400
SWIDTH 585 0
DWIDTH 13 0
BBX 10 13 2 0
BITMAP
EF00
FF80
FF80
E3C0
E3C0
E3C0
E3C0
E3C0
E3C0
E3C0
E3C0
E3C0
E3C0
ENDCHAR
STARTCHAR 0579
ENCODING 1401
SWIDTH 585 0
DWIDTH 13 0
BBX 9 18 2 -5
BITMAP
1800
3C00
3800
3800
3900
3F00
1F80
0F00
1E00
1C00
3800
3800
7000
7000
6000
FF80
7F80
7F80
ENDCHAR
STARTCHAR 057A
ENCODING 1402
SWIDTH 585 0
DWIDTH 13 0
BBX 12 18 1 -5
BITMAP
CE70
CE70
CE70
CE70
CE70
CE70
CE70
CE70
CE70
EE70
EFF0
FFF0
7370
0070
0070
0070
0070
0070
ENDCHAR
STARTCHAR 057B
ENCODING 1403
SWIDTH 585 0
DWIDTH 13 0
BBX 10 18 2 -5
BITMAP
3E00
7F80
FF80
E3C0
C1C0
E1C0
E3C0
7380
3780
3F00
1E00
3C00
7800
7000
E000
FF80
FF80
7F80
ENDCHAR
STARTCHAR 057C
ENCODING 1404
SWIDTH 585 0
DWIDTH 13 0
BBX 11 13 1 0
BITMAP
E700
EFC0
FBC0
F1C0
F1C0
E1C0
E1C0
E1C0
E1C0
E180
E3E0
E3E0
E3E0
ENDCHAR
STARTCHAR 057D
ENCODING 1405
SWIDTH 585 0
DWIDTH 13 0
BBX 10 13 2 0
BITMAP
E3C0
E3C0
E3C0
E3C0
E3C0
E3C0
E3C0
E3C0
E3C0
E3C0
F7C0
FFC0
79C0
ENDCHAR
STARTCHAR 057E
ENCODING 1406
SWIDTH 585 0
DWIDTH 13 0
BBX 11 22 1 -5
BITMAP
01C0
01C0
01C0
01C0
E1C0
E1C0
E1C0
E1C0
E1C0
E1C0
E1C0
E1C0
E1C0
E3C0
FFC0
7DC0
39C0
01C0
01C0
01E0
01E0
01E0
ENDCHAR
STARTCHAR 057F
ENCODING 1407
SWIDTH 585 0
DWIDTH 13 0
BBX 11 13 1 0
BITMAP
CFC0
CFE0
CE60
CE60
CE60
CE60
CE60
CE60
CE60
EE60
EE60
FE60
7660
ENDCHAR
STARTCHAR 0580
ENCODING 1408
SWIDTH 585 0
DWIDTH 13 0
BBX 10 18 2 -5
BITMAP
EF00
FF80
FF80
E380
E3C0
E3C0
E3C0
E3C0
E3C0
E3C0
E3C0
E3C0
E3C0
E000
E000
E000
E000
E000
ENDCHAR
STARTCHAR 0581
ENCODING 1409
SWIDTH 585 0
DWIDTH 13 0
BBX 11 18 1 -5
BITMAP
1EE0
3FE0
7FE0
71E0
F0E0
E0E0
E0E0
F0E0
F0E0
71E0
7FE0
3FE0
1EE0
00E0
41E0
3FC0
3FC0
3F00
ENDCHAR
STARTCHAR 0582
ENCODING 1410
SWIDTH 585 0
DWIDTH 13 0
BBX 9 13 2 0
BITMAP
E000
E000
E000
E000
E000
E000
E000
E000
E000
E000
FF80
FF80
FF80
ENDCHAR
STARTCHAR 0583
ENCODING 1411
SWIDTH 585 0
DWIDTH 13 0
BBX 11 22 1 -5
BITMAP
0E00
0E00
0E00
0E00
CEC0
CFE0
CE60
CE60
CE60
CE60
CE60
CE60
CE60
EE60
EE60
FE60
7E60
0E00
0E00
0E00
0E00
0E00
ENDCHAR
STARTCHAR 0584
ENCODING 1412
SWIDTH 585 0
DWIDTH 13 0
BBX 12 18 1 -5
BITMAP
7780
7FC0
7DE0
78E0
70F0
70F0
70F0
70F0
70F0
78E0
7FE0
7FC0
7780
7000
FFE0
FFE0
FFE0
7000
ENDCHAR
STARTCHAR 0585
ENCODING 1413
SWIDTH 585 0
DWIDTH 13 0
BBX 11 13 1 0
BITMAP
1F00
3FC0
7FC0
71E0
F0E0
E0E0
E0E0
E0E0
E0E0
71E0
7FC0
3FC0
1F00
ENDCHAR
STARTCHAR 0586
ENCODING 1414
SWIDTH 585 0
DWIDTH 13 0
BBX 13 22 0 -5
BITMAP
1F00
3F00
3700
7700
7FE0
7FF0
3FF0
1FF8
0778
0738
0738
0738
0738
2738
FF70
7FF0
1FC0
0700
0700
0700
0700
0700
ENDCHAR
STARTCHAR 0587
ENCODING 1415
SWIDTH 585 0
DWIDTH 13 0
BBX 12 17 1 0
BITMAP
E000
E000
E000
E000
E380
E380
E380
E380
E380
E380
E380
E380
E380
E380
F780
FFF0
7BF0
ENDCHAR
STARTCHAR 0589
ENCODING 1417
SWIDTH 585 0
DWIDTH 13 0
BBX 4 12 5 0
BITMAP
F0
F0
F0
F0
00
00
00
00
F0
F0
F0
F0
ENDCHAR
STARTCHAR 058A
ENCODING 1418
SWIDTH 585 0
DWIDTH 13 0
BBX 7 4 3 4
BITMAP
C2
FE
FE
7C
ENDCHAR
STARTCHAR 0E3F
ENCODING 3647
SWIDTH 585 0
DWIDTH 13 0
BBX 10 21 2 -3
BITMAP
0800
0800
FE00
FF80
FFC0
EBC0
E9C0
E9C0
FF80
FF00
FF80
E9C0
E9C0
E9C0
E9C0
FFC0
FFC0
FF00
0800
0800
0800
ENDCHAR
STARTCHAR 10D0
ENCODING 4304
SWIDTH 585 0
DWIDTH 13 0
BBX 11 13 1 0
BITMAP
1C00
1C00
1F00
0F80
03C0
01E0
F0E0
E0E0
E0E0
F0E0
7BE0
7FC0
1F80
ENDCHAR
STARTCHAR 10D1
ENCODING 4305
SWIDTH 585 0
DWIDTH 13 0
BBX 11 17 1 0
BITMAP
7000
7C00
3E00
0E00
0E00
0E00
3F80
79C0
70E0
E0E0
E0E0
E0E0
E0E0
F0E0
7BE0
7FC0
1F00
ENDCHAR
STARTCHAR 10D2
ENCODING 4306
SWIDTH 585 0
DWIDTH 13 0
BBX 11 17 1 -5
BITMAP
3F00
7F80
73C0
61C0
61C0
4380
1F80
7FC0
FFE0
F0E0
E0E0
E0E0
E0E0
E0E0
7BE0
7FC0
1F80
ENDCHAR
STARTCHAR 10D3
ENCODING 4307
SWIDTH 585 0
DWIDTH 13 0
BBX 13 17 0 -5
BITMAP
3DE0
7FF0
7778
E738
E738
E738
E738
E738
6738
6378
73F0
31E0
3800
3E00
7F80
23C0
01E0
ENDCHAR
STARTCHAR 10D4
ENCODING 4308
SWIDTH 585 0
DWIDTH 13 0
BBX 11 16 1 -5
BITMAP
1F80
3FC0
70E0
70E0
70E0
70E0
20E0
00E0
40E0
70E0
E0E0
E0E0
E0E0
F9E0
7FC0
1F80
ENDCHAR
STARTCHAR 10D5
ENCODING 4309
SWIDTH 585 0
DWIDTH 13 0
BBX 11 17 1 -5
BITMAP
1F80
3FC0
79E0
70E0
70E0
70E0
60E0
01E0
07C0
07C0
70E0
E0E0
E0E0
E0E0
F9E0
7FC0
1F80
ENDCHAR
STARTCHAR 10D6
ENCODING 4310
SWIDTH 585 0
DWIDTH 13 0
BBX 11 17 1 0
BITMAP
3E00
7F00
F780
E380
E380
F300
7F00
3FC0
7BE0
F0E0
E0E0
E0E0
E0E0
F0E0
79E0
7FC0
1F80
ENDCHAR
STARTCHAR 10D7
ENCODING 4311
SWIDTH 585 0
DWIDTH 13 0
BBX 13 12 0 0
BITMAP
3FE0
7FF0
7338
E338
E338
E338
E338
E338
6338
7730
7E70
1EE0
ENDCHAR
STARTCHAR 10D8
ENCODING 4312
SWIDTH 585 0
DWIDTH 13 0
BBX 11 12 1 0
BITMAP
1F00
3FC0
79E0
F0E0
E0E0
E0E0
E0E0
E0E0
E0E0
70E0
71C0
3B80
ENDCHAR
STARTCHAR 10D9
ENCODING 4313
SWIDTH 585 0
DWIDTH 13 0
BBX 11 17 1 -5
BITMAP
1E00
1FC0
07C0
00E0
00E0
00E0
00E0
07C0
07C0
41E0
70E0
E0E0
E0E0
F0E0
79E0
7FC0
1F80
ENDCHAR
STARTCHAR 10DA
ENCODING 4314
SWIDTH 585 0
DWIDTH 13 0
BBX 11 17 1 -5
BITMAP
1F00
7FC0
7BE0
F0E0
E0E0
E0E0
E0E0
E0E0
F1C0
71C0
78C0
3800
3E00
7F00
7F80
2380
03C0
ENDCHAR
STARTCHAR 10DB
ENCODING 4315
SWIDTH 585 0
DWIDTH 13 0
BBX 11 17 1 0
BITMAP
3F80
7FC0
F1E0
F0E0
00E0
1FE0
7FE0
79E0
F0E0
E0E0
E0E0
E0E0
E0E0
F0E0
79E0
3FC0
1F80
ENDCHAR
STARTCHAR 10DC
ENCODING 4316
SWIDTH 585 0
DWIDTH 13 0
BBX 11 17 1 0
BITMAP
3FC0
7FC0
F000
E000
E000
EF00
FFC0
F9E0
F0E0
E0E0
E0E0
E0E0
E0E0
F0E0
79E0
7FC0
1F00
ENDCHAR
STARTCHAR 10DD
ENCODING 4317
SWIDTH 585 0
DWIDTH 13 0
BBX 13 12 0 0
BITMAP
3DE0
7FF0
7778
6738
E738
E738
E738
E738
E038
7038
7070
38F0
ENDCHAR
STARTCHAR 10DE
ENCODING 4318
SWIDTH 585 0
DWIDTH 13 0
BBX 11 17 1 0
BITMAP
7800
3F00
1FC0
01E0
00E0
01E0
0FC0
0F80
01C0
70E0
E0E0
E0E0
E0E0
F0E0
7BE0
7FC0
1F80
ENDCHAR
STARTCHAR 10DF
ENCODING 4319
SWIDTH 585 0
DWIDTH 13 0
BBX 11 17 1 -5
BITMAP
00E0
7FE0
FFE0
F8E0
3CE0
1CE0
0EE0
0CE0
FCE0
F8E0
00E0
00E0
E0E0
F0E0
79E0
7FC0
1F80
ENDCHAR
STARTCHAR 10E0
ENCODING 4320
SWIDTH 585 0
DWIDTH 13 0
BBX 13 18 0 0
BITMAP
0040
03C0
07C0
1F00
1C00
3800
7DE0
7FF0
7778
E338
E338
E338
E338
E338
6038
7038
7070
38F0
ENDCHAR
STARTCHAR 10E1
ENCODING 4321
SWIDTH 585 0
DWIDTH 13 0
BBX 11 17 1 0
BITMAP
E000
E000
E000
E100
E380
E700
E700
E780
E3E0
E0E0
E0E0
E0E0
E0E0
F0E0
7BE0
7FC0
1F80
ENDCHAR
STARTCHAR 10E2
ENCODING 4322
SWIDTH 585 0
DWIDTH 13 0
BBX 13 19 0 -5
BITMAP
0300
0300
0300
0300
1FC0
3FE0
7B70
7378
F338
E338
E338
E038
E038
F038
7038
7070
7CF0
3FE0
0FC0
ENDCHAR
STARTCHAR 10E3
ENCODING 4323
SWIDTH 585 0
DWIDTH 13 0
BBX 12 17 0 -5
BITMAP
89E0
DFF0
F770
6670
0670
0670
0670
0670
0070
1070
3870
3870
3870
3870
3CF0
1FE0
0FC0
ENDCHAR
STARTCHAR 10E4
ENCODING 4324
SWIDTH 585 0
DWIDTH 13 0
BBX 13 17 0 -5
BITMAP
3FE0
7FF0
7338
E338
E338
E338
E338
E330
7360
7F70
3E38
0038
3038
3838
1C78
1FF0
07E0
ENDCHAR
STARTCHAR 10E5
ENCODING 4325
SWIDTH 585 0
DWIDTH 13 0
BBX 11 22 1 -5
BITMAP
00E0
00E0
00E0
00E0
00E0
1EE0
3FE0
7BE0
70E0
70E0
70E0
60E0
00E0
00E0
60E0
F0E0
E0E0
E0E0
F0E0
79E0
7FC0
1F80
ENDCHAR
STARTCHAR 10E6
ENCODING 4326
SWIDTH 585 0
DWIDTH 13 0
BBX 13 17 0 -5
BITMAP
3DE0
7FF0
7738
6738
E738
E738
E738
E738
7038
7030
7870
3C80
1E00
1F80
3FC0
11E0
00E0
ENDCHAR
STARTCHAR 10E7
ENCODING 4327
SWIDTH 585 0
DWIDTH 13 0
BBX 11 17 1 -5
BITMAP
3CE0
78E0
70E0
F0E0
E0E0
E0E0
F0E0
F0E0
7BE0
7FE0
1EE0
00E0
E0E0
F0E0
79E0
7FC0
1F80
ENDCHAR
STARTCHAR 10E8
ENCODING 4328
SWIDTH 585 0
DWIDTH 13 0
BBX 12 17 0 0
BITMAP
79E0
7FF0
F6F0
E670
E070
0070
1FF0
3FF0
78F0
7070
7070
7070
7070
7870
3CF0
1FE0
0FC0
ENDCHAR
STARTCHAR 10E9
ENCODING 4329
SWIDTH 585 0
DWIDTH 13 0
BBX 11 17 1 0
BITMAP
3F00
7F80
F380
E1C0
E180
EF80
FFC0
FBC0
F0E0
E0E0
E0E0
E0E0
E0E0
E0E0
E1C0
E3C0
E780
ENDCHAR
STARTCHAR 10EA
ENCODING 4330
SWIDTH 585 0
DWIDTH 13 0
BBX 12 18 1 -5
BITMAP
4000
7700
7780
73C0
E1E0
E0E0
E0E0
E0E0
E7C0
E7E0
E0E0
E070
E070
E070
F0E0
79E0
3FC0
1F80
ENDCHAR
STARTCHAR 10EB
ENCODING 4331
SWIDTH 585 0
DWIDTH 13 0
BBX 11 17 1 0
BITMAP
00E0
00E0
00E0
00E0
00E0
1EE0
3FE0
7BE0
F0E0
F0E0
E0E0
E0E0
F0E0
F0E0
7BE0
7FC0
1F80
ENDCHAR
STARTCHAR 10EC
ENCODING 4332
SWIDTH 585 0
DWIDTH 13 0
BBX 12 17 1 0
BITMAP
38E0
FDF0
F770
E270
E070
E000
FF80
FFC0
F1E0
E0E0
E0E0
E0E0
E0E0
F0E0
7BE0
7FC0
1F00
ENDCHAR
STARTCHAR 10ED
ENCODING 4333
SWIDTH 585 0
DWIDTH 13 0
BBX 11 22 1 -5
BITMAP
0700
0700
0700
0700
0700
3F00
7F00
7380
E3E0
E3E0
7780
7F00
3F00
0780
03C0
61E0
F0E0
E0E0
E0E0
F9E0
7FC0
1F80
ENDCHAR
STARTCHAR 10EE
ENCODING 4334
SWIDTH 585 0
DWIDTH 13 0
BBX 11 17 1 0
BITMAP
E000
E000
E000
E000
E000
EF00
FFC0
FBE0
F0E0
E0E0
E0E0
E0E0
E0E0
F0E0
7BE0
3FC0
1F00
ENDCHAR
STARTCHAR 10EF
ENCODING 4335
SWIDTH 585 0
DWIDTH 13 0
BBX 11 19 1 -5
BITMAP
0E00
0E00
0E00
EE00
FE00
FFE0
0FE0
0E60
0E00
0F00
47C0
63C0
F0E0
E0E0
E0E0
F0E0
F9E0
7FC0
1F80
ENDCHAR
STARTCHAR 10F0
ENCODING 4336
SWIDTH 585 0
DWIDTH 13 0
BBX 11 17 1 0
BITMAP
3800
1F80
0FE0
01E0
00E0
0FE0
0FC0
00E0
00E0
0FE0
0FC0
E0E0
E0E0
E0E0
79E0
7FC0
1F80
ENDCHAR
STARTCHAR 10F1
ENCODING 4337
SWIDTH 585 0
DWIDTH 13 0
BBX 11 22 1 -5
BITMAP
0600
07C0
03E0
00E0
E0E0
E7E0
77E0
70E0
70E0
70E0
77C0
77E0
E0E0
E0E0
E0E0
E7C0
E7E0
E0E0
F0E0
79E0
3FE0
1F80
ENDCHAR
STARTCHAR 10F2
ENCODING 4338
SWIDTH 585 0
DWIDTH 13 0
BBX 11 15 1 -3
BITMAP
1F00
3FC0
7BE0
F0E0
E0E0
E0E0
E0E0
E0E0
F1E0
7FC0
3FC0
1F80
FFE0
F1E0
C060
ENDCHAR
STARTCHAR 10F3
ENCODING 4339
SWIDTH 585 0
DWIDTH 13 0
BBX 11 16 1 -4
BITMAP
FFE0
FFE0
F0E0
F1E0
F1C0
01C0
1F80
1FC0
03E0
00E0
F0E0
E0E0
E0E0
71E0
7FC0
1F80
ENDCHAR
STARTCHAR 10F4
ENCODING 4340
SWIDTH 585 0
DWIDTH 13 0
BBX 11 22 1 -5
BITMAP
1C00
7C00
F800
E000
E020
E060
F1E0
7FE0
1FE0
00E0
00E0
01C0
1F80
1F80
01E0
00E0
00E0
E0E0
F0E0
79E0
7FC0
1F80
ENDCHAR
STARTCHAR 10F5
ENCODING 4341
SWIDTH 585 0
DWIDTH 13 0
BBX 12 17 1 0
BITMAP
3F80
7FC0
F1E0
E0E0
F0E0
7FF0
3FF0
00E0
00E0
3FF0
7FF0
F0E0
E0E0
E0E0
F3C0
7FC0
3F00
ENDCHAR
STARTCHAR 10F6
ENCODING 4342
SWIDTH 585 0
DWIDTH 13 0
BBX 13 17 0 -5
BITMAP
3DE0
7FF0
7738
F338
F338
F338
F338
F338
F338
7338
7BF0
3BE0
0300
0700
0F00
1E00
1C00
ENDCHAR
STARTCHAR 10F7
ENCODING 4343
SWIDTH 585 0
DWIDTH 13 0
BBX 12 17 1 -5
BITMAP
1F00
3F80
3BC0
71C0
73C0
0780
1F80
7F00
7C40
F0E0
E0E0
E0F0
E0F0
E0E0
F9E0
7FC0
1F80
ENDCHAR
STARTCHAR 10F8
ENCODING 4344
SWIDTH 585 0
DWIDTH 13 0
BBX 11 18 1 -5
BITMAP
0080
E780
E3C0
E1E0
E0E0
E0E0
E0E0
E0E0
E0E0
F1E0
FFC0
FF80
E000
E0E0
E0E0
79E0
7FC0
1F80
ENDCHAR
STARTCHAR 10F9
ENCODING 4345
SWIDTH 585 0
DWIDTH 13 0
BBX 12 16 1 -5
BITMAP
1F80
7FC0
E0E0
E0E0
E0F0
E0E0
F9E0
7FE0
3F80
1F00
3C00
39C0
39C0
39C0
3FC0
1F80
ENDCHAR
STARTCHAR 10FA
ENCODING 4346
SWIDTH 585 0
DWIDTH 13 0
BBX 11 14 1 -2
BITMAP
1F00
3FC0
79E0
70E0
F0E0
F0E0
70E0
71C0
79C0
3840
1E00
7F80
7300
1200
ENDCHAR
STARTCHAR 10FB
ENCODING 4347
SWIDTH 585 0
DWIDTH 13 0
BBX 7 11 3 1
BITMAP
E0
E0
00
00
06
06
00
00
00
E0
E0
ENDCHAR
STARTCHAR 10FC
ENCODING 4348
SWIDTH 585 0
DWIDTH 13 0
BBX 5 9 4 8
BITMAP
78
C0
C0
F0
D8
C8
C8
D8
70
ENDCHAR
STARTCHAR 1E80
ENCODING 7808
SWIDTH 585 0
DWIDTH 13 0
BBX 13 21 0 0
BITMAP
1E00
0600
0300
0000
E018
E038
E038
E038
6738
6738
67B8
67B8
77B0
7DB0
7DB0
7DB0
7CF0
3CF0
38F0
38F0
38F0
ENDCHAR
STARTCHAR 1E81
ENCODING 7809
SWIDTH 585 0
DWIDTH 13 0
BBX 13 19 0 0
BITMAP
3800
1800
0C00
0600
0300
0000
E018
E018
E038
6738
6738
6730
77B0
75B0
7DF0
3DF0
3CF0
3CE0
38E0
ENDCHAR
STARTCHAR 1E82
ENCODING 7810
SWIDTH 585 0
DWIDTH 13 0
BBX 13 21 0 0
BITMAP
01C0
0380
0700
0000
E018
E038
E038
E038
6738
6738
67B8
67B8
77B0
7DB0
7DB0
7DB0
7CF0
3CF0
38F0
38F0
38F0
ENDCHAR
STARTCHAR 1E83
ENCODING 7811
SWIDTH 585 0
DWIDTH 13 0
BBX 13 19 0 0
BITMAP
0070
00E0
01C0
0380
0300
0000
E018
E018
E038
6738
6738
6730
77B0
75B0
7DF0
3DF0
3CF0
3CE0
38E0
ENDCHAR
STARTCHAR 1E84
ENCODING 7812
SWIDTH 585 0
DWIDTH 13 0
BBX 13 21 0 0
BITMAP
1CC0
1CC0
1CC0
0000
E018
E038
E038
E038
6738
6738
67B8
67B8
77B0
7DB0
7DB0
7DB0
7CF0
3CF0
38F0
38F0
38F0
ENDCHAR
STARTCHAR 1E85
ENCODING 7813
SWIDTH 585 0
DWIDTH 13 0
BBX 13 18 0 0
BITMAP
1CC0
1CC0
1CC0
0000
0000
E018
E018
E038
6738
6738
6730
77B0
75B0
7DF0
3DF0
3CF0
3CE0
38E0
ENDCHAR
STARTCHAR 1EBC
ENCODING 7868
SWIDTH 585 0
DWIDTH 13 0
BBX 10 21 2 0
BITMAP
3980
7F80
6700
0000
FFC0
FFC0
FFC0
E000
E000
E000
E000
FF80
FF80
FF80
E000
E000
E000
E000
FFC0
FFC0
FFC0
ENDCHAR
STARTCHAR 1EBD
ENCODING 7869
SWIDTH 585 0
DWIDTH 13 0
BBX 11 18 1 0
BITMAP
1C80
3F80
2380
0000
0000
1F00
3FC0
7FC0
F0E0
E0E0
FFE0
FFE0
FFE0
E000
F020
7FE0
3FE0
1FC0
ENDCHAR
STARTCHAR 1EF2
ENCODING 7922
SWIDTH 585 0
DWIDTH 13 0
BBX 13 21 0 0
BITMAP
1E00
0600
0300
0000
F038
7078
7870
38F0
3CE0
1DE0
1FC0
0FC0
0F80
0780
0700
0700
0700
0700
0700
0700
0700
ENDCHAR
STARTCHAR 1EF3
ENCODING 7923
SWIDTH 585 0
DWIDTH 13 0
BBX 12 24 1 -5
BITMAP
7000
3000
1800
1C00
0E00
0000
E0F0
F0E0
70E0
71E0
79C0
39C0
39C0
3F80
1F80
1F80
0F00
0F00
0F00
0E00
0E00
FC00
FC00
F800
ENDCHAR
STARTCHAR 1EF8
ENCODING 7928
SWIDTH 585 0
DWIDTH 13 0
BBX 13 21 0 0
BITMAP
0E60
1FC0
19C0
0000
F038
7078
7870
38F0
3CE0
1DE0
1FC0
0FC0
0F80
0780
0700
0700
0700
0700
0700
0700
0700
ENDCHAR
STARTCHAR 1EF9
ENCODING 7929
SWIDTH 585 0
DWIDTH 13 0
BBX 12 23 1 -5
BITMAP
1CC0
1EC0
3380
3180
0000
E0F0
F0E0
70E0
71E0
79C0
39C0
39C0
3F80
1F80
1F80
0F00
0F00
0F00
0E00
0E00
FC00
FC00
F800
ENDCHAR
STARTCHAR 2000
ENCODING 8192
SWIDTH 585 0
DWIDTH 13 0
BBX 0 0 0 0
BITMAP
ENDCHAR
STARTCHAR 2001
ENCODING 8193
SWIDTH 585 0
DWIDTH 13 0
BBX 0 0 0 0
BITMAP
ENDCHAR
STARTCHAR 2002
ENCODING 8194
SWIDTH 585 0
DWIDTH 13 0
BBX 0 0 0 0
BITMAP
ENDCHAR
STARTCHAR 2003
ENCODING 8195
SWIDTH 585 0
DWIDTH 13 0
BBX 0 0 0 0
BITMAP
ENDCHAR
STARTCHAR 2004
ENCODING 8196
SWIDTH 585 0
DWIDTH 13 0
BBX 0 0 0 0
BITMAP
ENDCHAR
STARTCHAR 2005
ENCODING 8197
SWIDTH 585 0
DWIDTH 13 0
BBX 0 0 0 0
BITMAP
ENDCHAR
STARTCHAR 2006
ENCODING 8198
SWIDTH 585 0
DWIDTH 13 0
BBX 0 0 0 0
BITMAP
ENDCHAR
STARTCHAR 2007
ENCODING 8199
SWIDTH 585 0
DWIDTH 13 0
BBX 0 0 0 0
BITMAP
ENDCHAR
STARTCHAR 2008
ENCODING 8200
SWIDTH 585 0
DWIDTH 13 0
BBX 0 0 0 0
BITMAP
ENDCHAR
STARTCHAR 2009
ENCODING 8201
SWIDTH 585 0
DWIDTH 13 0
BBX 0 0 0 0
BITMAP
ENDCHAR
STARTCHAR 200A
ENCODING 8202
SWIDTH 585 0
DWIDTH 13 0
BBX 0 0 0 0
BITMAP
ENDCHAR
STARTCHAR 2010
ENCODING 8208
SWIDTH 585 0
DWIDTH 13 0
BBX 7 3 3 5
BITMAP
FE
FE
FE
ENDCHAR
STARTCHAR 2011
ENCODING 8209
SWIDTH 585 0
DWIDTH 13 0
BBX 7 3 3 5
BITMAP
FE
FE
FE
ENDCHAR
STARTCHAR 2012
ENCODING 8210
SWIDTH 585 0
DWIDTH 13 0
BBX 10 3 2 5
BITMAP
FFC0
FFC0
FFC0
ENDCHAR
STARTCHAR 2013
ENCODING 8211
SWIDTH 585 0
DWIDTH 13 0
BBX 7 3 3 5
BITMAP
FE
FE
FE
ENDCHAR
STARTCHAR 2014
ENCODING 8212
SWIDTH 585 0
DWIDTH 13 0
BBX 13 3 0 5
BITMAP
FFF8
FFF8
FFF8
ENDCHAR
STARTCHAR 2015
ENCODING 8213
SWIDTH 585 0
DWIDTH 13 0
BBX 13 3 0 5
BITMAP
FFF8
FFF8
FFF8
ENDCHAR
STARTCHAR 2016
ENCODING 8214
SWIDTH 585 0
DWIDTH 13 0
BBX 8 23 3 -5
BITMAP
C7
C7
C7
C7
C7
C7
C7
C7
C7
C7
C7
C7
C7
C7
C7
C7
C7
C7
C7
C7
C7
C7
C7
ENDCHAR
STARTCHAR 2017
ENCODING 8215
SWIDTH 585 0
DWIDTH 13 0
BBX 13 6 0 -5
BITMAP
FFF8
FFF8
FFF8
FFF8
FFF8
FFF8
ENDCHAR
STARTCHAR 2018
ENCODING 8216
SWIDTH 585 0
DWIDTH 13 0
BBX 4 7 5 11
BITMAP
30
70
70
E0
E0
E0
E0
ENDCHAR
STARTCHAR 2019
ENCODING 8217
SWIDTH 585 0
DWIDTH 13 0
BBX 4 7 5 11
BITMAP
70
70
70
70
E0
E0
C0
ENDCHAR
STARTCHAR 201A
ENCODING 8218
SWIDTH 585 0
DWIDTH 13 0
BBX 4 7 4 -3
BITMAP
70
70
70
70
70
E0
E0
ENDCHAR
STARTCHAR 201B
ENCODING 8219
SWIDTH 585 0
DWIDTH 13 0
BBX 4 7 5 11
BITMAP
E0
E0
E0
E0
70
70
30
ENDCHAR
STARTCHAR 201C
ENCODING 8220
SWIDTH 585 0
DWIDTH 13 0
BBX 10 7 2 11
BITMAP
31C0
7180
E380
E380
E780
E780
E780
ENDCHAR
STARTCHAR 201D
ENCODING 8221
SWIDTH 585 0
DWIDTH 13 0
BBX 10 7 2 11
BITMAP
73C0
73C0
73C0
7380
E380
E300
C700
ENDCHAR
STARTCHAR 201E
ENCODING 8222
SWIDTH 585 0
DWIDTH 13 0
BBX 10 7 2 -3
BITMAP
73C0
73C0
73C0
7380
E380
E300
C700
ENDCHAR
STARTCHAR 201F
ENCODING 8223
SWIDTH 585 0
DWIDTH 13 0
BBX 10 7 2 11
BITMAP
E780
E780
E780
E380
E380
7180
71C0
ENDCHAR
STARTCHAR 2020
ENCODING 8224
SWIDTH 585 0
DWIDTH 13 0
BBX 10 19 2 -2
BITMAP
1C00
1C00
1C00
1C00
FFC0
FFC0
FFC0
1C00
1C00
1C00
1C00
1C00
1C00
1C00
1C00
1C00
1C00
1C00
1C00
ENDCHAR
STARTCHAR 2021
ENCODING 8225
SWIDTH 585 0
DWIDTH 13 0
BBX 10 19 2 -2
BITMAP
1C00
1C00
1C00
1C00
FFC0
FFC0
FFC0
1C00
1C00
1C00
1C00
1C00
FFC0
FFC0
FFC0
1C00
1C00
1C00
1C00
ENDCHAR
STARTCHAR 2022
ENCODING 8226
SWIDTH 585 0
DWIDTH 13 0
BBX 8 8 3 5
BITMAP
3C
7E
FE
FF
FF
FE
7E
3C
ENDCHAR
STARTCHAR 2023
ENCODING 8227
SWIDTH 585 0
DWIDTH 13 0
BBX 8 10 3 3
BITMAP
80
E0
F0
FC
FF
FE
F8
E0
C0
80
ENDCHAR
STARTCHAR 2024
ENCODING 8228
SWIDTH 585 0
DWIDTH 13 0
BBX 3 4 5 0
BITMAP
E0
E0
E0
E0
ENDCHAR
STARTCHAR 2025
ENCODING 8229
SWIDTH 585 0
DWIDTH 13 0
BBX 8 4 3 0
BITMAP
E7
E7
E7
E7
ENDCHAR
STARTCHAR 2026
ENCODING 8230
SWIDTH 585 0
DWIDTH 13 0
BBX 12 4 1 0
BITMAP
EE70
EE70
EE70
EE70
ENDCHAR
STARTCHAR 2027
ENCODING 8231
SWIDTH 585 0
DWIDTH 13 0
BBX 3 4 5 7
BITMAP
E0
E0
E0
E0
ENDCHAR
STARTCHAR 202F
ENCODING 8239
SWIDTH 585 0
DWIDTH 13 0
BBX 0 0 0 0
BITMAP
ENDCHAR
STARTCHAR 2030
ENCODING 8240
SWIDTH 585 0
DWIDTH 13 0
BBX 13 16 0 0
BITMAP
7800
FC00
CC00
CC00
FC70
79C0
0700
3800
E000
3870
7CF8
6798
C788
6798
7CF8
3870
ENDCHAR
STARTCHAR 2031
ENCODING 8241
SWIDTH 585 0
DWIDTH 13 0
BBX 13 16 0 0
BITMAP
7800
FC00
CC00
CC00
FC70
79C0
0700
3800
E000
3770
7FF8
CCD8
CC88
CCC8
FFF8
7770
ENDCHAR
STARTCHAR 2032
ENCODING 8242
SWIDTH 585 0
DWIDTH 13 0
BBX 5 4 4 13
BITMAP
38
70
60
C0
ENDCHAR
STARTCHAR 2033
ENCODING 8243
SWIDTH 585 0
DWIDTH 13 0
BBX 9 4 2 13
BITMAP
3B80
7700
6600
CC00
ENDCHAR
STARTCHAR 2034
ENCODING 8244
SWIDTH 585 0
DWIDTH 13 0
BBX 13 4 0 13
BITMAP
3BB8
7770
6660
CCC0
ENDCHAR
STARTCHAR 2035
ENCODING 8245
SWIDTH 585 0
DWIDTH 13 0
BBX 5 4 4 13
BITMAP
F0
70
30
18
ENDCHAR
STARTCHAR 2036
ENCODING 8246
SWIDTH 585 0
DWIDTH 13 0
BBX 9 4 2 13
BITMAP
EF00
7700
3300
1980
ENDCHAR
STARTCHAR 2037
ENCODING 8247
SWIDTH 585 0
DWIDTH 13 0
BBX 13 4 0 13
BITMAP
EFF0
7770
3338
1998
ENDCHAR
STARTCHAR 2039
ENCODING 8249
SWIDTH 585 0
DWIDTH 13 0
BBX 5 9 3 2
BITMAP
08
38
70
E0
C0
E0
70
18
08
ENDCHAR
STARTCHAR 203A
ENCODING 8250
SWIDTH 585 0
DWIDTH 13 0
BBX 5 9 6 2
BITMAP
80
C0
E0
70
18
70
E0
C0
80
ENDCHAR
STARTCHAR 203C
ENCODING 8252
SWIDTH 585 0
DWIDTH 13 0
BBX 11 17 1 0
BITMAP
70C0
70C0
70C0
70C0
70C0
70C0
70C0
70C0
70C0
70C0
60C0
0000
0000
70C0
F1E0
71E0
70C0
ENDCHAR
STARTCHAR 203D
ENCODING 8253
SWIDTH 585 0
DWIDTH 13 0
BBX 9 17 3 0
BITMAP
7C00
FF00
FF00
BF80
BF80
3F00
3F00
3E00
3C00
3800
3800
3800
3800
3000
7800
3800
3000
ENDCHAR
STARTCHAR 203E
ENCODING 8254
SWIDTH 585 0
DWIDTH 13 0
BBX 13 3 0 15
BITMAP
FFF8
FFF8
FFF8
ENDCHAR
STARTCHAR 203F
ENCODING 8255
SWIDTH 585 0
DWIDTH 13 0
BBX 15 4 -1 -5
BITMAP
C006
FFFE
3FFC
0FE0
ENDCHAR
STARTCHAR 2044
ENCODING 8260
SWIDTH 585 0
DWIDTH 13 0
BBX 11 19 1 -2
BITMAP
0060
00C0
00C0
01C0
0180
0380
0300
0700
0600
0E00
0C00
0C00
1C00
1800
3800
3000
7000
6000
E000
ENDCHAR
STARTCHAR 2045
ENCODING 8261
SWIDTH 585 0
DWIDTH 13 0
BBX 5 22 5 -4
BITMAP
F8
F8
F8
C0
C0
C0
C0
C0
C0
F8
F8
F8
C0
C0
C0
C0
C0
C0
C0
F8
F8
F8
ENDCHAR
STARTCHAR 2046
ENCODING 8262
SWIDTH 585 0
DWIDTH 13 0
BBX 6 22 3 -4
BITMAP
FC
FC
FC
1C
1C
1C
1C
1C
1C
FC
FC
FC
1C
1C
1C
1C
1C
1C
1C
FC
FC
FC
ENDCHAR
STARTCHAR 2047
ENCODING 8263
SWIDTH 585 0
DWIDTH 13 0
BBX 13 17 0 0
BITMAP
38F0
FDF0
FDF8
DDF8
9D38
1C38
1C30
3870
3870
38E0
30E0
70E0
70E0
30E0
78E0
78E0
30E0
ENDCHAR
STARTCHAR 2048
ENCODING 8264
SWIDTH 585 0
DWIDTH 13 0
BBX 12 17 0 0
BITMAP
7870
FC70
FC70
9C70
1C70
1C70
3C70
3870
3870
3860
7060
7000
7000
3060
7870
7870
3060
ENDCHAR
STARTCHAR 2049
ENCODING 8265
SWIDTH 585 0
DWIDTH 13 0
BBX 12 17 1 0
BITMAP
71E0
73E0
73F0
7270
7070
7070
70E0
70E0
61E0
61C0
61C0
01C0
01C0
61C0
F1C0
F1C0
60C0
ENDCHAR
STARTCHAR 204B
ENCODING 8267
SWIDTH 585 0
DWIDTH 13 0
BBX 11 19 2 -2
BITMAP
FF00
FF80
CFC0
CFC0
CFE0
CFE0
CFC0
CFC0
CF80
CE00
CC00
CC00
CC00
CC00
CC00
CC00
CC00
CC00
CC00
ENDCHAR
STARTCHAR 205F
ENCODING 8287
SWIDTH 585 0
DWIDTH 13 0
BBX 0 0 0 0
BITMAP
ENDCHAR
STARTCHAR 2070
ENCODING 8304
SWIDTH 585 0
DWIDTH 13 0
BBX 7 9 3 12
BITMAP
3C
7E
C6
D6
DE
C6
C6
7E
3C
ENDCHAR
STARTCHAR 2074
ENCODING 8308
SWIDTH 585 0
DWIDTH 13 0
BBX 7 9 3 12
BITMAP
1C
1C
3C
6C
CC
FE
FE
0C
0C
ENDCHAR
STARTCHAR 2075
ENCODING 8309
SWIDTH 585 0
DWIDTH 13 0
BBX 7 9 3 12
BITMAP
7E
7E
40
7C
7E
06
06
FE
FC
ENDCHAR
STARTCHAR 2076
ENCODING 8310
SWIDTH 585 0
DWIDTH 13 0
BBX 7 9 3 12
BITMAP
3E
7E
C0
DC
FE
E6
E6
7E
3C
ENDCHAR
STARTCHAR 2077
ENCODING 8311
SWIDTH 585 0
DWIDTH 13 0
BBX 7 9 3 12
BITMAP
FE
FE
0C
0C
1C
18
38
30
70
ENDCHAR
STARTCHAR 2078
ENCODING 8312
SWIDTH 585 0
DWIDTH 13 0
BBX 7 9 3 12
BITMAP
7C
FE
C6
7E
7C
C6
C6
FE
7C
ENDCHAR
STARTCHAR 2079
ENCODING 8313
SWIDTH 585 0
DWIDTH 13 0
BBX 7 9 3 12
BITMAP
7C
FE
C6
C6
FE
7E
06
7C
78
ENDCHAR
STARTCHAR 207A
ENCODING 8314
SWIDTH 585 0
DWIDTH 13 0
BBX 7 7 3 8
BITMAP
18
18
18
FE
FE
18
18
ENDCHAR
STARTCHAR 207B
ENCODING 8315
SWIDTH 585 0
DWIDTH 13 0
BBX 7 2 3 10
BITMAP
FE
FE
ENDCHAR
STARTCHAR 207C
ENCODING 8316
SWIDTH 585 0
DWIDTH 13 0
BBX 7 5 3 9
BITMAP
FE
FE
00
FE
FE
ENDCHAR
STARTCHAR 207D
ENCODING 8317
SWIDTH 585 0
DWIDTH 13 0
BBX 4 11 5 6
BITMAP
30
60
C0
C0
C0
C0
C0
C0
C0
60
30
ENDCHAR
STARTCHAR 207E
ENCODING 8318
SWIDTH 585 0
DWIDTH 13 0
BBX 4 11 5 6
BITMAP
C0
40
60
60
20
30
20
60
60
40
C0
ENDCHAR
STARTCHAR 208A
ENCODING 8330
SWIDTH 585 0
DWIDTH 13 0
BBX 7 7 3 1
BITMAP
18
18
18
FE
FE
18
18
ENDCHAR
STARTCHAR 208B
ENCODING 8331
SWIDTH 585 0
DWIDTH 13 0
BBX 7 2 3 3
BITMAP
FE
FE
ENDCHAR
STARTCHAR 208C
ENCODING 8332
SWIDTH 585 0
DWIDTH 13 0
BBX 7 5 3 2
BITMAP
FE
FE
00
FE
FE
ENDCHAR
STARTCHAR 208D
ENCODING 8333
SWIDTH 585 0
DWIDTH 13 0
BBX 4 12 5 -2
BITMAP
30
60
40
C0
C0
C0
C0
C0
C0
40
60
30
ENDCHAR
STARTCHAR 208E
ENCODING 8334
SWIDTH 585 0
DWIDTH 13 0
BBX 4 12 5 -2
BITMAP
C0
40
60
60
20
30
30
60
60
60
40
C0
ENDCHAR
STARTCHAR 20A0
ENCODING 8352
SWIDTH 585 0
DWIDTH 13 0
BBX 13 17 0 0
BITMAP
1C00
7E00
7E00
E100
E1F8
C1F8
C1F8
C180
C180
E1F8
63F8
7FF8
3F80
1D80
01F8
01F8
01F8
ENDCHAR
STARTCHAR 20A1
ENCODING 8353
SWIDTH 585 0
DWIDTH 13 0
BBX 11 19 1 -1
BITMAP
0120
0FE0
1FE0
3FE0
7E60
7AE0
F6C0
F680
F480
F580
FD80
FD80
F900
7B00
7B20
3FE0
3FE0
1FC0
3600
ENDCHAR
STARTCHAR 20A2
ENCODING 8354
SWIDTH 585 0
DWIDTH 13 0
BBX 11 17 1 0
BITMAP
0F80
3FC0
7FC0
7840
F000
E760
E7E0
E7E0
E700
E700
E700
F700
F720
7FC0
7FC0
3FC0
0F80
ENDCHAR
STARTCHAR 20A3
ENCODING 8355
SWIDTH 585 0
DWIDTH 13 0
BBX 12 17 0 0
BITMAP
3FF0
3FF0
3FF0
3C00
3C00
3C00
3C00
3FF0
3FF0
3FF0
3C00
3C00
3C00
FF00
3C00
3C00
3C00
ENDCHAR
STARTCHAR 20A4
ENCODING 8356
SWIDTH 585 0
DWIDTH 13 0
BBX 11 17 1 0
BITMAP
07E0
1FE0
1FE0
1C00
3C00
7F80
7F80
7F80
3C00
7F80
7F80
7F80
3C00
3C00
FFE0
FFE0
FFE0
ENDCHAR
STARTCHAR 20A5
ENCODING 8357
SWIDTH 585 0
DWIDTH 13 0
BBX 13 17 0 -2
BITMAP
0040
00C0
EEF0
FEF0
FFF8
E738
E738
E738
E738
E738
E738
E738
E738
E738
EF38
0800
0800
ENDCHAR
STARTCHAR 20A6
ENCODING 8358
SWIDTH 585 0
DWIDTH 13 0
BBX 13 17 0 0
BITMAP
7C78
7C78
7C78
7E78
7E78
FFF8
FFF8
7F78
7F78
7B78
FFF8
FFF8
79F8
79F8
79F8
78F8
78F8
ENDCHAR
STARTCHAR 20A7
ENCODING 8359
SWIDTH 585 0
DWIDTH 13 0
BBX 13 17 0 0
BITMAP
F000
FB00
FF00
CF00
CFF8
CFF8
CFF8
CF48
FB40
FB70
F378
C338
C308
C388
C3F8
C1F8
C1F0
ENDCHAR
STARTCHAR 20A8
ENCODING 8360
SWIDTH 585 0
DWIDTH 13 0
BBX 13 17 0 0
BITMAP
FC00
FE00
FE00
C600
C6F0
C6F8
C7F8
FF88
FD80
FDF0
CEF8
CE78
C618
C718
C7F8
C7F8
C3F0
ENDCHAR
STARTCHAR 20A9
ENCODING 8361
SWIDTH 585 0
DWIDTH 13 0
BBX 13 17 0 0
BITMAP
E318
E718
E718
FFF8
FFF8
6738
FFF8
FFF8
65B0
7DB0
7DB0
3CB0
3CF0
3CE0
38E0
38E0
38E0
ENDCHAR
STARTCHAR 20AA
ENCODING 8362
SWIDTH 585 0
DWIDTH 13 0
BBX 13 17 0 0
BITMAP
FE18
FF18
FF98
E198
E198
E198
ED98
ED98
ED98
ED98
ED98
EC18
EC18
EE18
E7F8
E7F8
E1F8
ENDCHAR
STARTCHAR 20AB
ENCODING 8363
SWIDTH 585 0
DWIDTH 13 0
BBX 12 23 3 -5
BITMAP
01C0
01C0
0FF0
0FF0
0FF0
3DC0
7FC0
FFC0
E3C0
E1C0
E1C0
E1C0
E1C0
E1C0
E3C0
FFC0
7FC0
3DC0
0000
0000
3F80
3F80
3F80
ENDCHAR
STARTCHAR 20AC
ENCODING 8364
SWIDTH 585 0
DWIDTH 13 0
BBX 12 17 0 0
BITMAP
03E0
0FF0
1FF0
1C10
3C00
7FC0
FFC0
FF80
3800
7F80
FF00
FF00
3C00
1C10
1FF0
0FF0
03E0
ENDCHAR
STARTCHAR 20AD
ENCODING 8365
SWIDTH 585 0
DWIDTH 13 0
BBX 12 17 1 0
BITMAP
70E0
71C0
73C0
7780
7700
7F00
7E00
FFC0
FFC0
7E00
7E00
7F00
7780
73C0
73C0
71E0
70F0
ENDCHAR
STARTCHAR 20AE
ENCODING 8366
SWIDTH 585 0
DWIDTH 13 0
BBX 13 17 0 0
BITMAP
FFF8
FFF8
FFF8
0700
0700
0740
0780
0700
0740
0FC0
0700
0700
0F00
0F00
0700
0700
0700
ENDCHAR
STARTCHAR 20AF
ENCODING 8367
SWIDTH 585 0
DWIDTH 13 0
BBX 13 22 0 -5
BITMAP
1C00
3E00
3F00
7B00
1900
1100
1180
1180
11B0
11B8
3138
7168
F168
F348
BB68
FE78
6C70
0040
0040
00C0
00C0
0080
ENDCHAR
STARTCHAR 20B0
ENCODING 8368
SWIDTH 585 0
DWIDTH 13 0
BBX 13 17 0 0
BITMAP
01E0
03F0
03F0
0330
0330
0330
03F0
39F0
7DE0
FFF0
67F8
0338
0038
0038
00F8
00F0
00E0
ENDCHAR
STARTCHAR 20B1
ENCODING 8369
SWIDTH 585 0
DWIDTH 13 0
BBX 12 17 1 0
BITMAP
7F80
7FC0
7FE0
71E0
FFF0
70E0
FFF0
71E0
7FE0
7FC0
7E00
7000
7000
7000
7000
7000
7000
ENDCHAR
STARTCHAR 20B2
ENCODING 8370
SWIDTH 585 0
DWIDTH 13 0
BBX 13 21 0 -2
BITMAP
0300
0300
07E0
1FF0
3FF0
3B10
7300
7300
7300
7378
E378
7378
7338
7338
7338
3B38
3FF8
1FF8
07E0
0300
0300
ENDCHAR
STARTCHAR 20B3
ENCODING 8371
SWIDTH 585 0
DWIDTH 13 0
BBX 13 17 0 0
BITMAP
0780
0780
0F80
0F80
0FC0
1DC0
7FF8
7FF8
7FF8
38E0
7FF8
7FF8
7FF8
7070
7070
7038
F038
ENDCHAR
STARTCHAR 20B4
ENCODING 8372
SWIDTH 585 0
DWIDTH 13 0
BBX 13 17 0 0
BITMAP
0FC0
3FE0
3FF0
2070
FFF8
FFF8
FFF8
0FE0
3F80
FFF8
FFF8
FFF8
7800
3830
3FF0
1FF0
0FC0
ENDCHAR
STARTCHAR 20B5
ENCODING 8373
SWIDTH 585 0
DWIDTH 13 0
BBX 12 21 1 -3
BITMAP
0100
0100
0FC0
3FF0
7FF0
7D30
F910
F100
F100
F100
F100
F100
F100
F910
7D30
7FF0
3FF0
0FC0
0100
0100
0100
ENDCHAR
STARTCHAR 20B7
ENCODING 8375
SWIDTH 585 0
DWIDTH 13 0
BBX 13 20 0 -3
BITMAP
03F0
07F8
0FF8
1E08
1C00
1C00
1E00
1F80
0FE0
03F0
00F0
0070
7E70
6B70
7AF0
7FE0
7FC0
DF80
D600
D600
ENDCHAR
STARTCHAR 20B8
ENCODING 8376
SWIDTH 585 0
DWIDTH 13 0
BBX 11 17 1 0
BITMAP
FFE0
FFE0
FFE0
0000
FFE0
FFE0
FFE0
0E00
0E00
0E00
0E00
0E00
0E00
0E00
0E00
0E00
0E00
ENDCHAR
STARTCHAR 20B9
ENCODING 8377
SWIDTH 585 0
DWIDTH 13 0
BBX 11 17 1 0
BITMAP
7FE0
7FE0
FFE0
7FE0
7FE0
FFE0
0700
7F00
7E00
7C00
1E00
0F00
0700
0700
0780
0380
03C0
ENDCHAR
STARTCHAR 2116
ENCODING 8470
SWIDTH 585 0
DWIDTH 13 0
BBX 13 17 0 0
BITMAP
EE70
EEF0
EEF8
EED8
EE98
FE98
FED8
FEF8
FEF0
DE70
DE00
DEF8
DEF8
CE00
CE00
CE00
CE00
ENDCHAR
STARTCHAR 2122
ENCODING 8482
SWIDTH 585 0
DWIDTH 13 0
BBX 12 7 0 10
BITMAP
FB30
FB70
22D0
22D0
22D0
2210
2210
ENDCHAR
STARTCHAR 2126
ENCODING 8486
SWIDTH 585 0
DWIDTH 13 0
BBX 11 17 1 0
BITMAP
1F00
3F80
7FC0
71E0
F0E0
F0E0
E0E0
E0E0
E0E0
E0E0
F0E0
70E0
71C0
3BC0
FBE0
FBE0
FBE0
ENDCHAR
STARTCHAR 2150
ENCODING 8528
SWIDTH 585 0
DWIDTH 13 0
BBX 11 22 1 -3
BITMAP
F000
F000
3000
3000
3000
3000
3000
3000
FE00
FE60
07E0
7C00
CFE0
0FE0
0060
00C0
00C0
01C0
0180
0380
0300
0700
ENDCHAR
STARTCHAR 2151
ENCODING 8529
SWIDTH 585 0
DWIDTH 13 0
BBX 11 23 1 -4
BITMAP
3000
F000
B000
3000
3000
3000
3000
3000
FE00
FE60
03E0
3F00
F000
87C0
0E60
0C60
0C60
0FE0
07E0
0060
0860
07C0
0780
ENDCHAR
STARTCHAR 2153
ENCODING 8531
SWIDTH 585 0
DWIDTH 13 0
BBX 12 22 1 -3
BITMAP
F000
F000
3000
3000
3000
3000
3000
3000
FE00
FE60
07E0
7E00
E7C0
07E0
0060
0060
03C0
03E0
0070
0070
0FE0
0FC0
ENDCHAR
STARTCHAR 2154
ENCODING 8532
SWIDTH 585 0
DWIDTH 13 0
BBX 13 22 0 -3
BITMAP
7C00
FE00
8600
0600
0C00
1C00
3000
6000
FE00
FE30
03F0
3F00
73E0
03F0
0030
0030
01E0
01F0
0038
0038
07F0
07E0
ENDCHAR
STARTCHAR 2155
ENCODING 8533
SWIDTH 585 0
DWIDTH 13 0
BBX 11 22 1 -3
BITMAP
F000
F000
3000
3000
3000
3000
3000
3000
FE00
FE60
07E0
7C00
C7E0
07E0
0600
0780
07E0
0060
0060
0060
0FE0
0FC0
ENDCHAR
STARTCHAR 2156
ENCODING 8534
SWIDTH 585 0
DWIDTH 13 0
BBX 12 22 0 -3
BITMAP
7C00
FE00
8600
0600
0C00
1C00
3000
6000
FE00
FE30
03F0
3E00
63F0
03F0
0300
03C0
03F0
0030
0030
0030
07F0
07E0
ENDCHAR
STARTCHAR 2157
ENCODING 8535
SWIDTH 585 0
DWIDTH 13 0
BBX 12 22 0 -3
BITMAP
7C00
7E00
0600
3E00
3E00
0600
0300
8700
FE00
7C30
03E0
7E00
63F0
03F0
0300
03C0
03F0
0030
0030
0030
07F0
07E0
ENDCHAR
STARTCHAR 2158
ENCODING 8536
SWIDTH 585 0
DWIDTH 13 0
BBX 12 23 0 -4
BITMAP
0C00
1C00
3C00
2C00
6C00
CC00
FE00
FE00
0C00
0C10
00F0
0FC0
7C00
43F0
03F0
0300
03E0
03F0
0030
0030
0030
07F0
03C0
ENDCHAR
STARTCHAR 2159
ENCODING 8537
SWIDTH 585 0
DWIDTH 13 0
BBX 12 22 1 -3
BITMAP
F000
F000
3000
3000
3000
3000
3000
3000
FE00
FE60
07E0
7E00
E3E0
07E0
0600
0DC0
0FE0
0E70
0E30
0670
07E0
03C0
ENDCHAR
STARTCHAR 215A
ENCODING 8538
SWIDTH 585 0
DWIDTH 13 0
BBX 13 22 0 -3
BITMAP
7E00
7E00
6000
7C00
7E00
0600
0600
0600
FE00
7830
03E0
3E00
61F0
03F0
0300
06E0
07F0
0738
0718
0338
03F0
01E0
ENDCHAR
STARTCHAR 215B
ENCODING 8539
SWIDTH 585 0
DWIDTH 13 0
BBX 11 22 1 -3
BITMAP
F000
F000
3000
3000
3000
3000
3000
3000
FE00
FE60
07E0
7E00
E3C0
07E0
0660
0660
07C0
07E0
0C60
0C60
07E0
03C0
ENDCHAR
STARTCHAR 215C
ENCODING 8540
SWIDTH 585 0
DWIDTH 13 0
BBX 12 22 0 -3
BITMAP
7C00
7E00
0600
3E00
3E00
0600
0300
8700
FE00
7C30
03E0
3E00
61E0
03F0
0330
0330
03E0
03F0
0630
0630
03F0
01E0
ENDCHAR
STARTCHAR 215D
ENCODING 8541
SWIDTH 585 0
DWIDTH 13 0
BBX 12 22 0 -3
BITMAP
7E00
7E00
6000
7C00
7E00
0600
0600
0600
FE00
7830
03E0
3E00
61E0
03F0
0330
0330
03E0
03F0
0630
0630
03F0
01E0
ENDCHAR
STARTCHAR 215E
ENCODING 8542
SWIDTH 585 0
DWIDTH 13 0
BBX 12 22 0 -3
BITMAP
FE00
FE00
0600
0C00
0C00
1800
1800
3000
3000
4070
07E0
3E00
61E0
03F0
0330
0330
03E0
03F0
0630
0630
03F0
01E0
ENDCHAR
STARTCHAR 215F
ENCODING 8543
SWIDTH 585 0
DWIDTH 13 0
BBX 11 14 1 5
BITMAP
3000
F000
B000
3000
3000
3000
3000
3000
FE00
FE20
01E0
1F00
F000
8000
ENDCHAR
STARTCHAR 2189
ENCODING 8585
SWIDTH 585 0
DWIDTH 13 0
BBX 13 22 0 -3
BITMAP
3C00
7E00
6600
E600
DF00
DF00
E600
6600
7E00
3C30
03E0
3F00
73E0
03F0
0030
0030
01E0
01F0
0038
0038
07F0
07E0
ENDCHAR
STARTCHAR 2190
ENCODING 8592
SWIDTH 585 0
DWIDTH 13 0
BBX 12 9 1 2
BITMAP
2000
3000
7000
FFF0
FFF0
FFF0
6000
3000
2000
ENDCHAR
STARTCHAR 2191
ENCODING 8593
SWIDTH 585 0
DWIDTH 13 0
BBX 8 13 3 0
BITMAP
38
3C
7E
FF
7A
38
38
38
38
38
38
38
38
ENDCHAR
STARTCHAR 2192
ENCODING 8594
SWIDTH 585 0
DWIDTH 13 0
BBX 12 9 1 2
BITMAP
0080
0180
00C0
FFE0
FFF0
FFF0
00E0
01C0
0080
ENDCHAR
STARTCHAR 2193
ENCODING 8595
SWIDTH 585 0
DWIDTH 13 0
BBX 8 13 3 0
BITMAP
38
38
38
38
38
38
38
38
7A
FF
7E
3C
38
ENDCHAR
STARTCHAR 2194
ENCODING 8596
SWIDTH 585 0
DWIDTH 13 0
BBX 12 9 1 2
BITMAP
2080
3180
70C0
FFE0
FFF0
FFF0
60E0
31C0
2080
ENDCHAR
STARTCHAR 2195
ENCODING 8597
SWIDTH 585 0
DWIDTH 13 0
BBX 8 13 3 0
BITMAP
38
3C
7E
FF
7A
38
38
38
7A
FF
7E
3C
38
ENDCHAR
STARTCHAR 2196
ENCODING 8598
SWIDTH 585 0
DWIDTH 13 0
BBX 10 11 2 0
BITMAP
7800
F800
F800
F000
F800
FC00
DE00
0F00
0780
03C0
0180
ENDCHAR
STARTCHAR 2197
ENCODING 8599
SWIDTH 585 0
DWIDTH 13 0
BBX 10 11 2 0
BITMAP
0F80
0F80
0FC0
03C0
07C0
0EC0
1CC0
3800
7000
E000
4000
ENDCHAR
STARTCHAR 2198
ENCODING 8600
SWIDTH 585 0
DWIDTH 13 0
BBX 10 10 2 0
BITMAP
4000
E000
7000
3800
1CC0
0EC0
07C0
03C0
0FC0
0F80
ENDCHAR
STARTCHAR 2199
ENCODING 8601
SWIDTH 585 0
DWIDTH 13 0
BBX 10 10 2 0
BITMAP
0180
03C0
0780
0F00
DE00
FC00
F800
F000
F800
F800
ENDCHAR
STARTCHAR 219A
ENCODING 8602
SWIDTH 585 0
DWIDTH 13 0
BBX 12 9 1 2
BITMAP
2000
30C0
70E0
FFF0
FFF0
FFF0
6700
3700
2200
ENDCHAR
STARTCHAR 219B
ENCODING 8603
SWIDTH 585 0
DWIDTH 13 0
BBX 12 9 1 2
BITMAP
0080
0D80
1CC0
FFE0
FFF0
FFF0
70E0
61C0
2080
ENDCHAR
STARTCHAR 219C
ENCODING 8604
SWIDTH 585 0
DWIDTH 13 0
BBX 12 6 1 4
BITMAP
79C0
FBE0
FBF0
FF20
FE00
DC00
ENDCHAR
STARTCHAR 219D
ENCODING 8605
SWIDTH 585 0
DWIDTH 13 0
BBX 12 6 1 4
BITMAP
73E0
FBF0
FCF0
4FF0
0FB0
0730
ENDCHAR
STARTCHAR 219E
ENCODING 8606
SWIDTH 585 0
DWIDTH 13 0
BBX 12 9 1 2
BITMAP
2200
3700
7600
FFF0
FFF0
FFF0
6E00
3700
2200
ENDCHAR
STARTCHAR 219F
ENCODING 8607
SWIDTH 585 0
DWIDTH 13 0
BBX 8 13 3 0
BITMAP
38
3C
7E
FF
7A
3C
7E
FF
7A
38
38
38
38
ENDCHAR
STARTCHAR 21A0
ENCODING 8608
SWIDTH 585 0
DWIDTH 13 0
BBX 12 9 1 2
BITMAP
0880
0D80
0EC0
FFE0
FFF0
FFF0
06E0
0DC0
0880
ENDCHAR
STARTCHAR 21A1
ENCODING 8609
SWIDTH 585 0
DWIDTH 13 0
BBX 8 13 3 0
BITMAP
38
38
38
38
7A
FF
FE
7C
7A
FF
7E
3C
38
ENDCHAR
STARTCHAR 21A2
ENCODING 8610
SWIDTH 585 0
DWIDTH 13 0
BBX 12 9 1 2
BITMAP
2020
3070
70E0
FFC0
FF80
FFC0
60E0
3070
2020
ENDCHAR
STARTCHAR 21A3
ENCODING 8611
SWIDTH 585 0
DWIDTH 13 0
BBX 12 9 1 2
BITMAP
4080
C180
E0C0
7FE0
3FF0
3FF0
60E0
C1C0
4080
ENDCHAR
STARTCHAR 21A4
ENCODING 8612
SWIDTH 585 0
DWIDTH 13 0
BBX 12 8 1 2
BITMAP
2030
7030
FFF0
FFF0
FFF0
6030
3030
2030
ENDCHAR
STARTCHAR 21A5
ENCODING 8613
SWIDTH 585 0
DWIDTH 13 0
BBX 8 13 3 0
BITMAP
38
3C
7E
FF
7A
38
38
38
38
38
38
FF
FF
ENDCHAR
STARTCHAR 21A6
ENCODING 8614
SWIDTH 585 0
DWIDTH 13 0
BBX 12 8 1 2
BITMAP
C080
C1C0
FFE0
FFF0
FFF0
C0E0
C1C0
C080
ENDCHAR
STARTCHAR 21A7
ENCODING 8615
SWIDTH 585 0
DWIDTH 13 0
BBX 8 13 3 0
BITMAP
FF
FF
FF
38
38
38
38
38
7A
FF
7E
7C
38
ENDCHAR
STARTCHAR 21A8
ENCODING 8616
SWIDTH 585 0
DWIDTH 13 0
BBX 8 13 3 0
BITMAP
38
3C
7E
FF
7A
38
7A
FF
7E
3C
18
FF
FF
ENDCHAR
STARTCHAR 21A9
ENCODING 8617
SWIDTH 585 0
DWIDTH 13 0
BBX 12 10 1 2
BITMAP
00C0
00E0
30E0
7070
FFF0
FFE0
FFC0
6000
3000
2000
ENDCHAR
STARTCHAR 21AA
ENCODING 8618
SWIDTH 585 0
DWIDTH 13 0
BBX 12 10 1 2
BITMAP
2000
E000
E080
C1C0
FFE0
FFF0
7FF0
00E0
01C0
0080
ENDCHAR
STARTCHAR 21AB
ENCODING 8619
SWIDTH 585 0
DWIDTH 13 0
BBX 12 10 1 2
BITMAP
01C0
03E0
37E0
7770
FFF0
FFE0
FFC0
6700
3700
2000
ENDCHAR
STARTCHAR 21AC
ENCODING 8620
SWIDTH 585 0
DWIDTH 13 0
BBX 12 10 1 2
BITMAP
3000
F800
FC80
CDC0
FFE0
FFF0
7FF0
0CE0
0DC0
0080
ENDCHAR
STARTCHAR 21AD
ENCODING 8621
SWIDTH 585 0
DWIDTH 13 0
BBX 12 9 1 2
BITMAP
2080
31C0
6EE0
FFF0
FBF0
F9E0
60E0
31C0
2080
ENDCHAR
STARTCHAR 21AE
ENCODING 8622
SWIDTH 585 0
DWIDTH 13 0
BBX 12 9 1 2
BITMAP
2680
3780
76C0
FFE0
FFF0
FFF0
6CE0
3DC0
2C80
ENDCHAR
STARTCHAR 21AF
ENCODING 8623
SWIDTH 585 0
DWIDTH 13 0
BBX 11 16 1 0
BITMAP
4000
7000
7060
60C0
63C0
6FC0
FFC0
F9C0
E1C0
8180
8180
0580
0FA0
07E0
07C0
0380
ENDCHAR
STARTCHAR 21B0
ENCODING 8624
SWIDTH 585 0
DWIDTH 13 0
BBX 10 16 2 0
BITMAP
1000
3000
7000
FFC0
FFC0
FFC0
71C0
31C0
01C0
01C0
01C0
01C0
01C0
01C0
01C0
01C0
ENDCHAR
STARTCHAR 21B1
ENCODING 8625
SWIDTH 585 0
DWIDTH 13 0
BBX 9 16 2 0
BITMAP
0200
0600
0300
FF80
FF80
FF80
C300
C600
C000
C000
C000
C000
C000
C000
C000
C000
ENDCHAR
STARTCHAR 21B2
ENCODING 8626
SWIDTH 585 0
DWIDTH 13 0
BBX 10 16 2 -1
BITMAP
01C0
01C0
01C0
01C0
01C0
01C0
01C0
01C0
31C0
71C0
FFC0
FFC0
FFC0
7000
3000
1000
ENDCHAR
STARTCHAR 21B3
ENCODING 8627
SWIDTH 585 0
DWIDTH 13 0
BBX 9 16 2 -1
BITMAP
C000
C000
C000
C000
C000
C000
C000
C000
C600
C700
FF80
FF80
FF80
0300
0600
0200
ENDCHAR
STARTCHAR 21B4
ENCODING 8628
SWIDTH 585 0
DWIDTH 13 0
BBX 10 13 2 0
BITMAP
FE00
FE00
FE00
0600
0600
0600
0600
0600
1680
37C0
1F80
0F00
0E00
ENDCHAR
STARTCHAR 21B5
ENCODING 8629
SWIDTH 585 0
DWIDTH 13 0
BBX 12 11 1 -1
BITMAP
0030
0030
0030
3030
7030
FFF0
FFF0
FFF0
6000
3000
2000
ENDCHAR
STARTCHAR 21B6
ENCODING 8630
SWIDTH 585 0
DWIDTH 13 0
BBX 12 8 1 4
BITMAP
0300
0FC0
1FE0
1C60
FE70
FE30
7C00
3800
ENDCHAR
STARTCHAR 21B7
ENCODING 8631
SWIDTH 585 0
DWIDTH 13 0
BBX 12 8 1 4
BITMAP
3C00
7F00
FF00
C7A0
CFF0
07E0
03C0
0180
ENDCHAR
STARTCHAR 21B8
ENCODING 8632
SWIDTH 585 0
DWIDTH 13 0
BBX 12 13 1 0
BITMAP
FFF0
FFF0
3C00
7C00
7C00
7800
7C00
7E00
6F00
0780
03C0
01E0
00C0
ENDCHAR
STARTCHAR 21B9
ENCODING 8633
SWIDTH 585 0
DWIDTH 13 0
BBX 12 15 1 0
BITMAP
C800
DC00
F800
FFF0
FFF0
FFF0
DC00
CA30
0730
FFF0
FFF0
FFF0
03B0
0730
0230
ENDCHAR
STARTCHAR 21BA
ENCODING 8634
SWIDTH 585 0
DWIDTH 13 0
BBX 12 13 1 0
BITMAP
01F0
03F0
03F0
43C0
E3E0
C360
C360
C060
E0E0
E0E0
7FC0
3F80
1F00
ENDCHAR
STARTCHAR 21BB
ENCODING 8635
SWIDTH 585 0
DWIDTH 13 0
BBX 12 13 1 0
BITMAP
F000
F800
F800
7860
78E0
F870
F870
E070
E070
70E0
7FE0
3FC0
0F00
ENDCHAR
STARTCHAR 21BC
ENCODING 8636
SWIDTH 585 0
DWIDTH 13 0
BBX 12 6 1 5
BITMAP
2000
3000
7000
FFF0
FFF0
FFF0
ENDCHAR
STARTCHAR 21BD
ENCODING 8637
SWIDTH 585 0
DWIDTH 13 0
BBX 12 6 1 2
BITMAP
FFF0
FFF0
FFF0
6000
3000
2000
ENDCHAR
STARTCHAR 21BE
ENCODING 8638
SWIDTH 585 0
DWIDTH 13 0
BBX 6 13 5 0
BITMAP
E0
F0
F8
FC
E8
E0
E0
E0
E0
E0
E0
E0
E0
ENDCHAR
STARTCHAR 21BF
ENCODING 8639
SWIDTH 585 0
DWIDTH 13 0
BBX 5 13 3 0
BITMAP
38
38
78
F8
78
38
38
38
38
38
38
38
38
ENDCHAR
STARTCHAR 21C0
ENCODING 8640
SWIDTH 585 0
DWIDTH 13 0
BBX 12 6 1 5
BITMAP
0080
0180
00C0
FFE0
FFF0
FFF0
ENDCHAR
STARTCHAR 21C1
ENCODING 8641
SWIDTH 585 0
DWIDTH 13 0
BBX 12 6 1 2
BITMAP
FFF0
FFF0
FFF0
00E0
01C0
0080
ENDCHAR
STARTCHAR 21C2
ENCODING 8642
SWIDTH 585 0
DWIDTH 13 0
BBX 6 13 5 0
BITMAP
E0
E0
E0
E0
E0
E0
E0
E0
E8
FC
F8
F0
E0
ENDCHAR
STARTCHAR 21C3
ENCODING 8643
SWIDTH 585 0
DWIDTH 13 0
BBX 5 13 3 0
BITMAP
38
38
38
38
38
38
38
38
78
F8
78
38
38
ENDCHAR
STARTCHAR 21C4
ENCODING 8644
SWIDTH 585 0
DWIDTH 13 0
BBX 12 14 1 -1
BITMAP
0080
01C0
00E0
FFF0
FFF0
FFE0
31C0
7080
FFF0
FFF0
FFF0
6000
3000
2000
ENDCHAR
STARTCHAR 21C5
ENCODING 8645
SWIDTH 585 0
DWIDTH 13 0
BBX 13 13 0 0
BITMAP
18E0
3CE0
7EE0
FFE0
5AE0
18E0
18E0
18E0
1AF0
1FF8
1BF0
19E0
18E0
ENDCHAR
STARTCHAR 21C6
ENCODING 8646
SWIDTH 585 0
DWIDTH 13 0
BBX 12 14 1 -1
BITMAP
2000
3000
6000
FFF0
FFF0
FFF0
7080
31C0
FFE0
FFF0
FFF0
00E0
01C0
0080
ENDCHAR
STARTCHAR 21C7
ENCODING 8647
SWIDTH 585 0
DWIDTH 13 0
BBX 12 14 1 -1
BITMAP
2000
3000
6000
FFF0
FFF0
FFF0
7000
7000
FFF0
FFF0
FFF0
6000
3000
2000
ENDCHAR
STARTCHAR 21C8
ENCODING 8648
SWIDTH 585 0
DWIDTH 13 0
BBX 13 13 0 0
BITMAP
18E0
3DE0
7FF0
FFF8
5AF0
18E0
18E0
18E0
18E0
18E0
18E0
18E0
18E0
ENDCHAR
STARTCHAR 21C9
ENCODING 8649
SWIDTH 585 0
DWIDTH 13 0
BBX 12 14 1 -1
BITMAP
0080
01C0
00E0
FFF0
FFF0
FFE0
00C0
01C0
FFE0
FFF0
FFF0
00E0
01C0
0080
ENDCHAR
STARTCHAR 21CA
ENCODING 8650
SWIDTH 585 0
DWIDTH 13 0
BBX 13 13 0 0
BITMAP
18E0
18E0
18E0
18E0
18E0
18E0
18E0
18E0
5AF0
FFF8
7FF0
3DE0
18E0
ENDCHAR
STARTCHAR 21CB
ENCODING 8651
SWIDTH 585 0
DWIDTH 13 0
BBX 12 14 1 -1
BITMAP
2000
3000
6000
FFF0
FFF0
FFF0
0000
0000
FFF0
FFF0
FFF0
00E0
01C0
0080
ENDCHAR
STARTCHAR 21CC
ENCODING 8652
SWIDTH 585 0
DWIDTH 13 0
BBX 12 14 1 -1
BITMAP
0080
01C0
00E0
FFF0
FFF0
FFF0
0000
0000
FFF0
FFF0
FFF0
6000
3000
2000
ENDCHAR
STARTCHAR 21CD
ENCODING 8653
SWIDTH 585 0
DWIDTH 13 0
BBX 12 8 1 3
BITMAP
20C0
7080
FFF0
C100
C300
FFF0
7600
3400
ENDCHAR
STARTCHAR 21CE
ENCODING 8654
SWIDTH 585 0
DWIDTH 13 0
BBX 12 8 1 2
BITMAP
2680
77C0
FFE0
C670
C670
FFE0
77C0
2680
ENDCHAR
STARTCHAR 21CF
ENCODING 8655
SWIDTH 585 0
DWIDTH 13 0
BBX 12 8 1 3
BITMAP
0680
05C0
FFE0
0870
1870
FFE0
31C0
2080
ENDCHAR
STARTCHAR 21D0
ENCODING 8656
SWIDTH 585 0
DWIDTH 13 0
BBX 12 8 1 3
BITMAP
2000
7000
FFF0
C000
C000
FFF0
7000
3000
ENDCHAR
STARTCHAR 21D1
ENCODING 8657
SWIDTH 585 0
DWIDTH 13 0
BBX 8 13 3 0
BITMAP
38
3C
6E
EF
6E
2C
2C
2C
2C
2C
2C
2C
2C
ENDCHAR
STARTCHAR 21D2
ENCODING 8658
SWIDTH 585 0
DWIDTH 13 0
BBX 12 8 1 3
BITMAP
0080
01C0
FFE0
0070
0070
FFE0
01C0
0080
ENDCHAR
STARTCHAR 21D3
ENCODING 8659
SWIDTH 585 0
DWIDTH 13 0
BBX 8 13 3 0
BITMAP
2C
2C
2C
2C
2C
2C
2C
2C
6E
EF
6E
3C
38
ENDCHAR
STARTCHAR 21D4
ENCODING 8660
SWIDTH 585 0
DWIDTH 13 0
BBX 12 8 1 3
BITMAP
2080
71C0
FFE0
C070
C070
FFE0
71C0
3080
ENDCHAR
STARTCHAR 21D5
ENCODING 8661
SWIDTH 585 0
DWIDTH 13 0
BBX 8 13 3 0
BITMAP
38
3C
6E
EF
6E
2C
2C
2C
6E
EF
6E
3C
38
ENDCHAR
STARTCHAR 21D6
ENCODING 8662
SWIDTH 585 0
DWIDTH 13 0
BBX 11 12 1 -1
BITMAP
3C00
7C00
FC00
C800
E400
F200
D900
0C80
06C0
0360
0180
0080
ENDCHAR
STARTCHAR 21D7
ENCODING 8663
SWIDTH 585 0
DWIDTH 13 0
BBX 10 12 2 -1
BITMAP
0F80
0FC0
0FC0
06C0
0CC0
19C0
32C0
6400
C800
9000
6000
2000
ENDCHAR
STARTCHAR 21D8
ENCODING 8664
SWIDTH 585 0
DWIDTH 13 0
BBX 10 11 2 0
BITMAP
2000
6000
9000
C800
6400
32C0
19C0
0CC0
06C0
0FC0
0F80
ENDCHAR
STARTCHAR 21D9
ENCODING 8665
SWIDTH 585 0
DWIDTH 13 0
BBX 11 11 1 0
BITMAP
0080
0180
0360
06C0
0C80
D900
F200
E400
C800
FC00
7C00
ENDCHAR
STARTCHAR 21DA
ENCODING 8666
SWIDTH 585 0
DWIDTH 13 0
BBX 12 8 1 2
BITMAP
3000
7FF0
E000
FFF0
C000
7FF0
3000
2000
ENDCHAR
STARTCHAR 21DB
ENCODING 8667
SWIDTH 585 0
DWIDTH 13 0
BBX 12 8 1 2
BITMAP
0080
FFC0
0060
FFF0
0070
FFE0
00C0
0080
ENDCHAR
STARTCHAR 21DC
ENCODING 8668
SWIDTH 585 0
DWIDTH 13 0
BBX 12 9 1 2
BITMAP
2000
3000
7100
FBB0
FFF0
FEF0
6440
3000
2000
ENDCHAR
STARTCHAR 21DD
ENCODING 8669
SWIDTH 585 0
DWIDTH 13 0
BBX 12 9 1 2
BITMAP
0080
0180
10C0
B9E0
FFF0
EFF0
66E0
01C0
0080
ENDCHAR
STARTCHAR 21E0
ENCODING 8672
SWIDTH 585 0
DWIDTH 13 0
BBX 12 9 1 2
BITMAP
2000
3000
7000
FB30
FB30
FB30
6000
3000
2000
ENDCHAR
STARTCHAR 21E1
ENCODING 8673
SWIDTH 585 0
DWIDTH 13 0
BBX 8 13 3 0
BITMAP
38
7C
FE
FF
38
00
00
38
38
38
38
38
38
ENDCHAR
STARTCHAR 21E2
ENCODING 8674
SWIDTH 585 0
DWIDTH 13 0
BBX 12 9 1 2
BITMAP
0080
0180
00C0
DBE0
DBF0
DBF0
00E0
01C0
0080
ENDCHAR
STARTCHAR 21E3
ENCODING 8675
SWIDTH 585 0
DWIDTH 13 0
BBX 8 13 3 0
BITMAP
38
38
38
00
38
38
38
00
38
FA
FF
7C
38
ENDCHAR
STARTCHAR 21E4
ENCODING 8676
SWIDTH 585 0
DWIDTH 13 0
BBX 12 8 1 2
BITMAP
C800
DC00
FFF0
FFF0
FFF0
F800
DC00
C800
ENDCHAR
STARTCHAR 21E5
ENCODING 8677
SWIDTH 585 0
DWIDTH 13 0
BBX 12 8 1 2
BITMAP
0230
0730
FFF0
FFF0
FFF0
03B0
0730
0230
ENDCHAR
STARTCHAR 21E6
ENCODING 8678
SWIDTH 585 0
DWIDTH 13 0
BBX 13 10 0 1
BITMAP
0800
1000
3000
3FF8
4008
C008
7FF8
3000
1000
0800
ENDCHAR
STARTCHAR 21E7
ENCODING 8679
SWIDTH 585 0
DWIDTH 13 0
BBX 9 13 2 0
BITMAP
0800
1C00
3200
7100
F280
1200
1200
1200
1200
1200
1200
1200
1E00
ENDCHAR
STARTCHAR 21E8
ENCODING 8680
SWIDTH 585 0
DWIDTH 13 0
BBX 12 10 1 1
BITMAP
0100
0080
00C0
FFE0
8030
8030
FFA0
00C0
0080
0080
ENDCHAR
STARTCHAR 21E9
ENCODING 8681
SWIDTH 585 0
DWIDTH 13 0
BBX 9 13 2 0
BITMAP
1E00
1200
1200
1200
1200
1200
1200
1200
F380
7300
3200
1C00
0800
ENDCHAR
STARTCHAR 21EB
ENCODING 8683
SWIDTH 585 0
DWIDTH 13 0
BBX 9 13 2 0
BITMAP
0800
1C00
3200
7100
F280
1200
1200
1200
1200
1200
F380
8080
FF80
ENDCHAR
STARTCHAR 21EC
ENCODING 8684
SWIDTH 585 0
DWIDTH 13 0
BBX 9 13 2 0
BITMAP
0C00
1600
2300
FF80
1200
1200
1200
1200
1200
1200
F380
8080
FF80
ENDCHAR
STARTCHAR 21ED
ENCODING 8685
SWIDTH 585 0
DWIDTH 13 0
BBX 9 13 2 0
BITMAP
0800
1C00
3A00
7900
FA80
1A00
1A00
1A00
1A00
1A00
FB80
8880
FF80
ENDCHAR
STARTCHAR 21EE
ENCODING 8686
SWIDTH 585 0
DWIDTH 13 0
BBX 9 13 2 0
BITMAP
0800
1C00
3200
6D00
F680
2300
F380
1200
1200
1200
1200
1200
1E00
ENDCHAR
STARTCHAR 21EF
ENCODING 8687
SWIDTH 585 0
DWIDTH 13 0
BBX 9 13 2 0
BITMAP
0800
1C00
3200
6D00
F680
2300
F380
1200
1200
1200
F380
8080
FF80
ENDCHAR
STARTCHAR 21F0
ENCODING 8688
SWIDTH 585 0
DWIDTH 13 0
BBX 12 9 1 2
BITMAP
E080
A0C0
BFC0
8020
8010
8030
BFE0
A0C0
E080
ENDCHAR
STARTCHAR 21F1
ENCODING 8689
SWIDTH 585 0
DWIDTH 13 0
BBX 13 13 0 0
BITMAP
FFF8
C000
CF80
DF80
DF80
DE00
DF00
DB80
D9C0
C0E0
C070
C078
C030
ENDCHAR
STARTCHAR 21F2
ENCODING 8690
SWIDTH 585 0
DWIDTH 13 0
BBX 13 13 0 0
BITMAP
6008
F008
7808
3C08
1EC8
0FC8
07C8
03C8
07C8
07C8
0008
0008
7FF8
ENDCHAR
STARTCHAR 21F3
ENCODING 8691
SWIDTH 585 0
DWIDTH 13 0
BBX 9 12 2 0
BITMAP
0C00
1600
2300
F380
1200
1200
1200
1200
F380
2300
1600
0C00
ENDCHAR
STARTCHAR 21F4
ENCODING 8692
SWIDTH 585 0
DWIDTH 13 0
BBX 12 8 1 3
BITMAP
3880
7DC0
7EE0
FFF0
FFF0
FFE0
7EC0
3D80
ENDCHAR
STARTCHAR 21F5
ENCODING 8693
SWIDTH 585 0
DWIDTH 13 0
BBX 13 13 0 0
BITMAP
18E0
19E0
1BF0
1FF8
1AF0
18E0
18E0
18E0
5AE0
FFE0
7EE0
3CE0
18E0
ENDCHAR
STARTCHAR 21F6
ENCODING 8694
SWIDTH 585 0
DWIDTH 13 0
BBX 12 19 1 -3
BITMAP
0080
01C0
00E0
FFF0
FFF0
FFE0
01C0
00E0
FFF0
FFF0
FFE0
00C0
01C0
FFE0
FFF0
FFF0
00E0
01C0
0080
ENDCHAR
STARTCHAR 21F7
ENCODING 8695
SWIDTH 585 0
DWIDTH 13 0
BBX 12 8 1 2
BITMAP
2300
7300
FFF0
FFF0
FFF0
6300
3300
2300
ENDCHAR
STARTCHAR 21F8
ENCODING 8696
SWIDTH 585 0
DWIDTH 13 0
BBX 12 8 1 2
BITMAP
1880
19C0
FFE0
FFF0
FFF0
18E0
19C0
1880
ENDCHAR
STARTCHAR 21F9
ENCODING 8697
SWIDTH 585 0
DWIDTH 13 0
BBX 12 8 1 2
BITMAP
2680
77C0
FFE0
FFF0
FFF0
66E0
37C0
2680
ENDCHAR
STARTCHAR 21FA
ENCODING 8698
SWIDTH 585 0
DWIDTH 13 0
BBX 12 8 1 2
BITMAP
26C0
76C0
FFF0
FFF0
FFF0
66C0
36C0
26C0
ENDCHAR
STARTCHAR 21FB
ENCODING 8699
SWIDTH 585 0
DWIDTH 13 0
BBX 12 8 1 2
BITMAP
6C80
6DC0
FFE0
FFF0
FFF0
6CE0
6DC0
6C80
ENDCHAR
STARTCHAR 21FC
ENCODING 8700
SWIDTH 585 0
DWIDTH 13 0
BBX 12 8 1 2
BITMAP
2A80
7BC0
FFE0
FFF0
FFF0
6AE0
3BC0
2A80
ENDCHAR
STARTCHAR 21FD
ENCODING 8701
SWIDTH 585 0
DWIDTH 13 0
BBX 13 10 0 1
BITMAP
0800
1000
3000
7FF8
DFF8
5FF8
3000
1000
1000
0800
ENDCHAR
STARTCHAR 21FE
ENCODING 8702
SWIDTH 585 0
DWIDTH 13 0
BBX 12 10 1 1
BITMAP
0080
0080
00C0
FFA0
FF90
FFB0
00E0
00C0
0080
0100
ENDCHAR
STARTCHAR 21FF
ENCODING 8703
SWIDTH 585 0
DWIDTH 13 0
BBX 13 10 0 1
BITMAP
0840
1040
3060
7FD0
DFC8
5FD8
3070
1060
1040
0880
ENDCHAR
STARTCHAR 2200
ENCODING 8704
SWIDTH 585 0
DWIDTH 13 0
BBX 13 17 0 0
BITMAP
F038
7078
7070
7070
3FF0
3FF0
3FE0
38E0
1CE0
1CE0
1DC0
1DC0
0DC0
0FC0
0F80
0F80
0780
ENDCHAR
STARTCHAR 2201
ENCODING 8705
SWIDTH 585 0
DWIDTH 13 0
BBX 13 17 0 0
BITMAP
0FC0
1FE0
3FF0
78F8
7878
7800
F000
F000
F000
F000
F000
7800
7878
78F8
3FF0
1FE0
0FC0
ENDCHAR
STARTCHAR 2202
ENCODING 8706
SWIDTH 585 0
DWIDTH 13 0
BBX 10 15 2 0
BITMAP
1E00
3900
3180
0180
01C0
3DC0
73C0
E3C0
E3C0
C3C0
C380
C380
C300
6600
3C00
ENDCHAR
STARTCHAR 2203
ENCODING 8707
SWIDTH 585 0
DWIDTH 13 0
BBX 10 17 2 0
BITMAP
FFC0
FFC0
FFC0
01C0
01C0
01C0
01C0
FFC0
FFC0
FFC0
01C0
01C0
01C0
01C0
FFC0
FFC0
FFC0
ENDCHAR
STARTCHAR 2204
ENCODING 8708
SWIDTH 585 0
DWIDTH 13 0
BBX 10 19 2 -1
BITMAP
0600
FFC0
FFC0
FFC0
0DC0
0DC0
0DC0
1DC0
FFC0
FFC0
FFC0
31C0
31C0
31C0
31C0
FFC0
FFC0
FFC0
C000
ENDCHAR
STARTCHAR 2205
ENCODING 8709
SWIDTH 585 0
DWIDTH 13 0
BBX 12 12 1 1
BITMAP
1F20
3FF0
70C0
E1E0
C360
C730
CE20
DC60
F860
70C0
FFC0
DF00
ENDCHAR
STARTCHAR 2206
ENCODING 8710
SWIDTH 585 0
DWIDTH 13 0
BBX 13 16 0 0
BITMAP
0700
0780
0F80
0F80
0FC0
1DC0
1DC0
1CE0
38E0
38E0
3870
7070
7070
7038
FFF8
FFF8
ENDCHAR
STARTCHAR 2207
ENCODING 8711
SWIDTH 585 0
DWIDTH 13 0
BBX 13 16 0 0
BITMAP
FFF8
FFF8
7FF8
7070
7070
3870
38E0
38E0
1CE0
1DC0
1DC0
0FC0
0F80
0F80
0780
0700
ENDCHAR
STARTCHAR 2208
ENCODING 8712
SWIDTH 585 0
DWIDTH 13 0
BBX 11 17 1 0
BITMAP
0FE0
1FE0
3FE0
7000
6000
E000
E000
FFE0
FFE0
FFE0
E000
E000
6000
7000
3FE0
1FE0
0FE0
ENDCHAR
STARTCHAR 2209
ENCODING 8713
SWIDTH 585 0
DWIDTH 13 0
BBX 11 21 1 -2
BITMAP
0060
00E0
0FE0
1FE0
3FE0
71C0
6180
E380
E300
FFE0
FFE0
FFE0
EE00
EE00
6C00
7C00
3FE0
1FE0
3FE0
3000
3000
ENDCHAR
STARTCHAR 220A
ENCODING 8714
SWIDTH 585 0
DWIDTH 13 0
BBX 11 12 1 1
BITMAP
0FE0
3FE0
7FE0
6000
FFE0
FFE0
FFE0
E000
7000
7FE0
3FE0
0FE0
ENDCHAR
STARTCHAR 220B
ENCODING 8715
SWIDTH 585 0
DWIDTH 13 0
BBX 11 17 1 0
BITMAP
FE00
FF80
FFC0
01C0
00E0
00E0
0060
FFE0
FFE0
FFE0
0060
00E0
00E0
01C0
FFC0
FF80
FE00
ENDCHAR
STARTCHAR 220C
ENCODING 8716
SWIDTH 585 0
DWIDTH 13 0
BBX 11 21 1 -2
BITMAP
0080
01C0
FF80
FF80
FFC0
07C0
07E0
06E0
0E60
FFE0
FFE0
FFE0
1C60
18E0
38E0
31C0
FFC0
FF80
FF00
E000
6000
ENDCHAR
STARTCHAR 220D
ENCODING 8717
SWIDTH 585 0
DWIDTH 13 0
BBX 11 12 1 1
BITMAP
FF00
FF80
FFC0
00E0
00E0
FFE0
FFE0
FFE0
00E0
FFC0
FF80
FF00
ENDCHAR
STARTCHAR 220E
ENCODING 8718
SWIDTH 585 0
DWIDTH 13 0
BBX 8 15 3 0
BITMAP
FF
FF
FF
FF
FF
FF
FF
FF
FF
FF
FF
FF
FF
FF
FF
ENDCHAR
STARTCHAR 220F
ENCODING 8719
SWIDTH 585 0
DWIDTH 13 0
BBX 10 22 2 -5
BITMAP
FFC0
FFC0
FFC0
C1C0
C1C0
C1C0
C1C0
C1C0
C1C0
C1C0
C1C0
C1C0
C1C0
C1C0
C1C0
C1C0
C1C0
C1C0
C1C0
C1C0
C1C0
C1C0
ENDCHAR
STARTCHAR 2210
ENCODING 8720
SWIDTH 585 0
DWIDTH 13 0
BBX 10 22 2 -5
BITMAP
C1C0
C1C0
C1C0
C1C0
C1C0
C1C0
C1C0
C1C0
C1C0
C1C0
C1C0
C1C0
C1C0
C1C0
C1C0
C1C0
C1C0
C1C0
C1C0
C1C0
FFC0
FFC0
ENDCHAR
STARTCHAR 2211
ENCODING 8721
SWIDTH 585 0
DWIDTH 13 0
BBX 11 22 1 -5
BITMAP
FFE0
FFE0
7FE0
7000
3800
1800
1C00
0E00
0E00
0700
0380
0700
0700
0E00
0E00
1C00
1800
3800
7000
7FE0
FFE0
FFE0
ENDCHAR
STARTCHAR 2212
ENCODING 8722
SWIDTH 585 0
DWIDTH 13 0
BBX 12 3 1 6
BITMAP
FFF0
FFF0
FFF0
ENDCHAR
STARTCHAR 2213
ENCODING 8723
SWIDTH 585 0
DWIDTH 13 0
BBX 11 15 1 0
BITMAP
FFE0
FFE0
FFE0
0000
0E00
0E00
0E00
0E00
FFE0
FFE0
FFE0
0E00
0E00
0E00
0E00
ENDCHAR
STARTCHAR 2217
ENCODING 8727
SWIDTH 585 0
DWIDTH 13 0
BBX 11 11 1 2
BITMAP
0600
0600
4660
F7E0
3F80
0E00
3F80
F7E0
4660
0600
0600
ENDCHAR
STARTCHAR 2218
ENCODING 8728
SWIDTH 585 0
DWIDTH 13 0
BBX 7 8 3 4
BITMAP
38
7C
C6
C6
C6
C6
7E
38
ENDCHAR
STARTCHAR 221A
ENCODING 8730
SWIDTH 585 0
DWIDTH 13 0
BBX 12 20 1 0
BITMAP
0070
0070
0070
00E0
00E0
00C0
00C0
01C0
0180
7180
F380
F380
3300
3B00
1F00
1E00
1E00
1E00
0E00
0C00
ENDCHAR
STARTCHAR 221B
ENCODING 8731
SWIDTH 585 0
DWIDTH 13 0
BBX 12 21 1 0
BITMAP
FC00
7E70
0670
3C70
3CE0
06E0
06C0
86C0
FFC0
7980
1180
F180
F380
B300
3B00
3F00
1E00
1E00
1E00
0E00
0C00
ENDCHAR
STARTCHAR 221C
ENCODING 8732
SWIDTH 585 0
DWIDTH 13 0
BBX 12 21 1 0
BITMAP
1C00
3C70
2C70
4C70
8CE0
FEE0
FEC0
0CC0
0DC0
0180
7180
F380
F380
3300
3B00
1F00
1E00
1E00
1E00
0E00
0C00
ENDCHAR
STARTCHAR 221D
ENCODING 8733
SWIDTH 585 0
DWIDTH 13 0
BBX 9 9 2 3
BITMAP
7880
7D80
CF80
C700
C700
C700
EF80
7D80
3880
ENDCHAR
STARTCHAR 221E
ENCODING 8734
SWIDTH 585 0
DWIDTH 13 0
BBX 13 10 0 3
BITMAP
3860
7CF0
7DF8
E798
C718
C718
C798
7FF8
7DF0
38E0
ENDCHAR
STARTCHAR 221F
ENCODING 8735
SWIDTH 585 0
DWIDTH 13 0
BBX 11 12 1 3
BITMAP
E000
E000
E000
E000
E000
E000
E000
E000
E000
FFE0
FFE0
FFE0
ENDCHAR
STARTCHAR 2220
ENCODING 8736
SWIDTH 585 0
DWIDTH 13 0
BBX 11 12 1 3
BITMAP
00E0
00C0
0180
0380
0700
0600
0E00
1C00
3800
3FE0
7FE0
FFE0
ENDCHAR
STARTCHAR 2223
ENCODING 8739
SWIDTH 585 0
DWIDTH 13 0
BBX 3 23 5 -5
BITMAP
E0
E0
E0
E0
E0
E0
E0
E0
E0
E0
E0
E0
E0
E0
E0
E0
E0
E0
E0
E0
E0
E0
E0
ENDCHAR
STARTCHAR 2227
ENCODING 8743
SWIDTH 585 0
DWIDTH 13 0
BBX 9 13 2 0
BITMAP
1E00
3E00
3E00
3E00
3F00
3700
7700
7700
7700
7380
7380
E380
E380
ENDCHAR
STARTCHAR 2228
ENCODING 8744
SWIDTH 585 0
DWIDTH 13 0
BBX 9 13 2 0
BITMAP
E380
E380
7380
7380
7700
7700
7700
3700
3F00
3E00
3E00
3E00
1E00
ENDCHAR
STARTCHAR 2229
ENCODING 8745
SWIDTH 585 0
DWIDTH 13 0
BBX 9 13 2 0
BITMAP
3E00
7F00
7F80
E380
E180
E180
E180
E180
E180
E180
E180
E180
E180
ENDCHAR
STARTCHAR 222A
ENCODING 8746
SWIDTH 585 0
DWIDTH 13 0
BBX 9 14 2 0
BITMAP
E180
E180
E180
E180
E180
E180
E180
E180
E180
E180
E380
7F80
7F00
3E00
ENDCHAR
STARTCHAR 222B
ENCODING 8747
SWIDTH 585 0
DWIDTH 13 0
BBX 12 21 1 -3
BITMAP
01E0
0370
0360
0600
0600
0600
0600
0600
0E00
0E00
0E00
0E00
0E00
0E00
0E00
0E00
0C00
0C00
CC00
E800
F000
ENDCHAR
STARTCHAR 222C
ENCODING 8748
SWIDTH 585 0
DWIDTH 13 0
BBX 13 25 0 -5
BITMAP
1F78
1E78
1AE8
18E0
38E0
38E0
38E0
38E0
38E0
38E0
38E0
38E0
38E0
38E0
38E0
38E0
38E0
38E0
38E0
38E0
38E0
38E0
38E0
FBE0
73C0
ENDCHAR
STARTCHAR 222D
ENCODING 8749
SWIDTH 585 0
DWIDTH 13 0
BBX 14 25 0 -5
BITMAP
3FB8
3BFC
7770
7770
7770
7770
7770
7770
7770
7770
7770
7770
7770
7770
7770
7770
7770
7770
7770
7770
7770
7770
7770
FFF0
EEE0
ENDCHAR
STARTCHAR 2234
ENCODING 8756
SWIDTH 585 0
DWIDTH 13 0
BBX 10 12 2 1
BITMAP
1C00
1C00
1C00
1C00
0000
0000
0000
0000
E3C0
E3C0
E3C0
E3C0
ENDCHAR
STARTCHAR 2235
ENCODING 8757
SWIDTH 585 0
DWIDTH 13 0
BBX 10 12 2 1
BITMAP
E3C0
E3C0
E3C0
E3C0
0000
0000
0000
0000
1E00
1E00
1E00
1E00
ENDCHAR
STARTCHAR 2236
ENCODING 8758
SWIDTH 585 0
DWIDTH 13 0
BBX 4 12 5 1
BITMAP
E0
E0
E0
E0
00
00
00
00
F0
F0
F0
F0
ENDCHAR
STARTCHAR 2237
ENCODING 8759
SWIDTH 585 0
DWIDTH 13 0
BBX 10 12 2 1
BITMAP
E3C0
E3C0
E3C0
E3C0
0000
0000
0000
0000
E3C0
E3C0
E3C0
E3C0
ENDCHAR
STARTCHAR 2238
ENCODING 8760
SWIDTH 585 0
DWIDTH 13 0
BBX 12 8 1 6
BITMAP
0F00
0F00
0F00
0F00
0000
FFF0
FFF0
FFF0
ENDCHAR
STARTCHAR 2239
ENCODING 8761
SWIDTH 585 0
DWIDTH 13 0
BBX 12 12 1 1
BITMAP
00F0
00F0
00F0
00F0
FF00
FF00
FF00
0000
00F0
00F0
00F0
00F0
ENDCHAR
STARTCHAR 223A
ENCODING 8762
SWIDTH 585 0
DWIDTH 13 0
BBX 12 13 1 1
BITMAP
E0F0
E0F0
E0F0
E0F0
0000
FFF0
FFF0
FFF0
0000
E0F0
E0F0
E0F0
E0F0
ENDCHAR
STARTCHAR 223B
ENCODING 8763
SWIDTH 585 0
DWIDTH 13 0
BBX 11 14 1 0
BITMAP
0F00
0F00
0F00
0F00
0000
7C20
FFE0
FFE0
81C0
0000
0F00
0F00
0F00
0F00
ENDCHAR
STARTCHAR 223C
ENCODING 8764
SWIDTH 585 0
DWIDTH 13 0
BBX 11 4 1 5
BITMAP
7C20
FFE0
FFE0
83C0
ENDCHAR
STARTCHAR 223D
ENCODING 8765
SWIDTH 585 0
DWIDTH 13 0
BBX 11 4 1 5
BITMAP
83C0
FFE0
FFE0
7820
ENDCHAR
STARTCHAR 2241
ENCODING 8769
SWIDTH 585 0
DWIDTH 13 0
BBX 11 12 1 1
BITMAP
0380
0300
0300
0700
7E20
FFE0
FFE0
8FC0
0C00
1C00
1800
1800
ENDCHAR
STARTCHAR 2242
ENCODING 8770
SWIDTH 585 0
DWIDTH 13 0
BBX 11 8 1 3
BITMAP
FFE0
FFE0
FFE0
0000
7C20
FFE0
FFE0
83C0
ENDCHAR
STARTCHAR 2243
ENCODING 8771
SWIDTH 585 0
DWIDTH 13 0
BBX 11 8 1 3
BITMAP
7C20
FFE0
FFE0
81C0
0000
FFE0
FFE0
FFE0
ENDCHAR
STARTCHAR 2244
ENCODING 8772
SWIDTH 585 0
DWIDTH 13 0
BBX 11 14 1 0
BITMAP
00C0
0180
0180
7F20
FFE0
C7E0
0680
0C00
FFE0
FFE0
FFE0
3000
6000
2000
ENDCHAR
STARTCHAR 2245
ENCODING 8773
SWIDTH 585 0
DWIDTH 13 0
BBX 11 13 1 1
BITMAP
7C20
FFE0
FFE0
81C0
0000
FFE0
FFE0
FFE0
0000
0000
FFE0
FFE0
FFE0
ENDCHAR
STARTCHAR 2246
ENCODING 8774
SWIDTH 585 0
DWIDTH 13 0
BBX 11 15 1 -1
BITMAP
7C20
FFE0
FFE0
81C0
0180
FFE0
FFE0
FFE0
0700
0E00
FFE0
FFE0
FFE0
3000
1000
ENDCHAR
STARTCHAR 2247
ENCODING 8775
SWIDTH 585 0
DWIDTH 13 0
BBX 11 18 1 -1
BITMAP
0100
01C0
39E0
FFA0
FFE0
87E0
0700
0700
FFE0
FFE0
FFE0
1C00
1C00
FFE0
FFE0
FFE0
3000
7000
ENDCHAR
STARTCHAR 2248
ENCODING 8776
SWIDTH 585 0
DWIDTH 13 0
BBX 11 9 1 3
BITMAP
3820
FFE0
FFE0
83E0
0000
7C20
FFE0
FFE0
83C0
ENDCHAR
STARTCHAR 2249
ENCODING 8777
SWIDTH 585 0
DWIDTH 13 0
BBX 11 13 1 1
BITMAP
0100
0380
3BA0
FFE0
FFE0
87E0
0E00
7E20
FFE0
FFE0
9FC0
3800
1800
ENDCHAR
STARTCHAR 224A
ENCODING 8778
SWIDTH 585 0
DWIDTH 13 0
BBX 11 13 1 1
BITMAP
7C20
FFE0
FFE0
81C0
3020
FE20
FFE0
87E0
8180
0000
FFE0
FFE0
FFE0
ENDCHAR
STARTCHAR 224B
ENCODING 8779
SWIDTH 585 0
DWIDTH 13 0
BBX 11 14 1 0
BITMAP
7820
FFE0
FFE0
83C0
0000
3020
FE20
FFE0
87E0
8180
7C20
FFE0
FFE0
83C0
ENDCHAR
STARTCHAR 224C
ENCODING 8780
SWIDTH 585 0
DWIDTH 13 0
BBX 11 13 1 1
BITMAP
87E0
FFE0
FFE0
3820
0000
FFE0
FFE0
FFE0
0000
0000
FFE0
FFE0
FFE0
ENDCHAR
STARTCHAR 224D
ENCODING 8781
SWIDTH 585 0
DWIDTH 13 0
BBX 11 11 1 2
BITMAP
8020
E0E0
FFE0
7FC0
0E00
0000
0E00
7FC0
FFE0
E0E0
8020
ENDCHAR
STARTCHAR 224E
ENCODING 8782
SWIDTH 585 0
DWIDTH 13 0
BBX 11 14 1 0
BITMAP
0E00
1F00
3F80
F1E0
F1E0
F0E0
0000
0000
F0E0
F1E0
F1E0
3F80
1F00
0E00
ENDCHAR
STARTCHAR 224F
ENCODING 8783
SWIDTH 585 0
DWIDTH 13 0
BBX 11 11 1 3
BITMAP
0E00
1F00
3F80
F1E0
F1E0
F0E0
0000
0000
FFE0
FFE0
FFE0
ENDCHAR
STARTCHAR 2250
ENCODING 8784
SWIDTH 585 0
DWIDTH 13 0
BBX 11 13 1 4
BITMAP
0F00
0F00
0F00
0F00
0000
FFE0
FFE0
FFE0
0000
0000
FFE0
FFE0
FFE0
ENDCHAR
STARTCHAR 2251
ENCODING 8785
SWIDTH 585 0
DWIDTH 13 0
BBX 11 18 1 -1
BITMAP
0F00
0F00
0F00
0F00
0000
FFE0
FFE0
FFE0
0000
0000
FFE0
FFE0
FFE0
0000
0F00
0F00
0F00
0F00
ENDCHAR
STARTCHAR 2252
ENCODING 8786
SWIDTH 585 0
DWIDTH 13 0
BBX 11 18 1 -1
BITMAP
F000
F000
F000
F000
0000
FFE0
FFE0
FFE0
0000
0000
FFE0
FFE0
FFE0
0000
00E0
00E0
00E0
00E0
ENDCHAR
STARTCHAR 2253
ENCODING 8787
SWIDTH 585 0
DWIDTH 13 0
BBX 11 18 1 -1
BITMAP
00E0
00E0
00E0
00E0
0000
FFE0
FFE0
FFE0
0000
0000
FFE0
FFE0
FFE0
0000
F000
F000
F000
F000
ENDCHAR
STARTCHAR 2254
ENCODING 8788
SWIDTH 585 0
DWIDTH 13 0
BBX 12 9 1 3
BITMAP
C000
DFF0
DFF0
DFF0
0000
C000
DFF0
DFF0
DFF0
ENDCHAR
STARTCHAR 2255
ENCODING 8789
SWIDTH 585 0
DWIDTH 13 0
BBX 12 9 1 3
BITMAP
0070
FF70
FF70
FF70
0000
0070
FF70
FF70
FF70
ENDCHAR
STARTCHAR 2256
ENCODING 8790
SWIDTH 585 0
DWIDTH 13 0
BBX 11 8 1 3
BITMAP
FFE0
FFE0
FFE0
3180
3180
FFE0
FFE0
FFE0
ENDCHAR
STARTCHAR 2257
ENCODING 8791
SWIDTH 585 0
DWIDTH 13 0
BBX 11 16 1 3
BITMAP
0E00
1F00
1980
3180
1980
1F00
0E00
0000
FFE0
FFE0
FFE0
0000
0000
FFE0
FFE0
FFE0
ENDCHAR
STARTCHAR 2258
ENCODING 8792
SWIDTH 585 0
DWIDTH 13 0
BBX 11 13 1 4
BITMAP
1F00
7FC0
7FC0
4040
0000
FFE0
FFE0
FFE0
0000
0000
FFE0
FFE0
FFE0
ENDCHAR
STARTCHAR 2259
ENCODING 8793
SWIDTH 585 0
DWIDTH 13 0
BBX 11 16 1 3
BITMAP
0600
0E00
0E00
0F00
1B00
1B80
3980
0000
FFE0
FFE0
FFE0
0000
0000
FFE0
FFE0
FFE0
ENDCHAR
STARTCHAR 225A
ENCODING 8794
SWIDTH 585 0
DWIDTH 13 0
BBX 11 16 1 3
BITMAP
3980
1B80
1B00
0F00
0E00
0E00
0600
0000
FFE0
FFE0
FFE0
0000
0000
FFE0
FFE0
FFE0
ENDCHAR
STARTCHAR 225B
ENCODING 8795
SWIDTH 585 0
DWIDTH 13 0
BBX 11 18 1 3
BITMAP
0400
0400
0600
7FC0
1F00
0F00
0F00
1100
2080
0000
FFE0
FFE0
FFE0
0000
0000
FFE0
FFE0
FFE0
ENDCHAR
STARTCHAR 225C
ENCODING 8796
SWIDTH 585 0
DWIDTH 13 0
BBX 11 18 1 3
BITMAP
0400
0600
0E00
0E00
0B00
1B00
1900
1F80
3F80
0000
FFE0
FFE0
FFE0
0000
0000
FFE0
FFE0
FFE0
ENDCHAR
STARTCHAR 225D
ENCODING 8797
SWIDTH 585 0
DWIDTH 13 0
BBX 11 14 1 3
BITMAP
1060
76E0
DD40
DF40
7740
0000
FFE0
FFE0
FFE0
0000
0000
FFE0
FFE0
FFE0
ENDCHAR
STARTCHAR 225E
ENCODING 8798
SWIDTH 585 0
DWIDTH 13 0
BBX 11 15 1 3
BITMAP
7DC0
66C0
6640
6640
6640
6640
0000
FFE0
FFE0
FFE0
0000
0000
FFE0
FFE0
FFE0
ENDCHAR
STARTCHAR 225F
ENCODING 8799
SWIDTH 585 0
DWIDTH 13 0
BBX 11 18 1 3
BITMAP
0E00
1F00
1300
0300
0600
0C00
0000
0C00
0C00
0000
FFE0
FFE0
FFE0
0000
0000
FFE0
FFE0
FFE0
ENDCHAR
STARTCHAR 2260
ENCODING 8800
SWIDTH 585 0
DWIDTH 13 0
BBX 12 14 1 0
BITMAP
0060
00E0
01C0
FFF0
FFF0
FFF0
0700
0E00
FFF0
FFF0
FFF0
7000
E000
4000
ENDCHAR
STARTCHAR 2261
ENCODING 8801
SWIDTH 585 0
DWIDTH 13 0
BBX 11 13 1 1
BITMAP
FFE0
FFE0
FFE0
0000
0000
FFE0
FFE0
FFE0
0000
0000
FFE0
FFE0
FFE0
ENDCHAR
STARTCHAR 2262
ENCODING 8802
SWIDTH 585 0
DWIDTH 13 0
BBX 11 17 1 -1
BITMAP
0080
01C0
FFE0
FFE0
FFE0
0300
0700
FFE0
FFE0
FFE0
1C00
1C00
FFE0
FFE0
FFE0
7000
3000
ENDCHAR
STARTCHAR 2263
ENCODING 8803
SWIDTH 585 0
DWIDTH 13 0
BBX 11 17 1 -1
BITMAP
FFE0
FFE0
FFE0
0000
0000
FFE0
FFE0
FFE0
0000
FFE0
FFE0
FFE0
0000
0000
FFE0
FFE0
FFE0
ENDCHAR
STARTCHAR 2264
ENCODING 8804
SWIDTH 585 0
DWIDTH 13 0
BBX 11 14 1 0
BITMAP
0020
00E0
07E0
3FE0
FE00
F000
FC00
3FC0
07E0
00E0
0020
FFE0
FFE0
FFE0
ENDCHAR
STARTCHAR 2265
ENCODING 8805
SWIDTH 585 0
DWIDTH 13 0
BBX 11 14 1 0
BITMAP
8000
E000
FC00
7F80
0FE0
00E0
07E0
3FC0
FE00
F000
8000
FFE0
FFE0
FFE0
ENDCHAR
STARTCHAR 2266
ENCODING 8806
SWIDTH 585 0
DWIDTH 13 0
BBX 11 18 1 -3
BITMAP
0020
00E0
07E0
3FE0
FE00
F000
FC00
3FC0
07E0
00E0
0020
FFE0
FFE0
FFE0
0000
FFE0
FFE0
FFE0
ENDCHAR
STARTCHAR 2267
ENCODING 8807
SWIDTH 585 0
DWIDTH 13 0
BBX 11 18 1 -3
BITMAP
8000
E000
FC00
7F80
0FE0
00E0
07E0
3FC0
FE00
F000
8000
FFE0
FFE0
FFE0
0000
FFE0
FFE0
FFE0
ENDCHAR
STARTCHAR 2268
ENCODING 8808
SWIDTH 585 0
DWIDTH 13 0
BBX 11 20 1 -5
BITMAP
0020
00E0
07E0
3FE0
FE00
F000
FC00
3FC0
07E0
00E0
00A0
FFE0
FFE0
FFE0
0E00
FFE0
FFE0
FFE0
3000
1000
ENDCHAR
STARTCHAR 2269
ENCODING 8809
SWIDTH 585 0
DWIDTH 13 0
BBX 11 20 1 -5
BITMAP
8000
E000
FC00
7F80
0FE0
00E0
07E0
3FC0
FE00
F000
8180
FFE0
FFE0
FFE0
0E00
FFE0
FFE0
FFE0
3000
1000
ENDCHAR
STARTCHAR 226D
ENCODING 8813
SWIDTH 585 0
DWIDTH 13 0
BBX 11 17 1 -1
BITMAP
0080
01C0
0180
83A0
E3E0
FFE0
3FC0
0600
0E00
0E00
3FC0
FFE0
F8E0
9820
3800
3000
7000
ENDCHAR
STARTCHAR 226E
ENCODING 8814
SWIDTH 585 0
DWIDTH 13 0
BBX 11 14 1 0
BITMAP
0080
01A0
01E0
03E0
1FC0
7F00
F600
F600
FE00
1FC0
0FE0
18E0
1820
1800
ENDCHAR
STARTCHAR 226F
ENCODING 8815
SWIDTH 585 0
DWIDTH 13 0
BBX 11 14 1 0
BITMAP
0180
8300
E300
FF00
7F00
0FE0
05E0
0DE0
0FE0
3F00
FC00
F800
B000
3000
ENDCHAR
STARTCHAR 2270
ENCODING 8816
SWIDTH 585 0
DWIDTH 13 0
BBX 11 17 1 -2
BITMAP
00C0
01E0
01E0
07E0
3FE0
FF00
F300
FF00
3FC0
07E0
0EE0
0C20
FFE0
FFE0
FFE0
1800
3800
ENDCHAR
STARTCHAR 2271
ENCODING 8817
SWIDTH 585 0
DWIDTH 13 0
BBX 11 17 1 -2
BITMAP
0300
8300
E700
FE00
7F80
0FE0
0CE0
0FE0
3FC0
FE00
F800
B800
FFE0
FFE0
FFE0
6000
6000
ENDCHAR
STARTCHAR 2272
ENCODING 8818
SWIDTH 585 0
DWIDTH 13 0
BBX 11 15 1 -2
BITMAP
0060
03E0
1FE0
FF00
F800
F800
7F80
0FE0
01E0
0020
3020
FE20
FFE0
87E0
8180
ENDCHAR
STARTCHAR 2273
ENCODING 8819
SWIDTH 585 0
DWIDTH 13 0
BBX 11 15 1 -2
BITMAP
C000
F800
FF00
1FE0
03E0
03E0
1FE0
FF00
F800
C000
3020
FE20
FFE0
87E0
8180
ENDCHAR
STARTCHAR 2274
ENCODING 8820
SWIDTH 585 0
DWIDTH 13 0
BBX 11 18 1 -3
BITMAP
0080
01C0
01E0
03E0
1FE0
FF00
FB00
FF00
7F80
0FE0
0FE0
0C20
3C20
FC20
FFE0
9FE0
B980
1000
ENDCHAR
STARTCHAR 2275
ENCODING 8821
SWIDTH 585 0
DWIDTH 13 0
BBX 11 17 1 -2
BITMAP
0300
8300
E700
FE00
7F80
0FE0
0CE0
0FE0
7FC0
FE00
F800
B800
7C20
FFE0
FFE0
E3C0
6000
ENDCHAR
STARTCHAR 2276
ENCODING 8822
SWIDTH 585 0
DWIDTH 13 0
BBX 11 18 1 -3
BITMAP
0060
03E0
1FE0
FF00
F000
FC00
3FC0
07E0
C0E0
F820
FF00
0FE0
01E0
07E0
3FC0
FE00
F000
8000
ENDCHAR
STARTCHAR 2277
ENCODING 8823
SWIDTH 585 0
DWIDTH 13 0
BBX 11 18 1 -3
BITMAP
C000
F800
FF80
0FE0
01E0
07E0
3FC0
FE00
E060
83E0
1FE0
FF00
F000
FC00
3FC0
07E0
00E0
0020
ENDCHAR
STARTCHAR 2278
ENCODING 8824
SWIDTH 585 0
DWIDTH 13 0
BBX 11 22 1 -5
BITMAP
00C0
01C0
01E0
03E0
1FE0
FF80
F300
FF00
3FC0
07E0
CEE0
FE20
FF00
1FE0
1DE0
1FE0
3FC0
FE00
F800
B000
7000
1000
ENDCHAR
STARTCHAR 2279
ENCODING 8825
SWIDTH 585 0
DWIDTH 13 0
BBX 11 22 1 -5
BITMAP
00C0
01C0
C1C0
F980
FF80
0FE0
03E0
07E0
3FC0
FE00
EE60
8FE0
1FE0
FF00
FC00
FC00
3FC0
3FE0
38E0
3020
7000
1000
ENDCHAR
STARTCHAR 227A
ENCODING 8826
SWIDTH 585 0
DWIDTH 13 0
BBX 11 16 1 -1
BITMAP
0020
0020
0060
00E0
01E0
0FC0
7F80
FE00
FC00
7F00
0FC0
01E0
00E0
0060
0020
0020
ENDCHAR
STARTCHAR 227B
ENCODING 8827
SWIDTH 585 0
DWIDTH 13 0
BBX 11 16 1 -1
BITMAP
8000
8000
C000
E000
F800
7E00
1FC0
07E0
07E0
1FE0
3E00
7800
E000
C000
8000
8000
ENDCHAR
STARTCHAR 227C
ENCODING 8828
SWIDTH 585 0
DWIDTH 13 0
BBX 11 22 1 -5
BITMAP
0020
0020
0060
00E0
03E0
0F80
FF00
FC00
FE00
3F80
07C0
81E0
F0E0
FC20
3F20
07A0
03C0
00E0
0060
0020
0020
0020
ENDCHAR
STARTCHAR 227D
ENCODING 8829
SWIDTH 585 0
DWIDTH 13 0
BBX 11 22 1 -5
BITMAP
8000
8000
C000
E000
7800
3F00
1FE0
03E0
0FE0
3F80
7C00
F020
E1E0
C7E0
8F80
BE00
7800
7000
E000
C000
8000
8000
ENDCHAR
STARTCHAR 227E
ENCODING 8830
SWIDTH 585 0
DWIDTH 13 0
BBX 11 20 1 -2
BITMAP
0020
0020
0020
0060
01E0
07C0
FF80
FE00
FC00
FF00
0FC0
03E0
00E0
0060
0020
0020
7C20
FFE0
FFE0
83C0
ENDCHAR
STARTCHAR 227F
ENCODING 8831
SWIDTH 585 0
DWIDTH 13 0
BBX 11 20 1 -2
BITMAP
8000
8000
C000
E000
F000
7C00
1FE0
0FE0
03E0
1FE0
3F00
7800
F000
C000
8000
8000
7820
FFE0
FFE0
83C0
ENDCHAR
STARTCHAR 2280
ENCODING 8832
SWIDTH 585 0
DWIDTH 13 0
BBX 11 20 1 -3
BITMAP
0080
00E0
00E0
01E0
01E0
01E0
03E0
0FC0
7F80
FF00
FF00
7F00
0FC0
0FE0
0CE0
1C60
1C20
1820
3800
0800
ENDCHAR
STARTCHAR 2281
ENCODING 8833
SWIDTH 585 0
DWIDTH 13 0
BBX 11 20 1 -3
BITMAP
0200
0380
8380
8300
C700
E700
FE00
3E00
1FC0
0FE0
1FE0
1FE0
3E00
7800
F800
F000
F000
F000
6000
2000
ENDCHAR
STARTCHAR 2282
ENCODING 8834
SWIDTH 585 0
DWIDTH 13 0
BBX 11 12 1 1
BITMAP
1FE0
3FE0
7FE0
E000
E000
C000
C000
E000
F000
7FE0
3FE0
0FE0
ENDCHAR
STARTCHAR 2283
ENCODING 8835
SWIDTH 585 0
DWIDTH 13 0
BBX 11 12 1 1
BITMAP
FF00
FFC0
FFE0
00E0
0060
0060
0060
0060
00E0
FFC0
FF80
FF00
ENDCHAR
STARTCHAR 2284
ENCODING 8836
SWIDTH 585 0
DWIDTH 13 0
BBX 11 18 1 -2
BITMAP
0080
01C0
0180
1FE0
3FE0
7FE0
E700
E600
C600
CE00
EC00
7C00
7FE0
3FE0
1FE0
3000
3000
1000
ENDCHAR
STARTCHAR 2285
ENCODING 8837
SWIDTH 585 0
DWIDTH 13 0
BBX 11 18 1 -2
BITMAP
0080
01C0
0180
FF80
FFC0
FFC0
07E0
0660
0660
0E60
0C60
0CE0
FFC0
FF80
FF00
3000
3000
1000
ENDCHAR
STARTCHAR 2286
ENCODING 8838
SWIDTH 585 0
DWIDTH 13 0
BBX 11 16 1 0
BITMAP
0FE0
3FE0
7FE0
F000
E000
C000
C000
E000
E000
7FE0
3FE0
1FE0
0000
FFE0
FFE0
FFE0
ENDCHAR
STARTCHAR 2287
ENCODING 8839
SWIDTH 585 0
DWIDTH 13 0
BBX 11 16 1 0
BITMAP
FF00
FF80
FFC0
00E0
0060
0060
0060
0060
00E0
FFE0
FFC0
FF00
0000
FFE0
FFE0
FFE0
ENDCHAR
STARTCHAR 2288
ENCODING 8840
SWIDTH 585 0
DWIDTH 13 0
BBX 11 20 1 -2
BITMAP
0100
01C0
0FE0
3FE0
7FE0
F300
E300
C600
C600
EE00
EC00
7FE0
3FE0
1FE0
1800
FFE0
FFE0
FFE0
6000
6000
ENDCHAR
STARTCHAR 2289
ENCODING 8841
SWIDTH 585 0
DWIDTH 13 0
BBX 11 20 1 -2
BITMAP
0100
01C0
FF80
FF80
FFC0
03E0
0360
0660
0660
0E60
0CE0
FFE0
FFC0
FF00
1800
FFE0
FFE0
FFE0
6000
6000
ENDCHAR
STARTCHAR 228A
ENCODING 8842
SWIDTH 585 0
DWIDTH 13 0
BBX 11 18 1 -2
BITMAP
0FE0
3FE0
7FE0
F000
E000
C000
C000
E000
E000
7FE0
3FE0
1FE0
0380
FFE0
FFE0
FFE0
3C00
1800
ENDCHAR
STARTCHAR 228B
ENCODING 8843
SWIDTH 585 0
DWIDTH 13 0
BBX 11 18 1 -2
BITMAP
FF00
FF80
FFC0
00E0
0060
0060
0060
0060
00E0
FFE0
FFC0
FF00
0380
FFE0
FFE0
FFE0
3C00
1800
ENDCHAR
STARTCHAR 228D
ENCODING 8845
SWIDTH 585 0
DWIDTH 13 0
BBX 11 15 1 0
BITMAP
E060
E060
E060
E060
E060
E060
EE60
EE60
EE60
E060
E060
E0E0
7FE0
7FC0
1F80
ENDCHAR
STARTCHAR 228E
ENCODING 8846
SWIDTH 585 0
DWIDTH 13 0
BBX 11 15 1 0
BITMAP
E060
E060
E060
E060
E060
E460
FF60
FF60
E460
E460
E060
E0E0
7FE0
7FC0
1F80
ENDCHAR
STARTCHAR 228F
ENCODING 8847
SWIDTH 585 0
DWIDTH 13 0
BBX 11 13 1 1
BITMAP
FFE0
FFE0
FFE0
E000
E000
E000
E000
E000
E000
E000
FFE0
FFE0
FFE0
ENDCHAR
STARTCHAR 2290
ENCODING 8848
SWIDTH 585 0
DWIDTH 13 0
BBX 11 13 1 1
BITMAP
FFE0
FFE0
FFE0
0060
0060
0060
0060
0060
0060
0060
FFE0
FFE0
FFE0
ENDCHAR
STARTCHAR 2291
ENCODING 8849
SWIDTH 585 0
DWIDTH 13 0
BBX 11 15 1 0
BITMAP
FFE0
FFE0
FFE0
E000
E000
E000
E000
E000
FFE0
FFE0
FFE0
0000
FFE0
FFE0
FFE0
ENDCHAR
STARTCHAR 2292
ENCODING 8850
SWIDTH 585 0
DWIDTH 13 0
BBX 11 15 1 0
BITMAP
FFE0
FFE0
FFE0
0060
0060
0060
0060
0060
FFE0
FFE0
FFE0
0000
FFE0
FFE0
FFE0
ENDCHAR
STARTCHAR 2293
ENCODING 8851
SWIDTH 585 0
DWIDTH 13 0
BBX 12 15 1 0
BITMAP
FFF0
FFF0
FFF0
C070
C070
C070
C070
C070
C070
C070
C070
C070
C070
C070
C070
ENDCHAR
STARTCHAR 2294
ENCODING 8852
SWIDTH 585 0
DWIDTH 13 0
BBX 12 15 1 0
BITMAP
C070
C070
C070
C070
C070
C070
C070
C070
C070
C070
C070
C070
FFF0
FFF0
FFF0
ENDCHAR
STARTCHAR 2295
ENCODING 8853
SWIDTH 585 0
DWIDTH 13 0
BBX 13 14 0 1
BITMAP
0700
1FC0
3FE0
7B70
6338
E318
DFD8
DFD8
E318
6338
7370
3FF0
1FE0
0F80
ENDCHAR
STARTCHAR 2296
ENCODING 8854
SWIDTH 585 0
DWIDTH 13 0
BBX 13 14 0 1
BITMAP
0700
1FC0
3FE0
7870
6038
E018
DFD8
DFD8
E018
6038
7070
3FF0
1FE0
0F80
ENDCHAR
STARTCHAR 2297
ENCODING 8855
SWIDTH 585 0
DWIDTH 13 0
BBX 13 14 0 1
BITMAP
0700
1FC0
3FE0
7870
68B8
FDD8
C798
C718
EF98
7CF8
7070
3FF0
1FE0
0F80
ENDCHAR
STARTCHAR 2298
ENCODING 8856
SWIDTH 585 0
DWIDTH 13 0
BBX 13 14 0 1
BITMAP
0700
1FC0
3FE0
7870
60B8
E1D8
C398
C718
EE18
7C38
7070
3FF0
1FE0
0F80
ENDCHAR
STARTCHAR 2299
ENCODING 8857
SWIDTH 585 0
DWIDTH 13 0
BBX 13 14 0 1
BITMAP
0700
1FC0
3FE0
7870
6038
E718
C718
C718
E718
6038
7070
3FF0
1FE0
0F80
ENDCHAR
STARTCHAR 229A
ENCODING 8858
SWIDTH 585 0
DWIDTH 13 0
BBX 13 14 0 1
BITMAP
0700
1FC0
3FE0
7870
6738
EF98
CCD8
CCD8
EF98
6738
7070
3FF0
1FE0
0F80
ENDCHAR
STARTCHAR 229B
ENCODING 8859
SWIDTH 585 0
DWIDTH 13 0
BBX 13 13 0 1
BITMAP
0F80
1FE0
3BF0
7330
7378
FFF8
CF98
DFD8
7BF8
7330
3BF0
1FE0
0F80
ENDCHAR
STARTCHAR 229C
ENCODING 8860
SWIDTH 585 0
DWIDTH 13 0
BBX 13 14 0 1
BITMAP
0700
1FC0
3FE0
7870
6038
FFD8
DFD8
C018
FFD8
7FF8
7070
3FF0
1FE0
0F80
ENDCHAR
STARTCHAR 229D
ENCODING 8861
SWIDTH 585 0
DWIDTH 13 0
BBX 13 14 0 1
BITMAP
0700
1FC0
3FE0
7870
6038
E018
CF98
CF98
E018
6038
7070
3FF0
1FE0
0F80
ENDCHAR
STARTCHAR 229E
ENCODING 8862
SWIDTH 585 0
DWIDTH 13 0
BBX 12 13 1 1
BITMAP
FFF0
FFF0
8030
8630
8630
8630
BFB0
BFB0
8630
8630
8630
FFF0
FFF0
ENDCHAR
STARTCHAR 229F
ENCODING 8863
SWIDTH 585 0
DWIDTH 13 0
BBX 12 13 1 1
BITMAP
FFF0
FFF0
8030
8030
8030
8030
BFB0
BFB0
8030
8030
8030
FFF0
FFF0
ENDCHAR
STARTCHAR 22A0
ENCODING 8864
SWIDTH 585 0
DWIDTH 13 0
BBX 12 13 1 1
BITMAP
FFF0
FFF0
8030
B1B0
BBB0
9F30
8E30
9F30
9BB0
B1B0
90B0
FFF0
FFF0
ENDCHAR
STARTCHAR 22A1
ENCODING 8865
SWIDTH 585 0
DWIDTH 13 0
BBX 12 13 1 1
BITMAP
FFF0
FFF0
8030
8030
8030
8E30
8E30
8E30
8E30
8030
8030
FFF0
FFF0
ENDCHAR
STARTCHAR 22A2
ENCODING 8866
SWIDTH 585 0
DWIDTH 13 0
BBX 12 15 1 0
BITMAP
C000
C000
C000
C000
C000
C000
FFF0
FFF0
FFF0
C000
C000
C000
C000
C000
C000
ENDCHAR
STARTCHAR 22A3
ENCODING 8867
SWIDTH 585 0
DWIDTH 13 0
BBX 12 15 1 0
BITMAP
0070
0070
0070
0070
0070
0070
FFF0
FFF0
FFF0
0070
0070
0070
0070
0070
0070
ENDCHAR
STARTCHAR 22A4
ENCODING 8868
SWIDTH 585 0
DWIDTH 13 0
BBX 12 15 1 0
BITMAP
FFF0
FFF0
FFF0
0E00
0E00
0E00
0E00
0E00
0E00
0E00
0E00
0E00
0E00
0E00
0E00
ENDCHAR
STARTCHAR 22B2
ENCODING 8882
SWIDTH 585 0
DWIDTH 13 0
BBX 11 12 1 1
BITMAP
0020
00E0
03E0
1FE0
7E60
F060
F060
FE60
1FE0
03E0
00E0
0020
ENDCHAR
STARTCHAR 22B3
ENCODING 8883
SWIDTH 585 0
DWIDTH 13 0
BBX 11 12 1 1
BITMAP
8000
E000
FC00
FF00
EFE0
E1E0
E1E0
E7E0
FF00
FC00
E000
8000
ENDCHAR
STARTCHAR 22B4
ENCODING 8884
SWIDTH 585 0
DWIDTH 13 0
BBX 11 14 1 0
BITMAP
0020
00E0
07E0
3FE0
FE60
F060
FC60
3FE0
07E0
00E0
0020
FFE0
FFE0
FFE0
ENDCHAR
STARTCHAR 22B5
ENCODING 8885
SWIDTH 585 0
DWIDTH 13 0
BBX 11 14 1 0
BITMAP
8000
E000
FC00
FF80
EFE0
E0E0
E7E0
FFC0
FE00
F000
8000
FFE0
FFE0
FFE0
ENDCHAR
STARTCHAR 22B8
ENCODING 8888
SWIDTH 585 0
DWIDTH 13 0
BBX 13 7 0 4
BITMAP
0060
00F0
FF98
FF98
FF98
01F8
00F0
ENDCHAR
STARTCHAR 22C2
ENCODING 8898
SWIDTH 585 0
DWIDTH 13 0
BBX 11 23 1 -5
BITMAP
1F80
7FC0
7FE0
E0E0
E060
E060
E060
E060
E060
E060
E060
E060
E060
E060
E060
E060
E060
E060
E060
E060
E060
E060
E060
ENDCHAR
STARTCHAR 22C3
ENCODING 8899
SWIDTH 585 0
DWIDTH 13 0
BBX 11 22 1 -5
BITMAP
E060
E060
E060
E060
E060
E060
E060
E060
E060
E060
E060
E060
E060
E060
E060
E060
E060
E060
E0E0
7FE0
7FC0
1F80
ENDCHAR
STARTCHAR 22C4
ENCODING 8900
SWIDTH 585 0
DWIDTH 13 0
BBX 13 14 0 1
BITMAP
0200
0300
0780
0DC0
18E0
3070
6038
E038
7070
38E0
1DC0
0F80
0700
0200
ENDCHAR
STARTCHAR 22C5
ENCODING 8901
SWIDTH 585 0
DWIDTH 13 0
BBX 3 4 5 6
BITMAP
E0
E0
E0
E0
ENDCHAR
STARTCHAR 22C6
ENCODING 8902
SWIDTH 585 0
DWIDTH 13 0
BBX 9 8 2 4
BITMAP
0800
0800
0C00
FF80
3E00
1C00
1600
2200
ENDCHAR
STARTCHAR 22CD
ENCODING 8909
SWIDTH 585 0
DWIDTH 13 0
BBX 11 8 1 3
BITMAP
87E0
FFE0
FFE0
3820
0000
FFE0
FFE0
FFE0
ENDCHAR
STARTCHAR 22CE
ENCODING 8910
SWIDTH 585 0
DWIDTH 13 0
BBX 13 15 0 0
BITMAP
F038
7870
38E0
1DE0
1DC0
0FC0
0F80
0F80
0780
0780
0700
0700
0700
0700
0700
ENDCHAR
STARTCHAR 22CF
ENCODING 8911
SWIDTH 585 0
DWIDTH 13 0
BBX 13 15 0 0
BITMAP
0700
0700
0700
0700
0700
0780
0780
0F80
0F80
0FC0
1FC0
1DC0
3CE0
78F0
F078
ENDCHAR
STARTCHAR 22D0
ENCODING 8912
SWIDTH 585 0
DWIDTH 13 0
BBX 11 16 1 0
BITMAP
03E0
1FE0
3FE0
7800
73E0
E7E0
EFE0
CE00
CC00
EFE0
E7E0
73E0
7800
3FE0
1FE0
07E0
ENDCHAR
STARTCHAR 22D1
ENCODING 8913
SWIDTH 585 0
DWIDTH 13 0
BBX 11 16 1 0
BITMAP
FC00
FF00
FF80
03C0
F8E0
FCE0
FE60
0660
0660
FE60
FEE0
FCE0
01C0
FF80
FF00
FE00
ENDCHAR
STARTCHAR 22DA
ENCODING 8922
SWIDTH 585 0
DWIDTH 13 0
BBX 11 25 1 -6
BITMAP
0020
00E0
07E0
3FE0
FE00
F000
FC00
3FC0
07E0
00E0
0020
FFE0
FFE0
FFE0
0000
E000
FC00
7F80
0FE0
01E0
07E0
3FC0
FE00
F000
8000
ENDCHAR
STARTCHAR 22DB
ENCODING 8923
SWIDTH 585 0
DWIDTH 13 0
BBX 11 25 1 -6
BITMAP
8000
E000
FC00
7F80
0FE0
00E0
07E0
3FC0
FE00
F000
8000
FFE0
FFE0
FFE0
0000
0060
03E0
1FE0
FE00
F000
FC00
7FC0
0FE0
01E0
0020
ENDCHAR
STARTCHAR 22DC
ENCODING 8924
SWIDTH 585 0
DWIDTH 13 0
BBX 11 14 1 0
BITMAP
FFE0
FFE0
FFE0
0000
0060
03E0
1FE0
FE00
F000
FC00
7FC0
0FE0
01E0
0020
ENDCHAR
STARTCHAR 22DD
ENCODING 8925
SWIDTH 585 0
DWIDTH 13 0
BBX 11 14 1 0
BITMAP
FFE0
FFE0
FFE0
0000
E000
FC00
7F80
0FE0
01E0
07E0
3FC0
FE00
F000
8000
ENDCHAR
STARTCHAR 22DE
ENCODING 8926
SWIDTH 585 0
DWIDTH 13 0
BBX 11 22 1 -5
BITMAP
0020
0020
0020
0060
00E0
03C0
07A0
3F20
FC20
F0E0
81E0
07C0
3F80
FE00
FC00
FF00
0F80
03E0
00E0
0060
0020
0020
ENDCHAR
STARTCHAR 22DF
ENCODING 8927
SWIDTH 585 0
DWIDTH 13 0
BBX 11 22 1 -5
BITMAP
8000
8000
C000
E000
7000
7800
BE00
8F80
C7E0
E1E0
F020
7C00
3FC0
0FE0
03E0
1FE0
3F00
7800
E000
C000
8000
8000
ENDCHAR
STARTCHAR 22E0
ENCODING 8928
SWIDTH 585 0
DWIDTH 13 0
BBX 11 25 1 -6
BITMAP
0100
0180
03A0
03A0
03E0
03E0
03E0
0F80
FF00
FF00
FE00
3F80
0FC0
CFE0
FE60
FC20
1F20
1F80
1FC0
1CE0
1860
1820
3820
3820
1800
ENDCHAR
STARTCHAR 22E1
ENCODING 8929
SWIDTH 585 0
DWIDTH 13 0
BBX 11 24 1 -5
BITMAP
0100
0180
8380
8380
C380
F300
7B00
3F00
0FE0
07E0
0FE0
3F80
7E00
FE20
EFE0
CFE0
9F80
3C00
7C00
FC00
F800
D800
B800
B800
ENDCHAR
STARTCHAR 22E2
ENCODING 8930
SWIDTH 585 0
DWIDTH 13 0
BBX 11 21 1 -3
BITMAP
00C0
01C0
01C0
FFE0
FFE0
FFE0
E300
E700
E700
E600
EE00
FFE0
FFE0
FFE0
1C00
FFE0
FFE0
FFE0
3000
7000
3000
ENDCHAR
STARTCHAR 22E3
ENCODING 8931
SWIDTH 585 0
DWIDTH 13 0
BBX 11 21 1 -3
BITMAP
00C0
01C0
01C0
FFE0
FFE0
FFE0
0360
0760
0760
0660
0E60
FFE0
FFE0
FFE0
1C00
FFE0
FFE0
FFE0
3000
7000
3000
ENDCHAR
STARTCHAR 22E4
ENCODING 8932
SWIDTH 585 0
DWIDTH 13 0
BBX 11 18 1 -3
BITMAP
FFE0
FFE0
FFE0
E000
E000
E000
E000
E000
FFE0
FFE0
FFE0
0380
FFE0
FFE0
FFE0
1C00
1800
0800
ENDCHAR
STARTCHAR 22E5
ENCODING 8933
SWIDTH 585 0
DWIDTH 13 0
BBX 11 18 1 -3
BITMAP
FFE0
FFE0
FFE0
0060
0060
0060
0060
0060
FFE0
FFE0
FFE0
0380
FFE0
FFE0
FFE0
1C00
1800
0800
ENDCHAR
STARTCHAR 22E6
ENCODING 8934
SWIDTH 585 0
DWIDTH 13 0
BBX 11 17 1 -4
BITMAP
0060
03E0
1FE0
FF00
F800
F800
7F80
0FE0
03E0
0720
3720
FE20
FFE0
8FE0
8D80
0C00
1C00
ENDCHAR
STARTCHAR 22E7
ENCODING 8935
SWIDTH 585 0
DWIDTH 13 0
BBX 11 17 1 -4
BITMAP
C000
F800
FF00
1FE0
03E0
03E0
1FE0
FF00
FB00
C700
3720
FE20
FFE0
8FE0
8D80
0C00
1C00
ENDCHAR
STARTCHAR 22E8
ENCODING 8936
SWIDTH 585 0
DWIDTH 13 0
BBX 11 23 1 -5
BITMAP
0020
0020
0020
0060
01E0
07C0
FF80
FE00
FC00
FF00
0FC0
03E0
00E0
0260
0320
0720
7E20
FFE0
FFE0
8FC0
0C00
1C00
0800
ENDCHAR
STARTCHAR 22E9
ENCODING 8937
SWIDTH 585 0
DWIDTH 13 0
BBX 11 23 1 -5
BITMAP
8000
8000
C000
E000
F000
7C00
1FE0
0FE0
03E0
1FE0
3F00
7800
F000
C200
8300
8700
7E20
FFE0
FFE0
8FC0
0C00
1C00
0400
ENDCHAR
STARTCHAR 22EF
ENCODING 8943
SWIDTH 585 0
DWIDTH 13 0
BBX 12 4 1 5
BITMAP
EE70
EE70
EE70
EE70
ENDCHAR
STARTCHAR 2304
ENCODING 8964
SWIDTH 585 0
DWIDTH 13 0
BBX 10 8 2 -3
BITMAP
C1C0
6180
6300
3700
3E00
1C00
0C00
0800
ENDCHAR
STARTCHAR 2308
ENCODING 8968
SWIDTH 585 0
DWIDTH 13 0
BBX 5 21 5 -3
BITMAP
F8
F8
F8
C0
C0
C0
C0
C0
C0
C0
C0
C0
C0
C0
C0
C0
C0
C0
C0
C0
C0
ENDCHAR
STARTCHAR 2309
ENCODING 8969
SWIDTH 585 0
DWIDTH 13 0
BBX 6 21 3 -3
BITMAP
FC
FC
FC
1C
1C
1C
1C
1C
1C
1C
1C
1C
1C
1C
1C
1C
1C
1C
1C
1C
1C
ENDCHAR
STARTCHAR 230A
ENCODING 8970
SWIDTH 585 0
DWIDTH 13 0
BBX 5 21 5 -3
BITMAP
C0
C0
C0
C0
C0
C0
C0
C0
C0
C0
C0
C0
C0
C0
C0
C0
C0
C0
C0
F8
F8
ENDCHAR
STARTCHAR 230B
ENCODING 8971
SWIDTH 585 0
DWIDTH 13 0
BBX 6 21 3 -3
BITMAP
1C
1C
1C
1C
1C
1C
1C
1C
1C
1C
1C
1C
1C
1C
1C
1C
1C
1C
1C
FC
FC
ENDCHAR
STARTCHAR 2310
ENCODING 8976
SWIDTH 585 0
DWIDTH 13 0
BBX 11 6 1 5
BITMAP
FFE0
FFE0
FFE0
E000
E000
E000
ENDCHAR
STARTCHAR 2320
ENCODING 8992
SWIDTH 585 0
DWIDTH 13 0
BBX 8 26 5 -5
BITMAP
1E
37
36
60
60
60
60
60
E0
E0
E0
E0
E0
E0
E0
E0
E0
E0
E0
E0
E0
E0
E0
E0
E0
E0
ENDCHAR
STARTCHAR 2321
ENCODING 8993
SWIDTH 585 0
DWIDTH 13 0
BBX 7 26 1 -5
BITMAP
0E
0E
0E
0E
0E
0E
0E
0E
0E
0E
0E
0E
0E
0E
0E
0E
0E
0E
0E
0E
0E
0C
0C
CC
F8
F0
ENDCHAR
STARTCHAR 239B
ENCODING 9115
SWIDTH 585 0
DWIDTH 13 0
BBX 8 26 3 -5
BITMAP
07
0E
0E
1C
1C
38
38
38
70
70
70
70
F0
E0
E0
E0
E0
E0
E0
E0
E0
E0
E0
E0
E0
E0
ENDCHAR
STARTCHAR 239C
ENCODING 9116
SWIDTH 585 0
DWIDTH 13 0
BBX 3 26 3 -5
BITMAP
E0
E0
E0
E0
E0
E0
E0
E0
E0
E0
E0
E0
E0
E0
E0
E0
E0
E0
E0
E0
E0
E0
E0
E0
E0
E0
ENDCHAR
STARTCHAR 239D
ENCODING 9117
SWIDTH 585 0
DWIDTH 13 0
BBX 8 26 3 -5
BITMAP
E0
E0
E0
E0
E0
E0
E0
E0
E0
E0
E0
E0
E0
E0
70
70
70
70
38
38
38
1C
1C
0E
0E
07
ENDCHAR
STARTCHAR 239E
ENCODING 9118
SWIDTH 585 0
DWIDTH 13 0
BBX 8 26 3 -5
BITMAP
E0
E0
70
70
38
38
38
1C
1C
1C
1E
0E
0E
0E
0E
0E
0F
0F
07
07
07
07
07
07
07
07
ENDCHAR
STARTCHAR 239F
ENCODING 9119
SWIDTH 585 0
DWIDTH 13 0
BBX 3 26 8 -5
BITMAP
E0
E0
E0
E0
E0
E0
E0
E0
E0
E0
E0
E0
E0
E0
E0
E0
E0
E0
E0
E0
E0
E0
E0
E0
E0
E0
ENDCHAR
STARTCHAR 23A0
ENCODING 9120
SWIDTH 585 0
DWIDTH 13 0
BBX 8 26 3 -5
BITMAP
07
07
07
07
07
07
07
07
07
0F
0E
0E
0E
0E
0E
0E
1C
1C
1C
38
38
38
70
70
E0
E0
ENDCHAR
STARTCHAR 23A1
ENCODING 9121
SWIDTH 585 0
DWIDTH 13 0
BBX 8 26 3 -5
BITMAP
FF
FF
FF
E0
E0
E0
E0
E0
E0
E0
E0
E0
E0
E0
E0
E0
E0
E0
E0
E0
E0
E0
E0
E0
E0
E0
ENDCHAR
STARTCHAR 23A2
ENCODING 9122
SWIDTH 585 0
DWIDTH 13 0
BBX 3 26 3 -5
BITMAP
E0
E0
E0
E0
E0
E0
E0
E0
E0
E0
E0
E0
E0
E0
E0
E0
E0
E0
E0
E0
E0
E0
E0
E0
E0
E0
ENDCHAR
STARTCHAR 23A3
ENCODING 9123
SWIDTH 585 0
DWIDTH 13 0
BBX 8 26 3 -5
BITMAP
E0
E0
E0
E0
E0
E0
E0
E0
E0
E0
E0
E0
E0
E0
E0
E0
E0
E0
E0
E0
E0
E0
E0
FF
FF
FF
ENDCHAR
STARTCHAR 23A4
ENCODING 9124
SWIDTH 585 0
DWIDTH 13 0
BBX 8 26 3 -5
BITMAP
FF
FF
FF
07
07
07
07
07
07
07
07
07
07
07
07
07
07
07
07
07
07
07
07
07
07
07
ENDCHAR
STARTCHAR 23A5
ENCODING 9125
SWIDTH 585 0
DWIDTH 13 0
BBX 3 26 8 -5
BITMAP
E0
E0
E0
E0
E0
E0
E0
E0
E0
E0
E0
E0
E0
E0
E0
E0
E0
E0
E0
E0
E0
E0
E0
E0
E0
E0
ENDCHAR
STARTCHAR 23A6
ENCODING 9126
SWIDTH 585 0
DWIDTH 13 0
BBX 8 26 3 -5
BITMAP
07
07
07
07
07
07
07
07
07
07
07
07
07
07
07
07
07
07
07
07
07
07
07
FF
FF
FF
ENDCHAR
STARTCHAR 23A7
ENCODING 9127
SWIDTH 585 0
DWIDTH 13 0
BBX 8 27 5 -6
BITMAP
1F
3F
7F
E0
E0
E0
E0
E0
E0
E0
E0
E0
E0
E0
E0
E0
E0
E0
E0
E0
E0
E0
E0
E0
E0
E0
E0
ENDCHAR
STARTCHAR 23A8
ENCODING 9128
SWIDTH 585 0
DWIDTH 13 0
BBX 8 26 0 -5
BITMAP
07
07
07
07
07
07
07
07
07
07
0F
FE
FC
FE
0F
07
07
07
07
07
07
07
07
07
07
07
ENDCHAR
STARTCHAR 23A9
ENCODING 9129
SWIDTH 585 0
DWIDTH 13 0
BBX 8 26 5 -5
BITMAP
E0
E0
E0
E0
E0
E0
E0
E0
E0
E0
E0
E0
E0
E0
E0
E0
E0
E0
E0
E0
E0
E0
E0
7F
3F
1F
ENDCHAR
STARTCHAR 23AA
ENCODING 9130
SWIDTH 585 0
DWIDTH 13 0
BBX 3 26 5 -5
BITMAP
E0
E0
E0
E0
E0
E0
E0
E0
E0
E0
E0
E0
E0
E0
E0
E0
E0
E0
E0
E0
E0
E0
E0
E0
E0
E0
ENDCHAR
STARTCHAR 23AB
ENCODING 9131
SWIDTH 585 0
DWIDTH 13 0
BBX 8 27 0 -6
BITMAP
FC
FE
FF
07
07
07
07
07
07
07
07
07
07
07
07
07
07
07
07
07
07
07
07
07
07
07
07
ENDCHAR
STARTCHAR 23AC
ENCODING 9132
SWIDTH 585 0
DWIDTH 13 0
BBX 8 26 5 -5
BITMAP
E0
E0
E0
E0
E0
E0
E0
E0
E0
F0
78
7F
3F
7F
70
F0
E0
E0
E0
E0
E0
E0
E0
E0
E0
E0
ENDCHAR
STARTCHAR 23AD
ENCODING 9133
SWIDTH 585 0
DWIDTH 13 0
BBX 8 26 0 -5
BITMAP
07
07
07
07
07
07
07
07
07
07
07
07
07
07
07
07
07
07
07
07
07
07
07
FF
FE
FC
ENDCHAR
STARTCHAR 23AE
ENCODING 9134
SWIDTH 585 0
DWIDTH 13 0
BBX 3 26 5 -5
BITMAP
E0
E0
E0
E0
E0
E0
E0
E0
E0
E0
E0
E0
E0
E0
E0
E0
E0
E0
E0
E0
E0
E0
E0
E0
E0
E0
ENDCHAR
STARTCHAR 2500
ENCODING 9472
SWIDTH 585 0
DWIDTH 13 0
BBX 14 2 0 7
BITMAP
FFFC
FFFC
ENDCHAR
STARTCHAR 2501
ENCODING 9473
SWIDTH 585 0
DWIDTH 13 0
BBX 14 4 0 6
BITMAP
FFFC
FFFC
FFFC
FFFC
ENDCHAR
STARTCHAR 2502
ENCODING 9474
SWIDTH 585 0
DWIDTH 13 0
BBX 2 28 6 -5
BITMAP
C0
C0
C0
C0
C0
C0
C0
C0
C0
C0
C0
C0
C0
C0
C0
C0
C0
C0
C0
C0
C0
C0
C0
C0
C0
C0
C0
C0
ENDCHAR
STARTCHAR 2503
ENCODING 9475
SWIDTH 585 0
DWIDTH 13 0
BBX 3 28 5 -5
BITMAP
E0
E0
E0
E0
E0
E0
E0
E0
E0
E0
E0
E0
E0
E0
E0
E0
E0
E0
E0
E0
E0
E0
E0
E0
E0
E0
E0
E0
ENDCHAR
STARTCHAR 2504
ENCODING 9476
SWIDTH 585 0
DWIDTH 13 0
BBX 12 2 1 7
BITMAP
EE70
EE70
ENDCHAR
STARTCHAR 2505
ENCODING 9477
SWIDTH 585 0
DWIDTH 13 0
BBX 12 4 1 6
BITMAP
EE70
EE70
EE70
EE70
ENDCHAR
STARTCHAR 2506
ENCODING 9478
SWIDTH 585 0
DWIDTH 13 0
BBX 2 25 6 -5
BITMAP
C0
C0
C0
C0
C0
C0
C0
00
00
C0
C0
C0
C0
C0
C0
C0
00
00
C0
C0
C0
C0
C0
C0
C0
ENDCHAR
STARTCHAR 2507
ENCODING 9479
SWIDTH 585 0
DWIDTH 13 0
BBX 3 25 5 -5
BITMAP
E0
E0
E0
E0
E0
E0
E0
00
00
E0
E0
E0
E0
E0
E0
E0
00
00
E0
E0
E0
E0
E0
E0
E0
ENDCHAR
STARTCHAR 2508
ENCODING 9480
SWIDTH 585 0
DWIDTH 13 0
BBX 12 2 1 7
BITMAP
DB30
DB30
ENDCHAR
STARTCHAR 2509
ENCODING 9481
SWIDTH 585 0
DWIDTH 13 0
BBX 12 4 1 6
BITMAP
DB30
DB30
DB30
DB30
ENDCHAR
STARTCHAR 250A
ENCODING 9482
SWIDTH 585 0
DWIDTH 13 0
BBX 2 25 6 -5
BITMAP
C0
C0
C0
C0
C0
00
00
C0
C0
C0
C0
C0
00
C0
C0
C0
C0
C0
00
00
C0
C0
C0
C0
C0
ENDCHAR
STARTCHAR 250B
ENCODING 9483
SWIDTH 585 0
DWIDTH 13 0
BBX 3 25 5 -5
BITMAP
E0
E0
E0
E0
E0
00
00
E0
E0
E0
E0
E0
00
E0
E0
E0
E0
E0
00
00
E0
E0
E0
E0
E0
ENDCHAR
STARTCHAR 250C
ENCODING 9484
SWIDTH 585 0
DWIDTH 13 0
BBX 8 15 6 -5
BITMAP
FF
FF
C0
C0
C0
C0
C0
C0
C0
C0
C0
C0
C0
C0
C0
ENDCHAR
STARTCHAR 250D
ENCODING 9485
SWIDTH 585 0
DWIDTH 13 0
BBX 8 16 6 -5
BITMAP
FF
FF
FF
FF
C0
C0
C0
C0
C0
C0
C0
C0
C0
C0
C0
C0
ENDCHAR
STARTCHAR 250E
ENCODING 9486
SWIDTH 585 0
DWIDTH 13 0
BBX 9 15 5 -5
BITMAP
FF80
FF80
E000
E000
E000
E000
E000
E000
E000
E000
E000
E000
E000
E000
E000
ENDCHAR
STARTCHAR 250F
ENCODING 9487
SWIDTH 585 0
DWIDTH 13 0
BBX 9 16 5 -5
BITMAP
FF80
FF80
FF80
FF80
E000
E000
E000
E000
E000
E000
E000
E000
E000
E000
E000
E000
ENDCHAR
STARTCHAR 2510
ENCODING 9488
SWIDTH 585 0
DWIDTH 13 0
BBX 8 15 0 -5
BITMAP
FF
FF
03
03
03
03
03
03
03
03
03
03
03
03
03
ENDCHAR
STARTCHAR 2511
ENCODING 9489
SWIDTH 585 0
DWIDTH 13 0
BBX 8 16 0 -5
BITMAP
FF
FF
FF
FF
03
03
03
03
03
03
03
03
03
03
03
03
ENDCHAR
STARTCHAR 2512
ENCODING 9490
SWIDTH 585 0
DWIDTH 13 0
BBX 8 15 0 -5
BITMAP
FF
FF
07
07
07
07
07
07
07
07
07
07
07
07
07
ENDCHAR
STARTCHAR 2513
ENCODING 9491
SWIDTH 585 0
DWIDTH 13 0
BBX 8 16 0 -5
BITMAP
FF
FF
FF
FF
07
07
07
07
07
07
07
07
07
07
07
07
ENDCHAR
STARTCHAR 2514
ENCODING 9492
SWIDTH 585 0
DWIDTH 13 0
BBX 8 15 6 7
BITMAP
C0
C0
C0
C0
C0
C0
C0
C0
C0
C0
C0
C0
C0
FF
FF
ENDCHAR
STARTCHAR 2515
ENCODING 9493
SWIDTH 585 0
DWIDTH 13 0
BBX 8 16 6 6
BITMAP
C0
C0
C0
C0
C0
C0
C0
C0
C0
C0
C0
C0
FF
FF
FF
FF
ENDCHAR
STARTCHAR 2516
ENCODING 9494
SWIDTH 585 0
DWIDTH 13 0
BBX 9 15 5 7
BITMAP
E000
E000
E000
E000
E000
E000
E000
E000
E000
E000
E000
E000
E000
FF80
FF80
ENDCHAR
STARTCHAR 2517
ENCODING 9495
SWIDTH 585 0
DWIDTH 13 0
BBX 9 16 5 6
BITMAP
E000
E000
E000
E000
E000
E000
E000
E000
E000
E000
E000
E000
FF80
FF80
FF80
FF80
ENDCHAR
STARTCHAR 2518
ENCODING 9496
SWIDTH 585 0
DWIDTH 13 0
BBX 8 15 0 7
BITMAP
03
03
03
03
03
03
03
03
03
03
03
03
03
FF
FF
ENDCHAR
ENDFONT
